<svg width="300" height="300" viewBox="0 0 300 300" fill="none" xmlns="http://www.w3.org/2000/svg">
<path d="M0 150C0 67.1573 67.1573 0 150 0C232.843 0 300 67.1573 300 150C300 232.843 232.843 300 150 300C67.1573 300 0 232.843 0 150Z" fill="#FAA831"/>
<path d="M115.853 118.455H117.955L122.899 130.528H123.069L128.012 118.455H130.115V133H128.467V121.949H128.325L123.779 133H122.188L117.643 121.949H117.501V133H115.853V118.455Z" fill="black"/>
<path d="M133.419 133V122.091H135.095V133H133.419ZM134.271 120.273C133.944 120.273 133.663 120.161 133.426 119.939C133.194 119.716 133.078 119.449 133.078 119.136C133.078 118.824 133.194 118.556 133.426 118.334C133.663 118.111 133.944 118 134.271 118C134.598 118 134.877 118.111 135.109 118.334C135.346 118.556 135.464 118.824 135.464 119.136C135.464 119.449 135.346 119.716 135.109 119.939C134.877 120.161 134.598 120.273 134.271 120.273Z" fill="black"/>
<path d="M145.892 124.534L144.387 124.96C144.292 124.709 144.152 124.465 143.968 124.229C143.788 123.987 143.541 123.788 143.229 123.632C142.916 123.476 142.516 123.398 142.029 123.398C141.361 123.398 140.805 123.552 140.36 123.859C139.919 124.162 139.699 124.548 139.699 125.017C139.699 125.434 139.851 125.763 140.154 126.004C140.457 126.246 140.93 126.447 141.574 126.608L143.193 127.006C144.169 127.242 144.896 127.605 145.374 128.092C145.852 128.575 146.091 129.198 146.091 129.96C146.091 130.585 145.911 131.144 145.551 131.636C145.196 132.129 144.699 132.517 144.06 132.801C143.421 133.085 142.677 133.227 141.83 133.227C140.717 133.227 139.796 132.986 139.067 132.503C138.338 132.02 137.876 131.314 137.682 130.386L139.273 129.989C139.424 130.576 139.711 131.016 140.132 131.31C140.558 131.603 141.115 131.75 141.801 131.75C142.583 131.75 143.203 131.584 143.662 131.253C144.126 130.917 144.358 130.514 144.358 130.045C144.358 129.667 144.226 129.349 143.96 129.094C143.695 128.833 143.288 128.639 142.739 128.511L140.921 128.085C139.922 127.848 139.188 127.482 138.719 126.984C138.255 126.482 138.023 125.855 138.023 125.102C138.023 124.487 138.196 123.942 138.541 123.469C138.892 122.995 139.368 122.624 139.969 122.354C140.575 122.084 141.262 121.949 142.029 121.949C143.108 121.949 143.956 122.186 144.571 122.659C145.191 123.133 145.632 123.758 145.892 124.534Z" fill="black"/>
<path d="M156.341 124.534L154.836 124.96C154.741 124.709 154.601 124.465 154.417 124.229C154.237 123.987 153.991 123.788 153.678 123.632C153.366 123.476 152.965 123.398 152.478 123.398C151.81 123.398 151.254 123.552 150.809 123.859C150.368 124.162 150.148 124.548 150.148 125.017C150.148 125.434 150.3 125.763 150.603 126.004C150.906 126.246 151.379 126.447 152.023 126.608L153.643 127.006C154.618 127.242 155.345 127.605 155.823 128.092C156.301 128.575 156.54 129.198 156.54 129.96C156.54 130.585 156.36 131.144 156.001 131.636C155.645 132.129 155.148 132.517 154.509 132.801C153.87 133.085 153.126 133.227 152.279 133.227C151.166 133.227 150.245 132.986 149.516 132.503C148.787 132.02 148.325 131.314 148.131 130.386L149.722 129.989C149.874 130.576 150.16 131.016 150.581 131.31C151.008 131.603 151.564 131.75 152.251 131.75C153.032 131.75 153.652 131.584 154.111 131.253C154.575 130.917 154.807 130.514 154.807 130.045C154.807 129.667 154.675 129.349 154.41 129.094C154.144 128.833 153.737 128.639 153.188 128.511L151.37 128.085C150.371 127.848 149.637 127.482 149.168 126.984C148.704 126.482 148.472 125.855 148.472 125.102C148.472 124.487 148.645 123.942 148.991 123.469C149.341 122.995 149.817 122.624 150.418 122.354C151.024 122.084 151.711 121.949 152.478 121.949C153.557 121.949 154.405 122.186 155.02 122.659C155.641 123.133 156.081 123.758 156.341 124.534Z" fill="black"/>
<path d="M159.063 133V122.091H160.74V133H159.063ZM159.916 120.273C159.589 120.273 159.307 120.161 159.07 119.939C158.838 119.716 158.722 119.449 158.722 119.136C158.722 118.824 158.838 118.556 159.07 118.334C159.307 118.111 159.589 118 159.916 118C160.242 118 160.522 118.111 160.754 118.334C160.99 118.556 161.109 118.824 161.109 119.136C161.109 119.449 160.99 119.716 160.754 119.939C160.522 120.161 160.242 120.273 159.916 120.273Z" fill="black"/>
<path d="M168.241 133.227C167.256 133.227 166.392 132.993 165.649 132.524C164.91 132.055 164.333 131.4 163.916 130.557C163.504 129.714 163.298 128.729 163.298 127.602C163.298 126.466 163.504 125.474 163.916 124.626C164.333 123.779 164.91 123.121 165.649 122.652C166.392 122.183 167.256 121.949 168.241 121.949C169.226 121.949 170.088 122.183 170.827 122.652C171.57 123.121 172.148 123.779 172.559 124.626C172.976 125.474 173.184 126.466 173.184 127.602C173.184 128.729 172.976 129.714 172.559 130.557C172.148 131.4 171.57 132.055 170.827 132.524C170.088 132.993 169.226 133.227 168.241 133.227ZM168.241 131.722C168.989 131.722 169.605 131.53 170.088 131.146C170.571 130.763 170.928 130.259 171.16 129.634C171.392 129.009 171.508 128.331 171.508 127.602C171.508 126.873 171.392 126.194 171.16 125.564C170.928 124.934 170.571 124.425 170.088 124.037C169.605 123.649 168.989 123.455 168.241 123.455C167.493 123.455 166.878 123.649 166.395 124.037C165.912 124.425 165.554 124.934 165.322 125.564C165.09 126.194 164.974 126.873 164.974 127.602C164.974 128.331 165.09 129.009 165.322 129.634C165.554 130.259 165.912 130.763 166.395 131.146C166.878 131.53 167.493 131.722 168.241 131.722Z" fill="black"/>
<path d="M177.419 126.438V133H175.743V122.091H177.362V123.795H177.504C177.76 123.241 178.148 122.796 178.669 122.46C179.19 122.119 179.862 121.949 180.686 121.949C181.425 121.949 182.071 122.1 182.625 122.403C183.179 122.702 183.61 123.156 183.918 123.767C184.226 124.373 184.379 125.14 184.379 126.068V133H182.703V126.182C182.703 125.325 182.481 124.657 182.036 124.179C181.591 123.696 180.98 123.455 180.203 123.455C179.668 123.455 179.19 123.571 178.769 123.803C178.352 124.035 178.023 124.373 177.781 124.818C177.54 125.263 177.419 125.803 177.419 126.438Z" fill="black"/>
<path d="M82.1138 152.509V151.727H87.5684V152.509H85.2814V159H84.4007V152.509H82.1138Z" fill="black"/>
<path d="M90.2388 159.114C89.7464 159.114 89.3143 158.996 88.9426 158.762C88.5733 158.528 88.2845 158.2 88.0762 157.778C87.8702 157.357 87.7672 156.865 87.7672 156.301C87.7672 155.733 87.8702 155.237 88.0762 154.813C88.2845 154.389 88.5733 154.06 88.9426 153.826C89.3143 153.592 89.7464 153.474 90.2388 153.474C90.7312 153.474 91.1621 153.592 91.5314 153.826C91.9031 154.06 92.1919 154.389 92.3979 154.813C92.6062 155.237 92.7104 155.733 92.7104 156.301C92.7104 156.865 92.6062 157.357 92.3979 157.778C92.1919 158.2 91.9031 158.528 91.5314 158.762C91.1621 158.996 90.7312 159.114 90.2388 159.114ZM90.2388 158.361C90.6129 158.361 90.9206 158.265 91.1621 158.073C91.4036 157.881 91.5823 157.629 91.6983 157.317C91.8143 157.004 91.8723 156.666 91.8723 156.301C91.8723 155.937 91.8143 155.597 91.6983 155.282C91.5823 154.967 91.4036 154.713 91.1621 154.518C90.9206 154.324 90.6129 154.227 90.2388 154.227C89.8648 154.227 89.557 154.324 89.3155 154.518C89.074 154.713 88.8953 154.967 88.7793 155.282C88.6633 155.597 88.6053 155.937 88.6053 156.301C88.6053 156.666 88.6633 157.004 88.7793 157.317C88.8953 157.629 89.074 157.881 89.3155 158.073C89.557 158.265 89.8648 158.361 90.2388 158.361Z" fill="black"/>
<path d="M99.0891 159.114C98.5636 159.114 98.1102 158.998 97.729 158.766C97.3503 158.531 97.0579 158.205 96.8519 157.786C96.6483 157.364 96.5465 156.874 96.5465 156.315C96.5465 155.757 96.6483 155.264 96.8519 154.838C97.0579 154.41 97.3443 154.076 97.7113 153.837C98.0806 153.595 98.5115 153.474 99.0039 153.474C99.288 153.474 99.5685 153.522 99.8455 153.616C100.123 153.711 100.375 153.865 100.602 154.078C100.829 154.289 101.01 154.568 101.145 154.916C101.28 155.264 101.348 155.693 101.348 156.202V156.557H97.1431V155.832H100.495C100.495 155.525 100.434 155.25 100.311 155.009C100.19 154.767 100.017 154.576 99.7923 154.437C99.5697 154.297 99.3069 154.227 99.0039 154.227C98.6701 154.227 98.3813 154.31 98.1374 154.476C97.896 154.639 97.7101 154.852 97.5799 155.115C97.4497 155.378 97.3846 155.66 97.3846 155.96V156.443C97.3846 156.855 97.4556 157.204 97.5977 157.491C97.7421 157.775 97.9421 157.991 98.1978 158.141C98.4535 158.287 98.7506 158.361 99.0891 158.361C99.3093 158.361 99.5082 158.33 99.6857 158.268C99.8656 158.205 100.021 158.11 100.151 157.984C100.281 157.857 100.382 157.698 100.453 157.509L101.262 157.736C101.177 158.01 101.034 158.252 100.833 158.46C100.632 158.666 100.383 158.827 100.087 158.943C99.7911 159.057 99.4585 159.114 99.0891 159.114Z" fill="black"/>
<path d="M103.101 153.545L104.408 155.776L105.715 153.545H106.681L104.919 156.273L106.681 159H105.715L104.408 156.884L103.101 159H102.135L103.868 156.273L102.135 153.545H103.101Z" fill="black"/>
<path d="M109.868 159.114C109.356 159.114 108.916 158.993 108.547 158.751C108.177 158.51 107.893 158.177 107.694 157.754C107.496 157.33 107.396 156.846 107.396 156.301C107.396 155.747 107.498 155.258 107.702 154.835C107.907 154.408 108.194 154.076 108.561 153.837C108.93 153.595 109.361 153.474 109.854 153.474C110.237 153.474 110.583 153.545 110.89 153.688C111.198 153.83 111.45 154.028 111.647 154.284C111.843 154.54 111.965 154.838 112.013 155.179H111.175C111.111 154.93 110.969 154.71 110.748 154.518C110.531 154.324 110.237 154.227 109.868 154.227C109.541 154.227 109.255 154.313 109.008 154.483C108.765 154.651 108.574 154.889 108.437 155.197C108.302 155.502 108.234 155.861 108.234 156.273C108.234 156.694 108.3 157.061 108.433 157.374C108.568 157.686 108.757 157.929 109.001 158.102C109.247 158.274 109.536 158.361 109.868 158.361C110.086 158.361 110.283 158.323 110.461 158.247C110.638 158.171 110.789 158.063 110.912 157.92C111.035 157.778 111.122 157.608 111.175 157.409H112.013C111.965 157.731 111.848 158.021 111.661 158.279C111.476 158.535 111.231 158.738 110.926 158.89C110.623 159.039 110.27 159.114 109.868 159.114Z" fill="black"/>
<path d="M115.525 159.114C114.999 159.114 114.546 158.998 114.165 158.766C113.786 158.531 113.493 158.205 113.287 157.786C113.084 157.364 112.982 156.874 112.982 156.315C112.982 155.757 113.084 155.264 113.287 154.838C113.493 154.41 113.78 154.076 114.147 153.837C114.516 153.595 114.947 153.474 115.439 153.474C115.724 153.474 116.004 153.522 116.281 153.616C116.558 153.711 116.81 153.865 117.037 154.078C117.265 154.289 117.446 154.568 117.581 154.916C117.716 155.264 117.783 155.693 117.783 156.202V156.557H113.579V155.832H116.931C116.931 155.525 116.869 155.25 116.746 155.009C116.626 154.767 116.453 154.576 116.228 154.437C116.005 154.297 115.742 154.227 115.439 154.227C115.106 154.227 114.817 154.31 114.573 154.476C114.331 154.639 114.146 154.852 114.015 155.115C113.885 155.378 113.82 155.66 113.82 155.96V156.443C113.82 156.855 113.891 157.204 114.033 157.491C114.178 157.775 114.378 157.991 114.633 158.141C114.889 158.287 115.186 158.361 115.525 158.361C115.745 158.361 115.944 158.33 116.121 158.268C116.301 158.205 116.456 158.11 116.586 157.984C116.717 157.857 116.817 157.698 116.888 157.509L117.698 157.736C117.613 158.01 117.47 158.252 117.268 158.46C117.067 158.666 116.818 158.827 116.523 158.943C116.227 159.057 115.894 159.114 115.525 159.114Z" fill="black"/>
<path d="M119.896 151.727V159H119.058V151.727H119.896Z" fill="black"/>
<path d="M124.244 159V153.545H125.082V159H124.244ZM124.67 152.636C124.506 152.636 124.366 152.581 124.247 152.469C124.131 152.358 124.073 152.224 124.073 152.068C124.073 151.912 124.131 151.778 124.247 151.667C124.366 151.556 124.506 151.5 124.67 151.5C124.833 151.5 124.973 151.556 125.089 151.667C125.207 151.778 125.266 151.912 125.266 152.068C125.266 152.224 125.207 152.358 125.089 152.469C124.973 152.581 124.833 152.636 124.67 152.636Z" fill="black"/>
<path d="M127.455 155.719V159H126.617V153.545H127.426V154.398H127.497C127.625 154.121 127.819 153.898 128.08 153.73C128.34 153.56 128.676 153.474 129.088 153.474C129.458 153.474 129.781 153.55 130.058 153.702C130.335 153.851 130.55 154.078 130.704 154.384C130.858 154.687 130.935 155.07 130.935 155.534V159H130.097V155.591C130.097 155.162 129.985 154.829 129.763 154.589C129.54 154.348 129.235 154.227 128.847 154.227C128.579 154.227 128.34 154.285 128.129 154.401C127.921 154.517 127.757 154.687 127.636 154.909C127.515 155.132 127.455 155.402 127.455 155.719Z" fill="black"/>
<path d="M137.651 153.545V154.256H134.824V153.545H137.651ZM135.648 152.239H136.486V157.438C136.486 157.674 136.52 157.852 136.589 157.97C136.66 158.086 136.75 158.164 136.859 158.205C136.97 158.242 137.087 158.261 137.211 158.261C137.303 158.261 137.379 158.257 137.438 158.247C137.497 158.235 137.544 158.226 137.58 158.219L137.75 158.972C137.694 158.993 137.614 159.014 137.512 159.036C137.411 159.059 137.282 159.071 137.125 159.071C136.889 159.071 136.657 159.02 136.429 158.918C136.204 158.817 136.017 158.661 135.868 158.453C135.721 158.245 135.648 157.982 135.648 157.665V152.239Z" fill="black"/>
<path d="M139.867 155.719V159H139.029V151.727H139.867V154.398H139.938C140.066 154.116 140.257 153.892 140.513 153.727C140.771 153.558 141.114 153.474 141.543 153.474C141.915 153.474 142.24 153.549 142.52 153.698C142.799 153.845 143.016 154.071 143.169 154.376C143.326 154.679 143.404 155.065 143.404 155.534V159H142.566V155.591C142.566 155.158 142.453 154.823 142.228 154.586C142.006 154.347 141.697 154.227 141.301 154.227C141.027 154.227 140.781 154.285 140.563 154.401C140.347 154.517 140.177 154.687 140.051 154.909C139.928 155.132 139.867 155.402 139.867 155.719Z" fill="black"/>
<path d="M147.224 159.114C146.698 159.114 146.245 158.998 145.864 158.766C145.485 158.531 145.193 158.205 144.987 157.786C144.783 157.364 144.681 156.874 144.681 156.315C144.681 155.757 144.783 155.264 144.987 154.838C145.193 154.41 145.479 154.076 145.846 153.837C146.215 153.595 146.646 153.474 147.139 153.474C147.423 153.474 147.703 153.522 147.98 153.616C148.257 153.711 148.509 153.865 148.737 154.078C148.964 154.289 149.145 154.568 149.28 154.916C149.415 155.264 149.482 155.693 149.482 156.202V156.557H145.278V155.832H148.63C148.63 155.525 148.569 155.25 148.445 155.009C148.325 154.767 148.152 154.576 147.927 154.437C147.704 154.297 147.442 154.227 147.139 154.227C146.805 154.227 146.516 154.31 146.272 154.476C146.031 154.639 145.845 154.852 145.715 155.115C145.584 155.378 145.519 155.66 145.519 155.96V156.443C145.519 156.855 145.59 157.204 145.732 157.491C145.877 157.775 146.077 157.991 146.333 158.141C146.588 158.287 146.885 158.361 147.224 158.361C147.444 158.361 147.643 158.33 147.82 158.268C148 158.205 148.155 158.11 148.286 157.984C148.416 157.857 148.517 157.698 148.588 157.509L149.397 157.736C149.312 158.01 149.169 158.252 148.968 158.46C148.766 158.666 148.518 158.827 148.222 158.943C147.926 159.057 147.593 159.114 147.224 159.114Z" fill="black"/>
<path d="M155.786 159.114C155.293 159.114 154.861 158.996 154.49 158.762C154.12 158.528 153.831 158.2 153.623 157.778C153.417 157.357 153.314 156.865 153.314 156.301C153.314 155.733 153.417 155.237 153.623 154.813C153.831 154.389 154.12 154.06 154.49 153.826C154.861 153.592 155.293 153.474 155.786 153.474C156.278 153.474 156.709 153.592 157.078 153.826C157.45 154.06 157.739 154.389 157.945 154.813C158.153 155.237 158.257 155.733 158.257 156.301C158.257 156.865 158.153 157.357 157.945 157.778C157.739 158.2 157.45 158.528 157.078 158.762C156.709 158.996 156.278 159.114 155.786 159.114ZM155.786 158.361C156.16 158.361 156.468 158.265 156.709 158.073C156.95 157.881 157.129 157.629 157.245 157.317C157.361 157.004 157.419 156.666 157.419 156.301C157.419 155.937 157.361 155.597 157.245 155.282C157.129 154.967 156.95 154.713 156.709 154.518C156.468 154.324 156.16 154.227 155.786 154.227C155.412 154.227 155.104 154.324 154.862 154.518C154.621 154.713 154.442 154.967 154.326 155.282C154.21 155.597 154.152 155.937 154.152 156.301C154.152 156.666 154.21 157.004 154.326 157.317C154.442 157.629 154.621 157.881 154.862 158.073C155.104 158.265 155.412 158.361 155.786 158.361Z" fill="black"/>
<path d="M159.537 161.045V153.545H160.346V154.412H160.446C160.507 154.317 160.592 154.196 160.701 154.05C160.813 153.901 160.971 153.768 161.177 153.652C161.386 153.534 161.667 153.474 162.022 153.474C162.482 153.474 162.886 153.589 163.237 153.819C163.587 154.049 163.861 154.374 164.057 154.795C164.254 155.217 164.352 155.714 164.352 156.287C164.352 156.865 164.254 157.365 164.057 157.789C163.861 158.21 163.588 158.537 163.24 158.769C162.892 158.999 162.491 159.114 162.037 159.114C161.686 159.114 161.406 159.056 161.195 158.94C160.984 158.821 160.822 158.687 160.708 158.538C160.595 158.387 160.507 158.261 160.446 158.162H160.375V161.045H159.537ZM160.36 156.273C160.36 156.685 160.421 157.048 160.542 157.363C160.662 157.675 160.839 157.92 161.071 158.098C161.303 158.273 161.587 158.361 161.923 158.361C162.273 158.361 162.566 158.268 162.8 158.084C163.037 157.897 163.214 157.646 163.333 157.331C163.453 157.014 163.514 156.661 163.514 156.273C163.514 155.889 163.455 155.544 163.336 155.236C163.22 154.926 163.044 154.681 162.807 154.501C162.573 154.318 162.278 154.227 161.923 154.227C161.582 154.227 161.296 154.314 161.064 154.487C160.832 154.657 160.656 154.896 160.538 155.204C160.42 155.509 160.36 155.866 160.36 156.273Z" fill="black"/>
<path d="M167.917 159.114C167.392 159.114 166.938 158.998 166.557 158.766C166.178 158.531 165.886 158.205 165.68 157.786C165.476 157.364 165.375 156.874 165.375 156.315C165.375 155.757 165.476 155.264 165.68 154.838C165.886 154.41 166.172 154.076 166.539 153.837C166.909 153.595 167.34 153.474 167.832 153.474C168.116 153.474 168.397 153.522 168.674 153.616C168.951 153.711 169.203 153.865 169.43 154.078C169.657 154.289 169.838 154.568 169.973 154.916C170.108 155.264 170.176 155.693 170.176 156.202V156.557H165.971V155.832H169.324C169.324 155.525 169.262 155.25 169.139 155.009C169.018 154.767 168.845 154.576 168.62 154.437C168.398 154.297 168.135 154.227 167.832 154.227C167.498 154.227 167.209 154.31 166.966 154.476C166.724 154.639 166.538 154.852 166.408 155.115C166.278 155.378 166.213 155.66 166.213 155.96V156.443C166.213 156.855 166.284 157.204 166.426 157.491C166.57 157.775 166.77 157.991 167.026 158.141C167.282 158.287 167.579 158.361 167.917 158.361C168.137 158.361 168.336 158.33 168.514 158.268C168.694 158.205 168.849 158.11 168.979 157.984C169.109 157.857 169.21 157.698 169.281 157.509L170.091 157.736C170.005 158.01 169.862 158.252 169.661 158.46C169.46 158.666 169.211 158.827 168.915 158.943C168.619 159.057 168.287 159.114 167.917 159.114Z" fill="black"/>
<path d="M171.451 159V153.545H172.26V154.369H172.317C172.417 154.099 172.596 153.88 172.857 153.712C173.117 153.544 173.411 153.46 173.738 153.46C173.799 153.46 173.876 153.461 173.968 153.464C174.061 153.466 174.131 153.47 174.178 153.474V154.327C174.15 154.32 174.084 154.309 173.983 154.295C173.883 154.278 173.778 154.27 173.667 154.27C173.401 154.27 173.165 154.326 172.956 154.437C172.75 154.546 172.587 154.697 172.466 154.891C172.348 155.083 172.289 155.302 172.289 155.548V159H171.451Z" fill="black"/>
<path d="M176.776 159.128C176.431 159.128 176.117 159.063 175.835 158.933C175.554 158.8 175.33 158.609 175.164 158.361C174.999 158.11 174.916 157.807 174.916 157.452C174.916 157.139 174.977 156.886 175.1 156.692C175.223 156.495 175.388 156.341 175.594 156.23C175.8 156.119 176.027 156.036 176.276 155.982C176.527 155.925 176.779 155.88 177.032 155.847C177.364 155.804 177.632 155.772 177.838 155.751C178.047 155.727 178.198 155.688 178.293 155.634C178.39 155.579 178.438 155.484 178.438 155.349V155.321C178.438 154.971 178.343 154.698 178.151 154.504C177.961 154.31 177.674 154.213 177.288 154.213C176.888 154.213 176.574 154.301 176.347 154.476C176.119 154.651 175.96 154.838 175.867 155.037L175.072 154.753C175.214 154.421 175.403 154.163 175.64 153.979C175.879 153.792 176.14 153.661 176.421 153.588C176.705 153.512 176.985 153.474 177.259 153.474C177.435 153.474 177.636 153.496 177.863 153.538C178.093 153.579 178.314 153.663 178.527 153.79C178.743 153.918 178.921 154.111 179.063 154.369C179.205 154.627 179.276 154.973 179.276 155.406V159H178.438V158.261H178.396C178.339 158.38 178.244 158.506 178.112 158.641C177.979 158.776 177.803 158.891 177.583 158.986C177.362 159.08 177.094 159.128 176.776 159.128ZM176.904 158.375C177.236 158.375 177.515 158.31 177.742 158.18C177.972 158.049 178.145 157.881 178.261 157.675C178.379 157.469 178.438 157.253 178.438 157.026V156.259C178.403 156.301 178.325 156.34 178.204 156.376C178.086 156.409 177.948 156.438 177.792 156.464C177.638 156.488 177.488 156.509 177.341 156.528C177.197 156.545 177.079 156.559 176.99 156.571C176.772 156.599 176.568 156.646 176.379 156.71C176.192 156.771 176.04 156.865 175.924 156.99C175.811 157.113 175.754 157.281 175.754 157.494C175.754 157.786 175.861 158.006 176.077 158.155C176.295 158.302 176.57 158.375 176.904 158.375Z" fill="black"/>
<path d="M183.178 153.545V154.256H180.352V153.545H183.178ZM181.175 152.239H182.013V157.438C182.013 157.674 182.048 157.852 182.116 157.97C182.187 158.086 182.277 158.164 182.386 158.205C182.498 158.242 182.615 158.261 182.738 158.261C182.83 158.261 182.906 158.257 182.965 158.247C183.024 158.235 183.072 158.226 183.107 158.219L183.278 158.972C183.221 158.993 183.142 159.014 183.04 159.036C182.938 159.059 182.809 159.071 182.653 159.071C182.416 159.071 182.184 159.02 181.957 158.918C181.732 158.817 181.545 158.661 181.396 158.453C181.249 158.245 181.175 157.982 181.175 157.665V152.239Z" fill="black"/>
<path d="M184.439 159V153.545H185.277V159H184.439ZM184.865 152.636C184.702 152.636 184.561 152.581 184.442 152.469C184.326 152.358 184.268 152.224 184.268 152.068C184.268 151.912 184.326 151.778 184.442 151.667C184.561 151.556 184.702 151.5 184.865 151.5C185.028 151.5 185.168 151.556 185.284 151.667C185.402 151.778 185.462 151.912 185.462 152.068C185.462 152.224 185.402 152.358 185.284 152.469C185.168 152.581 185.028 152.636 184.865 152.636Z" fill="black"/>
<path d="M189.028 159.114C188.535 159.114 188.103 158.996 187.732 158.762C187.362 158.528 187.074 158.2 186.865 157.778C186.659 157.357 186.556 156.865 186.556 156.301C186.556 155.733 186.659 155.237 186.865 154.813C187.074 154.389 187.362 154.06 187.732 153.826C188.103 153.592 188.535 153.474 189.028 153.474C189.52 153.474 189.951 153.592 190.32 153.826C190.692 154.06 190.981 154.389 191.187 154.813C191.395 155.237 191.499 155.733 191.499 156.301C191.499 156.865 191.395 157.357 191.187 157.778C190.981 158.2 190.692 158.528 190.32 158.762C189.951 158.996 189.52 159.114 189.028 159.114ZM189.028 158.361C189.402 158.361 189.71 158.265 189.951 158.073C190.193 157.881 190.371 157.629 190.487 157.317C190.603 157.004 190.661 156.666 190.661 156.301C190.661 155.937 190.603 155.597 190.487 155.282C190.371 154.967 190.193 154.713 189.951 154.518C189.71 154.324 189.402 154.227 189.028 154.227C188.654 154.227 188.346 154.324 188.105 154.518C187.863 154.713 187.684 154.967 187.568 155.282C187.452 155.597 187.394 155.937 187.394 156.301C187.394 156.666 187.452 157.004 187.568 157.317C187.684 157.629 187.863 157.881 188.105 158.073C188.346 158.265 188.654 158.361 189.028 158.361Z" fill="black"/>
<path d="M193.617 155.719V159H192.779V153.545H193.588V154.398H193.659C193.787 154.121 193.981 153.898 194.242 153.73C194.502 153.56 194.838 153.474 195.25 153.474C195.62 153.474 195.943 153.55 196.22 153.702C196.497 153.851 196.712 154.078 196.866 154.384C197.02 154.687 197.097 155.07 197.097 155.534V159H196.259V155.591C196.259 155.162 196.148 154.829 195.925 154.589C195.703 154.348 195.397 154.227 195.009 154.227C194.741 154.227 194.502 154.285 194.292 154.401C194.083 154.517 193.919 154.687 193.798 154.909C193.677 155.132 193.617 155.402 193.617 155.719Z" fill="black"/>
<path d="M203.046 159.128C202.7 159.128 202.387 159.063 202.105 158.933C201.823 158.8 201.599 158.609 201.434 158.361C201.268 158.11 201.185 157.807 201.185 157.452C201.185 157.139 201.247 156.886 201.37 156.692C201.493 156.495 201.657 156.341 201.863 156.23C202.069 156.119 202.297 156.036 202.545 155.982C202.796 155.925 203.048 155.88 203.302 155.847C203.633 155.804 203.902 155.772 204.108 155.751C204.316 155.727 204.468 155.688 204.562 155.634C204.659 155.579 204.708 155.484 204.708 155.349V155.321C204.708 154.971 204.612 154.698 204.42 154.504C204.231 154.31 203.943 154.213 203.557 154.213C203.157 154.213 202.844 154.301 202.616 154.476C202.389 154.651 202.229 154.838 202.137 155.037L201.341 154.753C201.483 154.421 201.673 154.163 201.91 153.979C202.149 153.792 202.409 153.661 202.691 153.588C202.975 153.512 203.254 153.474 203.529 153.474C203.704 153.474 203.905 153.496 204.133 153.538C204.362 153.579 204.584 153.663 204.797 153.79C205.012 153.918 205.191 154.111 205.333 154.369C205.475 154.627 205.546 154.973 205.546 155.406V159H204.708V158.261H204.665C204.608 158.38 204.514 158.506 204.381 158.641C204.249 158.776 204.072 158.891 203.852 158.986C203.632 159.08 203.363 159.128 203.046 159.128ZM203.174 158.375C203.505 158.375 203.785 158.31 204.012 158.18C204.242 158.049 204.414 157.881 204.53 157.675C204.649 157.469 204.708 157.253 204.708 157.026V156.259C204.672 156.301 204.594 156.34 204.474 156.376C204.355 156.409 204.218 156.438 204.062 156.464C203.908 156.488 203.757 156.509 203.611 156.528C203.466 156.545 203.349 156.559 203.259 156.571C203.041 156.599 202.838 156.646 202.648 156.71C202.461 156.771 202.31 156.865 202.194 156.99C202.08 157.113 202.023 157.281 202.023 157.494C202.023 157.786 202.131 158.006 202.346 158.155C202.564 158.302 202.84 158.375 203.174 158.375Z" fill="black"/>
<path d="M207.914 155.719V159H207.076V153.545H207.885V154.398H207.956C208.084 154.121 208.278 153.898 208.539 153.73C208.799 153.56 209.135 153.474 209.547 153.474C209.917 153.474 210.24 153.55 210.517 153.702C210.794 153.851 211.009 154.078 211.163 154.384C211.317 154.687 211.394 155.07 211.394 155.534V159H210.556V155.591C210.556 155.162 210.444 154.829 210.222 154.589C209.999 154.348 209.694 154.227 209.306 154.227C209.038 154.227 208.799 154.285 208.588 154.401C208.38 154.517 208.216 154.687 208.095 154.909C207.974 155.132 207.914 155.402 207.914 155.719Z" fill="black"/>
<path d="M214.985 159.114C214.53 159.114 214.129 158.999 213.781 158.769C213.433 158.537 213.161 158.21 212.964 157.789C212.768 157.365 212.67 156.865 212.67 156.287C212.67 155.714 212.768 155.217 212.964 154.795C213.161 154.374 213.434 154.049 213.785 153.819C214.135 153.589 214.54 153.474 214.999 153.474C215.354 153.474 215.635 153.534 215.841 153.652C216.049 153.768 216.208 153.901 216.317 154.05C216.428 154.196 216.514 154.317 216.576 154.412H216.647V151.727H217.485V159H216.675V158.162H216.576C216.514 158.261 216.427 158.387 216.313 158.538C216.199 158.687 216.037 158.821 215.827 158.94C215.616 159.056 215.335 159.114 214.985 159.114ZM215.099 158.361C215.435 158.361 215.719 158.273 215.951 158.098C216.183 157.92 216.359 157.675 216.48 157.363C216.601 157.048 216.661 156.685 216.661 156.273C216.661 155.866 216.602 155.509 216.483 155.204C216.365 154.896 216.19 154.657 215.958 154.487C215.726 154.314 215.439 154.227 215.099 154.227C214.743 154.227 214.447 154.318 214.211 154.501C213.976 154.681 213.8 154.926 213.682 155.236C213.566 155.544 213.508 155.889 213.508 156.273C213.508 156.661 213.567 157.014 213.685 157.331C213.806 157.646 213.983 157.897 214.218 158.084C214.455 158.268 214.748 158.361 215.099 158.361Z" fill="black"/>
<path d="M97.3042 171.114C96.8497 171.114 96.4484 170.999 96.1004 170.769C95.7524 170.537 95.4801 170.21 95.2836 169.789C95.0871 169.365 94.9889 168.865 94.9889 168.287C94.9889 167.714 95.0871 167.217 95.2836 166.795C95.4801 166.374 95.7536 166.049 96.104 165.819C96.4543 165.589 96.8592 165.474 97.3185 165.474C97.6736 165.474 97.9541 165.534 98.1601 165.652C98.3684 165.768 98.527 165.901 98.6359 166.05C98.7472 166.196 98.8336 166.317 98.8951 166.412H98.9662V163.727H99.8042V171H98.9946V170.162H98.8951C98.8336 170.261 98.746 170.387 98.6324 170.538C98.5187 170.687 98.3566 170.821 98.1459 170.94C97.9352 171.056 97.6546 171.114 97.3042 171.114ZM97.4179 170.361C97.7541 170.361 98.0381 170.273 98.2701 170.098C98.5022 169.92 98.6785 169.675 98.7993 169.363C98.92 169.048 98.9804 168.685 98.9804 168.273C98.9804 167.866 98.9212 167.509 98.8028 167.204C98.6845 166.896 98.5093 166.657 98.2773 166.487C98.0452 166.314 97.7588 166.227 97.4179 166.227C97.0628 166.227 96.7668 166.318 96.5301 166.501C96.2957 166.681 96.1193 166.926 96.001 167.236C95.885 167.544 95.827 167.889 95.827 168.273C95.827 168.661 95.8862 169.014 96.0045 169.331C96.1253 169.646 96.3028 169.897 96.5372 170.084C96.7739 170.268 97.0675 170.361 97.4179 170.361Z" fill="black"/>
<path d="M103.742 171.114C103.217 171.114 102.764 170.998 102.382 170.766C102.004 170.531 101.711 170.205 101.505 169.786C101.302 169.364 101.2 168.874 101.2 168.315C101.2 167.757 101.302 167.264 101.505 166.838C101.711 166.41 101.998 166.076 102.365 165.837C102.734 165.595 103.165 165.474 103.657 165.474C103.941 165.474 104.222 165.522 104.499 165.616C104.776 165.711 105.028 165.865 105.255 166.078C105.483 166.289 105.664 166.568 105.799 166.916C105.934 167.264 106.001 167.693 106.001 168.202V168.557H101.796V167.832H105.149C105.149 167.525 105.087 167.25 104.964 167.009C104.843 166.767 104.67 166.576 104.446 166.437C104.223 166.297 103.96 166.227 103.657 166.227C103.323 166.227 103.035 166.31 102.791 166.476C102.549 166.639 102.363 166.852 102.233 167.115C102.103 167.378 102.038 167.66 102.038 167.96V168.443C102.038 168.855 102.109 169.204 102.251 169.491C102.395 169.775 102.595 169.991 102.851 170.141C103.107 170.287 103.404 170.361 103.742 170.361C103.963 170.361 104.161 170.33 104.339 170.268C104.519 170.205 104.674 170.11 104.804 169.984C104.934 169.857 105.035 169.698 105.106 169.509L105.916 169.736C105.831 170.01 105.687 170.252 105.486 170.46C105.285 170.666 105.036 170.827 104.74 170.943C104.444 171.057 104.112 171.114 103.742 171.114Z" fill="black"/>
<path d="M111.57 165.545L109.553 171H108.701L106.684 165.545H107.593L109.098 169.892H109.155L110.661 165.545H111.57Z" fill="black"/>
<path d="M114.768 171.114C114.242 171.114 113.789 170.998 113.408 170.766C113.029 170.531 112.737 170.205 112.531 169.786C112.327 169.364 112.225 168.874 112.225 168.315C112.225 167.757 112.327 167.264 112.531 166.838C112.737 166.41 113.023 166.076 113.39 165.837C113.759 165.595 114.19 165.474 114.683 165.474C114.967 165.474 115.247 165.522 115.524 165.616C115.801 165.711 116.053 165.865 116.281 166.078C116.508 166.289 116.689 166.568 116.824 166.916C116.959 167.264 117.026 167.693 117.026 168.202V168.557H112.822V167.832H116.174C116.174 167.525 116.113 167.25 115.989 167.009C115.869 166.767 115.696 166.576 115.471 166.437C115.248 166.297 114.986 166.227 114.683 166.227C114.349 166.227 114.06 166.31 113.816 166.476C113.575 166.639 113.389 166.852 113.259 167.115C113.128 167.378 113.063 167.66 113.063 167.96V168.443C113.063 168.855 113.134 169.204 113.276 169.491C113.421 169.775 113.621 169.991 113.877 170.141C114.132 170.287 114.429 170.361 114.768 170.361C114.988 170.361 115.187 170.33 115.364 170.268C115.544 170.205 115.699 170.11 115.83 169.984C115.96 169.857 116.06 169.698 116.131 169.509L116.941 169.736C116.856 170.01 116.713 170.252 116.511 170.46C116.31 170.666 116.062 170.827 115.766 170.943C115.47 171.057 115.137 171.114 114.768 171.114Z" fill="black"/>
<path d="M119.139 163.727V171H118.301V163.727H119.139Z" fill="black"/>
<path d="M122.89 171.114C122.398 171.114 121.966 170.996 121.594 170.762C121.225 170.528 120.936 170.2 120.728 169.778C120.522 169.357 120.419 168.865 120.419 168.301C120.419 167.733 120.522 167.237 120.728 166.813C120.936 166.389 121.225 166.06 121.594 165.826C121.966 165.592 122.398 165.474 122.89 165.474C123.383 165.474 123.813 165.592 124.183 165.826C124.554 166.06 124.843 166.389 125.049 166.813C125.258 167.237 125.362 167.733 125.362 168.301C125.362 168.865 125.258 169.357 125.049 169.778C124.843 170.2 124.554 170.528 124.183 170.762C123.813 170.996 123.383 171.114 122.89 171.114ZM122.89 170.361C123.264 170.361 123.572 170.265 123.813 170.073C124.055 169.881 124.234 169.629 124.35 169.317C124.466 169.004 124.524 168.666 124.524 168.301C124.524 167.937 124.466 167.597 124.35 167.282C124.234 166.967 124.055 166.713 123.813 166.518C123.572 166.324 123.264 166.227 122.89 166.227C122.516 166.227 122.208 166.324 121.967 166.518C121.725 166.713 121.547 166.967 121.431 167.282C121.315 167.597 121.257 167.937 121.257 168.301C121.257 168.666 121.315 169.004 121.431 169.317C121.547 169.629 121.725 169.881 121.967 170.073C122.208 170.265 122.516 170.361 122.89 170.361Z" fill="black"/>
<path d="M126.641 173.045V165.545H127.451V166.412H127.55C127.612 166.317 127.697 166.196 127.806 166.05C127.917 165.901 128.076 165.768 128.282 165.652C128.49 165.534 128.772 165.474 129.127 165.474C129.586 165.474 129.991 165.589 130.341 165.819C130.692 166.049 130.965 166.374 131.162 166.795C131.358 167.217 131.456 167.714 131.456 168.287C131.456 168.865 131.358 169.365 131.162 169.789C130.965 170.21 130.693 170.537 130.345 170.769C129.997 170.999 129.596 171.114 129.141 171.114C128.791 171.114 128.51 171.056 128.299 170.94C128.089 170.821 127.927 170.687 127.813 170.538C127.699 170.387 127.612 170.261 127.55 170.162H127.479V173.045H126.641ZM127.465 168.273C127.465 168.685 127.525 169.048 127.646 169.363C127.767 169.675 127.943 169.92 128.175 170.098C128.407 170.273 128.691 170.361 129.027 170.361C129.378 170.361 129.67 170.268 129.905 170.084C130.141 169.897 130.319 169.646 130.437 169.331C130.558 169.014 130.618 168.661 130.618 168.273C130.618 167.889 130.559 167.544 130.441 167.236C130.325 166.926 130.148 166.681 129.912 166.501C129.677 166.318 129.383 166.227 129.027 166.227C128.687 166.227 128.4 166.314 128.168 166.487C127.936 166.657 127.761 166.896 127.642 167.204C127.524 167.509 127.465 167.866 127.465 168.273Z" fill="black"/>
<path d="M132.735 171V165.545H133.544V166.398H133.615C133.729 166.107 133.913 165.88 134.166 165.719C134.419 165.556 134.723 165.474 135.079 165.474C135.438 165.474 135.738 165.556 135.977 165.719C136.218 165.88 136.407 166.107 136.542 166.398H136.598C136.738 166.116 136.948 165.892 137.227 165.727C137.506 165.558 137.841 165.474 138.232 165.474C138.72 165.474 139.119 165.627 139.429 165.933C139.739 166.236 139.894 166.708 139.894 167.349V171H139.056V167.349C139.056 166.947 138.946 166.659 138.726 166.487C138.505 166.314 138.246 166.227 137.948 166.227C137.564 166.227 137.267 166.343 137.057 166.575C136.846 166.805 136.74 167.096 136.74 167.449V171H135.888V167.264C135.888 166.954 135.788 166.704 135.586 166.515C135.385 166.323 135.126 166.227 134.809 166.227C134.591 166.227 134.387 166.285 134.198 166.401C134.011 166.517 133.859 166.678 133.743 166.884C133.63 167.088 133.573 167.323 133.573 167.591V171H132.735Z" fill="black"/>
<path d="M143.713 171.114C143.188 171.114 142.734 170.998 142.353 170.766C141.974 170.531 141.682 170.205 141.476 169.786C141.272 169.364 141.171 168.874 141.171 168.315C141.171 167.757 141.272 167.264 141.476 166.838C141.682 166.41 141.968 166.076 142.335 165.837C142.705 165.595 143.136 165.474 143.628 165.474C143.912 165.474 144.193 165.522 144.47 165.616C144.747 165.711 144.999 165.865 145.226 166.078C145.453 166.289 145.634 166.568 145.769 166.916C145.904 167.264 145.972 167.693 145.972 168.202V168.557H141.767V167.832H145.119C145.119 167.525 145.058 167.25 144.935 167.009C144.814 166.767 144.641 166.576 144.416 166.437C144.194 166.297 143.931 166.227 143.628 166.227C143.294 166.227 143.005 166.31 142.761 166.476C142.52 166.639 142.334 166.852 142.204 167.115C142.074 167.378 142.009 167.66 142.009 167.96V168.443C142.009 168.855 142.08 169.204 142.222 169.491C142.366 169.775 142.566 169.991 142.822 170.141C143.078 170.287 143.375 170.361 143.713 170.361C143.933 170.361 144.132 170.33 144.31 170.268C144.49 170.205 144.645 170.11 144.775 169.984C144.905 169.857 145.006 169.698 145.077 169.509L145.886 169.736C145.801 170.01 145.658 170.252 145.457 170.46C145.256 170.666 145.007 170.827 144.711 170.943C144.415 171.057 144.082 171.114 143.713 171.114Z" fill="black"/>
<path d="M148.085 167.719V171H147.247V165.545H148.056V166.398H148.127C148.255 166.121 148.449 165.898 148.71 165.73C148.97 165.56 149.306 165.474 149.718 165.474C150.087 165.474 150.411 165.55 150.688 165.702C150.965 165.851 151.18 166.078 151.334 166.384C151.488 166.687 151.565 167.07 151.565 167.534V171H150.727V167.591C150.727 167.162 150.615 166.829 150.393 166.589C150.17 166.348 149.865 166.227 149.477 166.227C149.209 166.227 148.97 166.285 148.759 166.401C148.551 166.517 148.386 166.687 148.266 166.909C148.145 167.132 148.085 167.402 148.085 167.719Z" fill="black"/>
<path d="M155.468 165.545V166.256H152.642V165.545H155.468ZM153.465 164.239H154.304V169.438C154.304 169.674 154.338 169.852 154.407 169.97C154.478 170.086 154.568 170.164 154.676 170.205C154.788 170.242 154.905 170.261 155.028 170.261C155.12 170.261 155.196 170.257 155.255 170.247C155.314 170.235 155.362 170.226 155.397 170.219L155.568 170.972C155.511 170.993 155.432 171.014 155.33 171.036C155.228 171.059 155.099 171.071 154.943 171.071C154.706 171.071 154.474 171.02 154.247 170.918C154.022 170.817 153.835 170.661 153.686 170.453C153.539 170.245 153.465 169.982 153.465 169.665V164.239Z" fill="black"/>
<path d="M161.757 171.114C161.265 171.114 160.833 170.996 160.461 170.762C160.092 170.528 159.803 170.2 159.595 169.778C159.389 169.357 159.286 168.865 159.286 168.301C159.286 167.733 159.389 167.237 159.595 166.813C159.803 166.389 160.092 166.06 160.461 165.826C160.833 165.592 161.265 165.474 161.757 165.474C162.25 165.474 162.681 165.592 163.05 165.826C163.422 166.06 163.71 166.389 163.916 166.813C164.125 167.237 164.229 167.733 164.229 168.301C164.229 168.865 164.125 169.357 163.916 169.778C163.71 170.2 163.422 170.528 163.05 170.762C162.681 170.996 162.25 171.114 161.757 171.114ZM161.757 170.361C162.131 170.361 162.439 170.265 162.681 170.073C162.922 169.881 163.101 169.629 163.217 169.317C163.333 169.004 163.391 168.666 163.391 168.301C163.391 167.937 163.333 167.597 163.217 167.282C163.101 166.967 162.922 166.713 162.681 166.518C162.439 166.324 162.131 166.227 161.757 166.227C161.383 166.227 161.076 166.324 160.834 166.518C160.593 166.713 160.414 166.967 160.298 167.282C160.182 167.597 160.124 167.937 160.124 168.301C160.124 168.666 160.182 169.004 160.298 169.317C160.414 169.629 160.593 169.881 160.834 170.073C161.076 170.265 161.383 170.361 161.757 170.361Z" fill="black"/>
<path d="M167.937 165.545V166.256H164.997V165.545H167.937ZM165.878 171V164.793C165.878 164.48 165.951 164.22 166.098 164.011C166.245 163.803 166.435 163.647 166.669 163.543C166.904 163.438 167.151 163.386 167.412 163.386C167.618 163.386 167.786 163.403 167.916 163.436C168.046 163.469 168.143 163.5 168.207 163.528L167.966 164.253C167.923 164.239 167.864 164.221 167.788 164.2C167.715 164.178 167.618 164.168 167.497 164.168C167.22 164.168 167.02 164.237 166.897 164.377C166.776 164.517 166.716 164.722 166.716 164.991V171H165.878Z" fill="black"/>
<path d="M172.038 171V163.727H172.919V166.966H176.796V163.727H177.677V171H176.796V167.747H172.919V171H172.038Z" fill="black"/>
<path d="M179.44 171V163.727H180.321V167.335H180.406L183.673 163.727H184.824L181.77 167.009L184.824 171H183.758L181.23 167.619L180.321 168.642V171H179.44Z" fill="black"/>
<path d="M186.844 163.727V171H185.964V163.727H186.844Z" fill="black"/>
<path d="M188.908 171H187.985L190.656 163.727H191.565L194.235 171H193.312L191.139 164.878H191.082L188.908 171ZM189.249 168.159H192.971V168.94H189.249V168.159Z" fill="black"/>
<path d="M198.067 171V165.545H198.905V171H198.067ZM198.493 164.636C198.33 164.636 198.189 164.581 198.07 164.469C197.954 164.358 197.896 164.224 197.896 164.068C197.896 163.912 197.954 163.778 198.07 163.667C198.189 163.556 198.33 163.5 198.493 163.5C198.656 163.5 198.796 163.556 198.912 163.667C199.03 163.778 199.09 163.912 199.09 164.068C199.09 164.224 199.03 164.358 198.912 164.469C198.796 164.581 198.656 164.636 198.493 164.636Z" fill="black"/>
<path d="M201.278 167.719V171H200.44V165.545H201.25V166.398H201.321C201.448 166.121 201.643 165.898 201.903 165.73C202.163 165.56 202.5 165.474 202.911 165.474C203.281 165.474 203.604 165.55 203.881 165.702C204.158 165.851 204.373 166.078 204.527 166.384C204.681 166.687 204.758 167.07 204.758 167.534V171H203.92V167.591C203.92 167.162 203.809 166.829 203.586 166.589C203.364 166.348 203.058 166.227 202.67 166.227C202.402 166.227 202.163 166.285 201.953 166.401C201.744 166.517 201.58 166.687 201.459 166.909C201.338 167.132 201.278 167.402 201.278 167.719Z" fill="black"/>
<path d="M71.6988 183.114C71.1874 183.114 70.7471 182.993 70.3778 182.751C70.0084 182.51 69.7243 182.177 69.5255 181.754C69.3266 181.33 69.2272 180.846 69.2272 180.301C69.2272 179.747 69.329 179.258 69.5326 178.835C69.7386 178.408 70.025 178.076 70.392 177.837C70.7613 177.595 71.1921 177.474 71.6846 177.474C72.0681 177.474 72.4137 177.545 72.7215 177.688C73.0293 177.83 73.2814 178.028 73.4779 178.284C73.6744 178.54 73.7963 178.838 73.8437 179.179H73.0056C72.9417 178.93 72.7996 178.71 72.5795 178.518C72.3617 178.324 72.0681 178.227 71.6988 178.227C71.3721 178.227 71.0856 178.313 70.8394 178.483C70.5956 178.651 70.405 178.889 70.2677 179.197C70.1327 179.502 70.0653 179.861 70.0653 180.273C70.0653 180.694 70.1315 181.061 70.2641 181.374C70.3991 181.686 70.5885 181.929 70.8323 182.102C71.0785 182.274 71.3673 182.361 71.6988 182.361C71.9166 182.361 72.1143 182.323 72.2918 182.247C72.4694 182.171 72.6197 182.063 72.7428 181.92C72.8659 181.778 72.9535 181.608 73.0056 181.409H73.8437C73.7963 181.731 73.6791 182.021 73.4921 182.279C73.3074 182.535 73.0624 182.738 72.757 182.89C72.454 183.039 72.1012 183.114 71.6988 183.114Z" fill="black"/>
<path d="M77.2847 183.114C76.7923 183.114 76.3602 182.996 75.9885 182.762C75.6192 182.528 75.3304 182.2 75.1221 181.778C74.9161 181.357 74.8131 180.865 74.8131 180.301C74.8131 179.733 74.9161 179.237 75.1221 178.813C75.3304 178.389 75.6192 178.06 75.9885 177.826C76.3602 177.592 76.7923 177.474 77.2847 177.474C77.7771 177.474 78.208 177.592 78.5773 177.826C78.949 178.06 79.2378 178.389 79.4438 178.813C79.6521 179.237 79.7563 179.733 79.7563 180.301C79.7563 180.865 79.6521 181.357 79.4438 181.778C79.2378 182.2 78.949 182.528 78.5773 182.762C78.208 182.996 77.7771 183.114 77.2847 183.114ZM77.2847 182.361C77.6588 182.361 77.9665 182.265 78.208 182.073C78.4495 181.881 78.6282 181.629 78.7442 181.317C78.8602 181.004 78.9182 180.666 78.9182 180.301C78.9182 179.937 78.8602 179.597 78.7442 179.282C78.6282 178.967 78.4495 178.713 78.208 178.518C77.9665 178.324 77.6588 178.227 77.2847 178.227C76.9107 178.227 76.6029 178.324 76.3614 178.518C76.1199 178.713 75.9412 178.967 75.8252 179.282C75.7092 179.597 75.6512 179.937 75.6512 180.301C75.6512 180.666 75.7092 181.004 75.8252 181.317C75.9412 181.629 76.1199 181.881 76.3614 182.073C76.6029 182.265 76.9107 182.361 77.2847 182.361Z" fill="black"/>
<path d="M81.8737 175.727V183H81.0356V175.727H81.8737Z" fill="black"/>
<path d="M84.2467 175.727V183H83.4086V175.727H84.2467Z" fill="black"/>
<path d="M87.3868 183.128C87.0412 183.128 86.7275 183.063 86.4458 182.933C86.164 182.8 85.9403 182.609 85.7746 182.361C85.6089 182.11 85.526 181.807 85.526 181.452C85.526 181.139 85.5876 180.886 85.7107 180.692C85.8338 180.495 85.9983 180.341 86.2043 180.23C86.4102 180.119 86.6375 180.036 86.8861 179.982C87.137 179.925 87.3892 179.88 87.6425 179.847C87.9739 179.804 88.2426 179.772 88.4486 179.751C88.6569 179.727 88.8084 179.688 88.9031 179.634C89.0002 179.579 89.0487 179.484 89.0487 179.349V179.321C89.0487 178.971 88.9529 178.698 88.7611 178.504C88.5717 178.31 88.2841 178.213 87.8982 178.213C87.4981 178.213 87.1844 178.301 86.9571 178.476C86.7298 178.651 86.57 178.838 86.4777 179.037L85.6823 178.753C85.8243 178.421 86.0137 178.163 86.2504 177.979C86.4896 177.792 86.75 177.661 87.0317 177.588C87.3158 177.512 87.5951 177.474 87.8698 177.474C88.0449 177.474 88.2462 177.496 88.4735 177.538C88.7031 177.579 88.9245 177.663 89.1375 177.79C89.353 177.918 89.5317 178.111 89.6737 178.369C89.8158 178.627 89.8868 178.973 89.8868 179.406V183H89.0487V182.261H89.0061C88.9493 182.38 88.8546 182.506 88.722 182.641C88.5895 182.776 88.4131 182.891 88.1929 182.986C87.9727 183.08 87.704 183.128 87.3868 183.128ZM87.5146 182.375C87.8461 182.375 88.1254 182.31 88.3527 182.18C88.5824 182.049 88.7552 181.881 88.8712 181.675C88.9896 181.469 89.0487 181.253 89.0487 181.026V180.259C89.0132 180.301 88.9351 180.34 88.8144 180.376C88.696 180.409 88.5587 180.438 88.4024 180.464C88.2486 180.488 88.0982 180.509 87.9514 180.528C87.807 180.545 87.6898 180.559 87.5999 180.571C87.3821 180.599 87.1785 180.646 86.9891 180.71C86.8021 180.771 86.6505 180.865 86.5345 180.99C86.4209 181.113 86.3641 181.281 86.3641 181.494C86.3641 181.786 86.4718 182.006 86.6872 182.155C86.905 182.302 87.1808 182.375 87.5146 182.375Z" fill="black"/>
<path d="M91.5301 183V175.727H92.3682V178.412H92.4392C92.5007 178.317 92.586 178.196 92.6949 178.05C92.8061 177.901 92.9648 177.768 93.1707 177.652C93.3791 177.534 93.6608 177.474 94.0159 177.474C94.4752 177.474 94.88 177.589 95.2304 177.819C95.5808 178.049 95.8542 178.374 96.0507 178.795C96.2472 179.217 96.3454 179.714 96.3454 180.287C96.3454 180.865 96.2472 181.365 96.0507 181.789C95.8542 182.21 95.5819 182.537 95.2339 182.769C94.8859 182.999 94.4846 183.114 94.0301 183.114C93.6797 183.114 93.3992 183.056 93.1885 182.94C92.9778 182.821 92.8156 182.687 92.702 182.538C92.5883 182.387 92.5007 182.261 92.4392 182.162H92.3398V183H91.5301ZM92.354 180.273C92.354 180.685 92.4143 181.048 92.5351 181.363C92.6558 181.675 92.8322 181.92 93.0642 182.098C93.2962 182.273 93.5803 182.361 93.9165 182.361C94.2668 182.361 94.5592 182.268 94.7936 182.084C95.0303 181.897 95.2079 181.646 95.3263 181.331C95.447 181.014 95.5074 180.661 95.5074 180.273C95.5074 179.889 95.4482 179.544 95.3298 179.236C95.2138 178.926 95.0374 178.681 94.8007 178.501C94.5663 178.318 94.2716 178.227 93.9165 178.227C93.5755 178.227 93.2891 178.314 93.0571 178.487C92.8251 178.657 92.6499 178.896 92.5315 179.204C92.4131 179.509 92.354 179.866 92.354 180.273Z" fill="black"/>
<path d="M99.8433 183.114C99.3509 183.114 98.9188 182.996 98.5471 182.762C98.1778 182.528 97.889 182.2 97.6807 181.778C97.4747 181.357 97.3717 180.865 97.3717 180.301C97.3717 179.733 97.4747 179.237 97.6807 178.813C97.889 178.389 98.1778 178.06 98.5471 177.826C98.9188 177.592 99.3509 177.474 99.8433 177.474C100.336 177.474 100.767 177.592 101.136 177.826C101.508 178.06 101.796 178.389 102.002 178.813C102.211 179.237 102.315 179.733 102.315 180.301C102.315 180.865 102.211 181.357 102.002 181.778C101.796 182.2 101.508 182.528 101.136 182.762C100.767 182.996 100.336 183.114 99.8433 183.114ZM99.8433 182.361C100.217 182.361 100.525 182.265 100.767 182.073C101.008 181.881 101.187 181.629 101.303 181.317C101.419 181.004 101.477 180.666 101.477 180.301C101.477 179.937 101.419 179.597 101.303 179.282C101.187 178.967 101.008 178.713 100.767 178.518C100.525 178.324 100.217 178.227 99.8433 178.227C99.4693 178.227 99.1615 178.324 98.92 178.518C98.6785 178.713 98.4998 178.967 98.3838 179.282C98.2678 179.597 98.2098 179.937 98.2098 180.301C98.2098 180.666 98.2678 181.004 98.3838 181.317C98.4998 181.629 98.6785 181.881 98.92 182.073C99.1615 182.265 99.4693 182.361 99.8433 182.361Z" fill="black"/>
<path d="M103.594 183V177.545H104.404V178.369H104.461C104.56 178.099 104.74 177.88 105 177.712C105.261 177.544 105.554 177.46 105.881 177.46C105.943 177.46 106.02 177.461 106.112 177.464C106.204 177.466 106.274 177.47 106.321 177.474V178.327C106.293 178.32 106.228 178.309 106.126 178.295C106.027 178.278 105.921 178.27 105.81 178.27C105.545 178.27 105.308 178.326 105.1 178.437C104.894 178.546 104.731 178.697 104.61 178.891C104.491 179.083 104.432 179.302 104.432 179.548V183H103.594Z" fill="black"/>
<path d="M108.92 183.128C108.574 183.128 108.261 183.063 107.979 182.933C107.697 182.8 107.474 182.609 107.308 182.361C107.142 182.11 107.059 181.807 107.059 181.452C107.059 181.139 107.121 180.886 107.244 180.692C107.367 180.495 107.532 180.341 107.737 180.23C107.943 180.119 108.171 180.036 108.419 179.982C108.67 179.925 108.922 179.88 109.176 179.847C109.507 179.804 109.776 179.772 109.982 179.751C110.19 179.727 110.342 179.688 110.436 179.634C110.533 179.579 110.582 179.484 110.582 179.349V179.321C110.582 178.971 110.486 178.698 110.294 178.504C110.105 178.31 109.817 178.213 109.431 178.213C109.031 178.213 108.718 178.301 108.49 178.476C108.263 178.651 108.103 178.838 108.011 179.037L107.215 178.753C107.358 178.421 107.547 178.163 107.784 177.979C108.023 177.792 108.283 177.661 108.565 177.588C108.849 177.512 109.128 177.474 109.403 177.474C109.578 177.474 109.779 177.496 110.007 177.538C110.236 177.579 110.458 177.663 110.671 177.79C110.886 177.918 111.065 178.111 111.207 178.369C111.349 178.627 111.42 178.973 111.42 179.406V183H110.582V182.261H110.539C110.483 182.38 110.388 182.506 110.255 182.641C110.123 182.776 109.946 182.891 109.726 182.986C109.506 183.08 109.237 183.128 108.92 183.128ZM109.048 182.375C109.379 182.375 109.659 182.31 109.886 182.18C110.116 182.049 110.288 181.881 110.404 181.675C110.523 181.469 110.582 181.253 110.582 181.026V180.259C110.546 180.301 110.468 180.34 110.348 180.376C110.229 180.409 110.092 180.438 109.936 180.464C109.782 180.488 109.631 180.509 109.485 180.528C109.34 180.545 109.223 180.559 109.133 180.571C108.915 180.599 108.712 180.646 108.522 180.71C108.335 180.771 108.184 180.865 108.068 180.99C107.954 181.113 107.897 181.281 107.897 181.494C107.897 181.786 108.005 182.006 108.22 182.155C108.438 182.302 108.714 182.375 109.048 182.375Z" fill="black"/>
<path d="M115.322 177.545V178.256H112.495V177.545H115.322ZM113.319 176.239H114.157V181.438C114.157 181.674 114.191 181.852 114.26 181.97C114.331 182.086 114.421 182.164 114.53 182.205C114.641 182.242 114.758 182.261 114.881 182.261C114.974 182.261 115.05 182.257 115.109 182.247C115.168 182.235 115.215 182.226 115.251 182.219L115.421 182.972C115.364 182.993 115.285 183.014 115.183 183.036C115.082 183.059 114.953 183.071 114.796 183.071C114.56 183.071 114.328 183.02 114.1 182.918C113.875 182.817 113.688 182.661 113.539 182.453C113.392 182.245 113.319 181.982 113.319 181.665V176.239Z" fill="black"/>
<path d="M116.582 183V177.545H117.421V183H116.582ZM117.009 176.636C116.845 176.636 116.704 176.581 116.586 176.469C116.47 176.358 116.412 176.224 116.412 176.068C116.412 175.912 116.47 175.778 116.586 175.667C116.704 175.556 116.845 175.5 117.009 175.5C117.172 175.5 117.312 175.556 117.428 175.667C117.546 175.778 117.605 175.912 117.605 176.068C117.605 176.224 117.546 176.358 117.428 176.469C117.312 176.581 117.172 176.636 117.009 176.636Z" fill="black"/>
<path d="M121.171 183.114C120.679 183.114 120.247 182.996 119.875 182.762C119.506 182.528 119.217 182.2 119.009 181.778C118.803 181.357 118.7 180.865 118.7 180.301C118.7 179.733 118.803 179.237 119.009 178.813C119.217 178.389 119.506 178.06 119.875 177.826C120.247 177.592 120.679 177.474 121.171 177.474C121.664 177.474 122.095 177.592 122.464 177.826C122.836 178.06 123.125 178.389 123.331 178.813C123.539 179.237 123.643 179.733 123.643 180.301C123.643 180.865 123.539 181.357 123.331 181.778C123.125 182.2 122.836 182.528 122.464 182.762C122.095 182.996 121.664 183.114 121.171 183.114ZM121.171 182.361C121.545 182.361 121.853 182.265 122.095 182.073C122.336 181.881 122.515 181.629 122.631 181.317C122.747 181.004 122.805 180.666 122.805 180.301C122.805 179.937 122.747 179.597 122.631 179.282C122.515 178.967 122.336 178.713 122.095 178.518C121.853 178.324 121.545 178.227 121.171 178.227C120.797 178.227 120.49 178.324 120.248 178.518C120.007 178.713 119.828 178.967 119.712 179.282C119.596 179.597 119.538 179.937 119.538 180.301C119.538 180.666 119.596 181.004 119.712 181.317C119.828 181.629 120.007 181.881 120.248 182.073C120.49 182.265 120.797 182.361 121.171 182.361Z" fill="black"/>
<path d="M125.76 179.719V183H124.922V177.545H125.732V178.398H125.803C125.931 178.121 126.125 177.898 126.385 177.73C126.646 177.56 126.982 177.474 127.394 177.474C127.763 177.474 128.086 177.55 128.363 177.702C128.64 177.851 128.856 178.078 129.01 178.384C129.164 178.687 129.24 179.07 129.24 179.534V183H128.402V179.591C128.402 179.162 128.291 178.829 128.069 178.589C127.846 178.348 127.541 178.227 127.152 178.227C126.885 178.227 126.646 178.285 126.435 178.401C126.227 178.517 126.062 178.687 125.941 178.909C125.821 179.132 125.76 179.402 125.76 179.719Z" fill="black"/>
<path d="M134.82 183L133.158 177.545H134.039L135.218 181.722H135.275L136.44 177.545H137.334L138.485 181.707H138.542L139.721 177.545H140.601L138.94 183H138.116L136.923 178.81H136.837L135.644 183H134.82Z" fill="black"/>
<path d="M141.709 183V177.545H142.548V183H141.709ZM142.136 176.636C141.972 176.636 141.831 176.581 141.713 176.469C141.597 176.358 141.539 176.224 141.539 176.068C141.539 175.912 141.597 175.778 141.713 175.667C141.831 175.556 141.972 175.5 142.136 175.5C142.299 175.5 142.439 175.556 142.555 175.667C142.673 175.778 142.732 175.912 142.732 176.068C142.732 176.224 142.673 176.358 142.555 176.469C142.439 176.581 142.299 176.636 142.136 176.636Z" fill="black"/>
<path d="M146.455 177.545V178.256H143.628V177.545H146.455ZM144.452 176.239H145.29V181.438C145.29 181.674 145.324 181.852 145.393 181.97C145.464 182.086 145.554 182.164 145.663 182.205C145.774 182.242 145.891 182.261 146.014 182.261C146.107 182.261 146.182 182.257 146.242 182.247C146.301 182.235 146.348 182.226 146.384 182.219L146.554 182.972C146.497 182.993 146.418 183.014 146.316 183.036C146.214 183.059 146.085 183.071 145.929 183.071C145.692 183.071 145.46 183.02 145.233 182.918C145.008 182.817 144.821 182.661 144.672 182.453C144.525 182.245 144.452 181.982 144.452 181.665V176.239Z" fill="black"/>
<path d="M148.671 179.719V183H147.832V175.727H148.671V178.398H148.742C148.869 178.116 149.061 177.892 149.317 177.727C149.575 177.558 149.918 177.474 150.347 177.474C150.718 177.474 151.044 177.549 151.323 177.698C151.603 177.845 151.819 178.071 151.973 178.376C152.129 178.679 152.207 179.065 152.207 179.534V183H151.369V179.591C151.369 179.158 151.257 178.823 151.032 178.586C150.81 178.347 150.501 178.227 150.105 178.227C149.831 178.227 149.584 178.285 149.367 178.401C149.151 178.517 148.981 178.687 148.855 178.909C148.732 179.132 148.671 179.402 148.671 179.719Z" fill="black"/>
<path d="M158.769 183.114C158.277 183.114 157.845 182.996 157.473 182.762C157.104 182.528 156.815 182.2 156.606 181.778C156.4 181.357 156.298 180.865 156.298 180.301C156.298 179.733 156.4 179.237 156.606 178.813C156.815 178.389 157.104 178.06 157.473 177.826C157.845 177.592 158.277 177.474 158.769 177.474C159.262 177.474 159.692 177.592 160.062 177.826C160.433 178.06 160.722 178.389 160.928 178.813C161.137 179.237 161.241 179.733 161.241 180.301C161.241 180.865 161.137 181.357 160.928 181.778C160.722 182.2 160.433 182.528 160.062 182.762C159.692 182.996 159.262 183.114 158.769 183.114ZM158.769 182.361C159.143 182.361 159.451 182.265 159.692 182.073C159.934 181.881 160.113 181.629 160.229 181.317C160.345 181.004 160.403 180.666 160.403 180.301C160.403 179.937 160.345 179.597 160.229 179.282C160.113 178.967 159.934 178.713 159.692 178.518C159.451 178.324 159.143 178.227 158.769 178.227C158.395 178.227 158.087 178.324 157.846 178.518C157.604 178.713 157.426 178.967 157.31 179.282C157.194 179.597 157.136 179.937 157.136 180.301C157.136 180.666 157.194 181.004 157.31 181.317C157.426 181.629 157.604 181.881 157.846 182.073C158.087 182.265 158.395 182.361 158.769 182.361Z" fill="black"/>
<path d="M165.957 180.77V177.545H166.796V183H165.957V182.077H165.901C165.773 182.354 165.574 182.589 165.304 182.783C165.034 182.975 164.693 183.071 164.281 183.071C163.94 183.071 163.637 182.996 163.372 182.847C163.107 182.696 162.899 182.469 162.747 182.165C162.596 181.86 162.52 181.475 162.52 181.011V177.545H163.358V180.955C163.358 181.352 163.469 181.67 163.692 181.906C163.917 182.143 164.203 182.261 164.551 182.261C164.76 182.261 164.971 182.208 165.187 182.102C165.405 181.995 165.587 181.832 165.734 181.612C165.883 181.391 165.957 181.111 165.957 180.77Z" fill="black"/>
<path d="M168.331 183V177.545H169.14V178.369H169.197C169.296 178.099 169.476 177.88 169.737 177.712C169.997 177.544 170.291 177.46 170.617 177.46C170.679 177.46 170.756 177.461 170.848 177.464C170.941 177.466 171.01 177.47 171.058 177.474V178.327C171.029 178.32 170.964 178.309 170.862 178.295C170.763 178.278 170.658 178.27 170.546 178.27C170.281 178.27 170.045 178.326 169.836 178.437C169.63 178.546 169.467 178.697 169.346 178.891C169.228 179.083 169.169 179.302 169.169 179.548V183H168.331Z" fill="black"/>
<path d="M174.864 185.045V177.545H175.673V178.412H175.773C175.834 178.317 175.92 178.196 176.029 178.05C176.14 177.901 176.298 177.768 176.504 177.652C176.713 177.534 176.994 177.474 177.35 177.474C177.809 177.474 178.214 177.589 178.564 177.819C178.914 178.049 179.188 178.374 179.384 178.795C179.581 179.217 179.679 179.714 179.679 180.287C179.679 180.865 179.581 181.365 179.384 181.789C179.188 182.21 178.916 182.537 178.568 182.769C178.22 182.999 177.818 183.114 177.364 183.114C177.013 183.114 176.733 183.056 176.522 182.94C176.311 182.821 176.149 182.687 176.036 182.538C175.922 182.387 175.834 182.261 175.773 182.162H175.702V185.045H174.864ZM175.688 180.273C175.688 180.685 175.748 181.048 175.869 181.363C175.989 181.675 176.166 181.92 176.398 182.098C176.63 182.273 176.914 182.361 177.25 182.361C177.6 182.361 177.893 182.268 178.127 182.084C178.364 181.897 178.542 181.646 178.66 181.331C178.781 181.014 178.841 180.661 178.841 180.273C178.841 179.889 178.782 179.544 178.663 179.236C178.547 178.926 178.371 178.681 178.134 178.501C177.9 178.318 177.605 178.227 177.25 178.227C176.909 178.227 176.623 178.314 176.391 178.487C176.159 178.657 175.984 178.896 175.865 179.204C175.747 179.509 175.688 179.866 175.688 180.273Z" fill="black"/>
<path d="M182.563 183.128C182.217 183.128 181.903 183.063 181.622 182.933C181.34 182.8 181.116 182.609 180.95 182.361C180.785 182.11 180.702 181.807 180.702 181.452C180.702 181.139 180.763 180.886 180.886 180.692C181.01 180.495 181.174 180.341 181.38 180.23C181.586 180.119 181.813 180.036 182.062 179.982C182.313 179.925 182.565 179.88 182.818 179.847C183.15 179.804 183.418 179.772 183.624 179.751C183.833 179.727 183.984 179.688 184.079 179.634C184.176 179.579 184.225 179.484 184.225 179.349V179.321C184.225 178.971 184.129 178.698 183.937 178.504C183.747 178.31 183.46 178.213 183.074 178.213C182.674 178.213 182.36 178.301 182.133 178.476C181.906 178.651 181.746 178.838 181.654 179.037L180.858 178.753C181 178.421 181.189 178.163 181.426 177.979C181.665 177.792 181.926 177.661 182.207 177.588C182.492 177.512 182.771 177.474 183.046 177.474C183.221 177.474 183.422 177.496 183.649 177.538C183.879 177.579 184.1 177.663 184.313 177.79C184.529 177.918 184.707 178.111 184.85 178.369C184.992 178.627 185.063 178.973 185.063 179.406V183H184.225V182.261H184.182C184.125 182.38 184.03 182.506 183.898 182.641C183.765 182.776 183.589 182.891 183.369 182.986C183.149 183.08 182.88 183.128 182.563 183.128ZM182.69 182.375C183.022 182.375 183.301 182.31 183.529 182.18C183.758 182.049 183.931 181.881 184.047 181.675C184.165 181.469 184.225 181.253 184.225 181.026V180.259C184.189 180.301 184.111 180.34 183.99 180.376C183.872 180.409 183.734 180.438 183.578 180.464C183.424 180.488 183.274 180.509 183.127 180.528C182.983 180.545 182.866 180.559 182.776 180.571C182.558 180.599 182.354 180.646 182.165 180.71C181.978 180.771 181.826 180.865 181.71 180.99C181.597 181.113 181.54 181.281 181.54 181.494C181.54 181.786 181.648 182.006 181.863 182.155C182.081 182.302 182.357 182.375 182.69 182.375Z" fill="black"/>
<path d="M186.592 183V177.545H187.402V178.369H187.459C187.558 178.099 187.738 177.88 187.998 177.712C188.259 177.544 188.552 177.46 188.879 177.46C188.941 177.46 189.018 177.461 189.11 177.464C189.202 177.466 189.272 177.47 189.32 177.474V178.327C189.291 178.32 189.226 178.309 189.124 178.295C189.025 178.278 188.919 178.27 188.808 178.27C188.543 178.27 188.306 178.326 188.098 178.437C187.892 178.546 187.729 178.697 187.608 178.891C187.489 179.083 187.43 179.302 187.43 179.548V183H186.592Z" fill="black"/>
<path d="M193.027 177.545V178.256H190.2V177.545H193.027ZM191.024 176.239H191.862V181.438C191.862 181.674 191.896 181.852 191.965 181.97C192.036 182.086 192.126 182.164 192.235 182.205C192.346 182.242 192.463 182.261 192.587 182.261C192.679 182.261 192.755 182.257 192.814 182.247C192.873 182.235 192.92 182.226 192.956 182.219L193.126 182.972C193.07 182.993 192.99 183.014 192.888 183.036C192.787 183.059 192.658 183.071 192.501 183.071C192.265 183.071 192.033 183.02 191.805 182.918C191.58 182.817 191.393 182.661 191.244 182.453C191.097 182.245 191.024 181.982 191.024 181.665V176.239Z" fill="black"/>
<path d="M195.126 179.719V183H194.288V177.545H195.097V178.398H195.168C195.296 178.121 195.49 177.898 195.751 177.73C196.011 177.56 196.347 177.474 196.759 177.474C197.128 177.474 197.452 177.55 197.729 177.702C198.006 177.851 198.221 178.078 198.375 178.384C198.529 178.687 198.606 179.07 198.606 179.534V183H197.768V179.591C197.768 179.162 197.656 178.829 197.434 178.589C197.211 178.348 196.906 178.227 196.518 178.227C196.25 178.227 196.011 178.285 195.8 178.401C195.592 178.517 195.427 178.687 195.307 178.909C195.186 179.132 195.126 179.402 195.126 179.719Z" fill="black"/>
<path d="M202.424 183.114C201.899 183.114 201.445 182.998 201.064 182.766C200.685 182.531 200.393 182.205 200.187 181.786C199.983 181.364 199.881 180.874 199.881 180.315C199.881 179.757 199.983 179.264 200.187 178.838C200.393 178.41 200.679 178.076 201.046 177.837C201.416 177.595 201.846 177.474 202.339 177.474C202.623 177.474 202.903 177.522 203.18 177.616C203.457 177.711 203.71 177.865 203.937 178.078C204.164 178.289 204.345 178.568 204.48 178.916C204.615 179.264 204.683 179.693 204.683 180.202V180.557H200.478V179.832H203.83C203.83 179.525 203.769 179.25 203.646 179.009C203.525 178.767 203.352 178.576 203.127 178.437C202.905 178.297 202.642 178.227 202.339 178.227C202.005 178.227 201.716 178.31 201.472 178.476C201.231 178.639 201.045 178.852 200.915 179.115C200.785 179.378 200.72 179.66 200.72 179.96V180.443C200.72 180.855 200.791 181.204 200.933 181.491C201.077 181.775 201.277 181.991 201.533 182.141C201.788 182.287 202.086 182.361 202.424 182.361C202.644 182.361 202.843 182.33 203.021 182.268C203.201 182.205 203.356 182.11 203.486 181.984C203.616 181.857 203.717 181.698 203.788 181.509L204.597 181.736C204.512 182.01 204.369 182.252 204.168 182.46C203.966 182.666 203.718 182.827 203.422 182.943C203.126 183.057 202.793 183.114 202.424 183.114Z" fill="black"/>
<path d="M205.957 183V177.545H206.767V178.369H206.824C206.923 178.099 207.103 177.88 207.364 177.712C207.624 177.544 207.918 177.46 208.244 177.46C208.306 177.46 208.383 177.461 208.475 177.464C208.568 177.466 208.637 177.47 208.685 177.474V178.327C208.656 178.32 208.591 178.309 208.489 178.295C208.39 178.278 208.285 178.27 208.173 178.27C207.908 178.27 207.671 178.326 207.463 178.437C207.257 178.546 207.094 178.697 206.973 178.891C206.855 179.083 206.796 179.302 206.796 179.548V183H205.957Z" fill="black"/>
<path d="M213.542 178.767L212.789 178.98C212.742 178.855 212.672 178.733 212.579 178.614C212.489 178.494 212.366 178.394 212.21 178.316C212.054 178.238 211.854 178.199 211.61 178.199C211.276 178.199 210.998 178.276 210.775 178.43C210.555 178.581 210.445 178.774 210.445 179.009C210.445 179.217 210.521 179.381 210.673 179.502C210.824 179.623 211.061 179.723 211.383 179.804L212.192 180.003C212.68 180.121 213.043 180.302 213.283 180.546C213.522 180.788 213.641 181.099 213.641 181.48C213.641 181.793 213.551 182.072 213.371 182.318C213.194 182.564 212.945 182.759 212.626 182.901C212.306 183.043 211.934 183.114 211.511 183.114C210.954 183.114 210.494 182.993 210.129 182.751C209.765 182.51 209.534 182.157 209.437 181.693L210.232 181.494C210.308 181.788 210.451 182.008 210.662 182.155C210.875 182.302 211.153 182.375 211.496 182.375C211.887 182.375 212.197 182.292 212.427 182.126C212.659 181.958 212.775 181.757 212.775 181.523C212.775 181.333 212.708 181.175 212.576 181.047C212.443 180.917 212.24 180.82 211.965 180.756L211.056 180.543C210.556 180.424 210.19 180.241 209.955 179.992C209.723 179.741 209.607 179.428 209.607 179.051C209.607 178.743 209.694 178.471 209.866 178.234C210.042 177.998 210.28 177.812 210.58 177.677C210.883 177.542 211.226 177.474 211.61 177.474C212.15 177.474 212.574 177.593 212.881 177.83C213.191 178.066 213.412 178.379 213.542 178.767Z" fill="black"/>
<path d="M217.829 183V175.727H218.667V178.412H218.738C218.8 178.317 218.885 178.196 218.994 178.05C219.105 177.901 219.264 177.768 219.47 177.652C219.678 177.534 219.96 177.474 220.315 177.474C220.774 177.474 221.179 177.589 221.529 177.819C221.88 178.049 222.153 178.374 222.35 178.795C222.546 179.217 222.644 179.714 222.644 180.287C222.644 180.865 222.546 181.365 222.35 181.789C222.153 182.21 221.881 182.537 221.533 182.769C221.185 182.999 220.783 183.114 220.329 183.114C219.979 183.114 219.698 183.056 219.487 182.94C219.277 182.821 219.114 182.687 219.001 182.538C218.887 182.387 218.8 182.261 218.738 182.162H218.639V183H217.829ZM218.653 180.273C218.653 180.685 218.713 181.048 218.834 181.363C218.955 181.675 219.131 181.92 219.363 182.098C219.595 182.273 219.879 182.361 220.215 182.361C220.566 182.361 220.858 182.268 221.092 182.084C221.329 181.897 221.507 181.646 221.625 181.331C221.746 181.014 221.806 180.661 221.806 180.273C221.806 179.889 221.747 179.544 221.629 179.236C221.513 178.926 221.336 178.681 221.1 178.501C220.865 178.318 220.57 178.227 220.215 178.227C219.874 178.227 219.588 178.314 219.356 178.487C219.124 178.657 218.949 178.896 218.83 179.204C218.712 179.509 218.653 179.866 218.653 180.273Z" fill="black"/>
<path d="M224.271 185.045C224.129 185.045 224.002 185.034 223.891 185.01C223.779 184.989 223.703 184.967 223.66 184.946L223.873 184.207C224.077 184.259 224.256 184.278 224.413 184.264C224.569 184.25 224.707 184.18 224.828 184.055C224.951 183.932 225.064 183.732 225.166 183.455L225.322 183.028L223.305 177.545H224.214L225.72 181.892H225.776L227.282 177.545H228.191L225.876 183.795C225.772 184.077 225.643 184.31 225.489 184.495C225.335 184.682 225.156 184.821 224.952 184.911C224.751 185 224.524 185.045 224.271 185.045Z" fill="black"/>
<path d="M229.908 183.057C229.733 183.057 229.583 182.994 229.457 182.869C229.332 182.743 229.269 182.593 229.269 182.418C229.269 182.242 229.332 182.092 229.457 181.967C229.583 181.841 229.733 181.778 229.908 181.778C230.083 181.778 230.234 181.841 230.359 181.967C230.485 182.092 230.547 182.242 230.547 182.418C230.547 182.534 230.518 182.64 230.459 182.737C230.402 182.834 230.325 182.912 230.228 182.972C230.133 183.028 230.026 183.057 229.908 183.057ZM229.908 179.009C229.733 179.009 229.583 178.946 229.457 178.82C229.332 178.695 229.269 178.545 229.269 178.369C229.269 178.194 229.332 178.044 229.457 177.918C229.583 177.793 229.733 177.73 229.908 177.73C230.083 177.73 230.234 177.793 230.359 177.918C230.485 178.044 230.547 178.194 230.547 178.369C230.547 178.485 230.518 178.592 230.459 178.689C230.402 178.786 230.325 178.864 230.228 178.923C230.133 178.98 230.026 179.009 229.908 179.009Z" fill="black"/>
</svg>
