<svg width="150" height="150" viewBox="0 0 150 150" fill="none" xmlns="http://www.w3.org/2000/svg">
<path d="M0 75C0 33.5786 33.5786 0 75 0C116.421 0 150 33.5786 150 75C150 116.421 116.421 150 75 150C33.5786 150 0 116.421 0 75Z" fill="#FAA831"/>
<path d="M48.358 34.4545L52.6761 46.6989H52.8466L57.1648 34.4545H59.0114L53.6705 49H51.8523L46.5114 34.4545H48.358Z" fill="black"/>
<path d="M61.0497 49V38.0909H62.7259V49H61.0497ZM61.902 36.2727C61.5753 36.2727 61.2936 36.1615 61.0568 35.9389C60.8248 35.7164 60.7088 35.4489 60.7088 35.1364C60.7088 34.8239 60.8248 34.5563 61.0568 34.3338C61.2936 34.1113 61.5753 34 61.902 34C62.2287 34 62.508 34.1113 62.7401 34.3338C62.9768 34.5563 63.0952 34.8239 63.0952 35.1364C63.0952 35.4489 62.9768 35.7164 62.7401 35.9389C62.508 36.1615 62.2287 36.2727 61.902 36.2727Z" fill="black"/>
<path d="M73.5231 40.5341L72.0174 40.9602C71.9227 40.7093 71.783 40.4654 71.5984 40.2287C71.4184 39.9872 71.1722 39.7884 70.8597 39.6321C70.5472 39.4759 70.1471 39.3977 69.6594 39.3977C68.9918 39.3977 68.4355 39.5516 67.9904 39.8594C67.5501 40.1624 67.3299 40.5483 67.3299 41.017C67.3299 41.4337 67.4814 41.7628 67.7844 42.0043C68.0875 42.2457 68.561 42.447 69.2049 42.608L70.8242 43.0057C71.7996 43.2424 72.5264 43.6046 73.0046 44.0923C73.4828 44.5753 73.7219 45.1979 73.7219 45.9602C73.7219 46.5852 73.542 47.1439 73.1822 47.6364C72.8271 48.1288 72.3299 48.517 71.6907 48.8011C71.0515 49.0852 70.3081 49.2273 69.4606 49.2273C68.3479 49.2273 67.427 48.9858 66.6978 48.5028C65.9686 48.0199 65.507 47.3144 65.3129 46.3864L66.9038 45.9886C67.0553 46.5758 67.3417 47.0161 67.7631 47.3097C68.1893 47.6032 68.7456 47.75 69.4322 47.75C70.2134 47.75 70.8337 47.5843 71.293 47.2528C71.757 46.9167 71.989 46.5142 71.989 46.0455C71.989 45.6667 71.8564 45.3494 71.5913 45.0938C71.3261 44.8333 70.9189 44.6392 70.3697 44.5114L68.5515 44.0852C67.5524 43.8485 66.8185 43.4815 66.3498 42.9844C65.8858 42.4825 65.6538 41.8551 65.6538 41.1023C65.6538 40.4867 65.8266 39.9422 66.1722 39.4688C66.5226 38.9953 66.9985 38.6236 67.5998 38.3537C68.2058 38.0838 68.8924 37.9489 69.6594 37.9489C70.739 37.9489 71.5865 38.1856 72.2021 38.6591C72.8223 39.1326 73.2627 39.7576 73.5231 40.5341Z" fill="black"/>
<path d="M76.245 49V38.0909H77.9212V49H76.245ZM77.0973 36.2727C76.7706 36.2727 76.4889 36.1615 76.2521 35.9389C76.0201 35.7164 75.9041 35.4489 75.9041 35.1364C75.9041 34.8239 76.0201 34.5563 76.2521 34.3338C76.4889 34.1113 76.7706 34 77.0973 34C77.424 34 77.7034 34.1113 77.9354 34.3338C78.1721 34.5563 78.2905 34.8239 78.2905 35.1364C78.2905 35.4489 78.1721 35.7164 77.9354 35.9389C77.7034 36.1615 77.424 36.2727 77.0973 36.2727Z" fill="black"/>
<path d="M85.4229 49.2273C84.4381 49.2273 83.574 48.9929 82.8306 48.5241C82.092 48.0554 81.5143 47.3996 81.0977 46.5568C80.6857 45.714 80.4798 44.7292 80.4798 43.6023C80.4798 42.4659 80.6857 41.474 81.0977 40.6264C81.5143 39.7789 82.092 39.1207 82.8306 38.652C83.574 38.1832 84.4381 37.9489 85.4229 37.9489C86.4078 37.9489 87.2695 38.1832 88.0082 38.652C88.7515 39.1207 89.3292 39.7789 89.7411 40.6264C90.1578 41.474 90.3661 42.4659 90.3661 43.6023C90.3661 44.7292 90.1578 45.714 89.7411 46.5568C89.3292 47.3996 88.7515 48.0554 88.0082 48.5241C87.2695 48.9929 86.4078 49.2273 85.4229 49.2273ZM85.4229 47.7216C86.171 47.7216 86.7866 47.5298 87.2695 47.1463C87.7525 46.7628 88.11 46.2585 88.342 45.6335C88.574 45.0085 88.69 44.3314 88.69 43.6023C88.69 42.8731 88.574 42.1937 88.342 41.5639C88.11 40.9342 87.7525 40.4252 87.2695 40.0369C86.7866 39.6487 86.171 39.4545 85.4229 39.4545C84.6748 39.4545 84.0593 39.6487 83.5763 40.0369C83.0934 40.4252 82.7359 40.9342 82.5039 41.5639C82.2719 42.1937 82.1559 42.8731 82.1559 43.6023C82.1559 44.3314 82.2719 45.0085 82.5039 45.6335C82.7359 46.2585 83.0934 46.7628 83.5763 47.1463C84.0593 47.5298 84.6748 47.7216 85.4229 47.7216Z" fill="black"/>
<path d="M94.6009 42.4375V49H92.9247V38.0909H94.544V39.7955H94.6861C94.9418 39.2415 95.33 38.7964 95.8509 38.4602C96.3717 38.1193 97.044 37.9489 97.8679 37.9489C98.6065 37.9489 99.2528 38.1004 99.8068 38.4034C100.361 38.7017 100.792 39.1562 101.099 39.767C101.407 40.3731 101.561 41.1401 101.561 42.0682V49H99.8849V42.1818C99.8849 41.3248 99.6624 40.6572 99.2173 40.179C98.7723 39.696 98.1615 39.4545 97.3849 39.4545C96.8499 39.4545 96.3717 39.5705 95.9503 39.8026C95.5336 40.0346 95.2045 40.3731 94.9631 40.8182C94.7216 41.2633 94.6009 41.803 94.6009 42.4375Z" fill="black"/>
<path d="M22.6216 63.5085V62.7273H28.0762V63.5085H25.7892V70H24.9086V63.5085H22.6216Z" fill="black"/>
<path d="M30.7466 70.1136C30.2542 70.1136 29.8221 69.9965 29.4505 69.7621C29.0811 69.5277 28.7923 69.1998 28.584 68.7784C28.378 68.357 28.275 67.8646 28.275 67.3011C28.275 66.733 28.378 66.237 28.584 65.8132C28.7923 65.3894 29.0811 65.0604 29.4505 64.826C29.8221 64.5916 30.2542 64.4744 30.7466 64.4744C31.2391 64.4744 31.6699 64.5916 32.0392 64.826C32.4109 65.0604 32.6998 65.3894 32.9057 65.8132C33.114 66.237 33.2182 66.733 33.2182 67.3011C33.2182 67.8646 33.114 68.357 32.9057 68.7784C32.6998 69.1998 32.4109 69.5277 32.0392 69.7621C31.6699 69.9965 31.2391 70.1136 30.7466 70.1136ZM30.7466 69.3608C31.1207 69.3608 31.4284 69.2649 31.6699 69.0732C31.9114 68.8814 32.0901 68.6293 32.2061 68.3168C32.3221 68.0043 32.3801 67.6657 32.3801 67.3011C32.3801 66.9366 32.3221 66.5968 32.2061 66.282C32.0901 65.9671 31.9114 65.7126 31.6699 65.5185C31.4284 65.3243 31.1207 65.2273 30.7466 65.2273C30.3726 65.2273 30.0648 65.3243 29.8233 65.5185C29.5819 65.7126 29.4031 65.9671 29.2871 66.282C29.1711 66.5968 29.1131 66.9366 29.1131 67.3011C29.1131 67.6657 29.1711 68.0043 29.2871 68.3168C29.4031 68.6293 29.5819 68.8814 29.8233 69.0732C30.0648 69.2649 30.3726 69.3608 30.7466 69.3608Z" fill="black"/>
<path d="M41.1736 65.767L40.4208 65.9801C40.3735 65.8546 40.3036 65.7327 40.2113 65.6143C40.1213 65.4936 39.9982 65.3942 39.842 65.316C39.6857 65.2379 39.4857 65.1989 39.2418 65.1989C38.908 65.1989 38.6299 65.2758 38.4073 65.4297C38.1871 65.5812 38.0771 65.7741 38.0771 66.0085C38.0771 66.2169 38.1528 66.3814 38.3043 66.5021C38.4558 66.6229 38.6926 66.7235 39.0146 66.804L39.8242 67.0028C40.3119 67.1212 40.6753 67.3023 40.9144 67.5462C41.1535 67.7876 41.2731 68.099 41.2731 68.4801C41.2731 68.7926 41.1831 69.072 41.0032 69.3182C40.8256 69.5644 40.5771 69.7585 40.2575 69.9006C39.9379 70.0426 39.5662 70.1136 39.1424 70.1136C38.5861 70.1136 38.1256 69.9929 37.761 69.7514C37.3964 69.5099 37.1656 69.1572 37.0685 68.6932L37.864 68.4943C37.9397 68.7879 38.083 69.0081 38.2937 69.1548C38.5067 69.3016 38.7849 69.375 39.1282 69.375C39.5188 69.375 39.829 69.2921 40.0586 69.1264C40.2906 68.9583 40.4066 68.7571 40.4066 68.5227C40.4066 68.3333 40.3403 68.1747 40.2077 68.0469C40.0752 67.9167 39.8716 67.8196 39.5969 67.7557L38.6879 67.5426C38.1883 67.4242 37.8214 67.2408 37.587 66.9922C37.355 66.7412 37.239 66.4276 37.239 66.0511C37.239 65.7434 37.3254 65.4711 37.4982 65.2344C37.6734 64.9976 37.9113 64.8118 38.212 64.6768C38.515 64.5419 38.8583 64.4744 39.2418 64.4744C39.7816 64.4744 40.2054 64.5928 40.5131 64.8295C40.8233 65.0663 41.0434 65.3788 41.1736 65.767Z" fill="black"/>
<path d="M44.9068 64.5455V65.2557H42.0801V64.5455H44.9068ZM42.9039 63.2386H43.742V68.4375C43.742 68.6742 43.7763 68.8518 43.845 68.9702C43.916 69.0862 44.006 69.1643 44.1149 69.2045C44.2261 69.2424 44.3433 69.2614 44.4664 69.2614C44.5588 69.2614 44.6345 69.2566 44.6937 69.2472C44.7529 69.2353 44.8002 69.2259 44.8358 69.2188L45.0062 69.9716C44.9494 69.9929 44.8701 70.0142 44.7683 70.0355C44.6665 70.0592 44.5375 70.071 44.3812 70.071C44.1445 70.071 43.9125 70.0201 43.6852 69.9183C43.4603 69.8165 43.2733 69.6615 43.1241 69.4531C42.9773 69.2448 42.9039 68.982 42.9039 68.6648V63.2386Z" fill="black"/>
<path d="M46.1674 70V64.5455H46.9771V65.3693H47.0339C47.1333 65.0994 47.3133 64.8804 47.5737 64.7124C47.8341 64.5443 48.1277 64.4602 48.4544 64.4602C48.5159 64.4602 48.5929 64.4614 48.6852 64.4638C48.7775 64.4661 48.8474 64.4697 48.8947 64.4744V65.3267C48.8663 65.3196 48.8012 65.309 48.6994 65.2947C48.6 65.2782 48.4946 65.2699 48.3833 65.2699C48.1182 65.2699 47.8815 65.3255 47.6731 65.4368C47.4672 65.5457 47.3038 65.6972 47.1831 65.8913C47.0647 66.0831 47.0055 66.3021 47.0055 66.5483V70H46.1674Z" fill="black"/>
<path d="M52.0091 70.1136C51.4835 70.1136 51.0301 69.9976 50.649 69.7656C50.2702 69.5312 49.9778 69.2045 49.7718 68.7855C49.5682 68.3641 49.4664 67.8741 49.4664 67.3153C49.4664 66.7566 49.5682 66.2642 49.7718 65.8381C49.9778 65.4096 50.2643 65.0758 50.6312 64.8366C51.0005 64.5952 51.4314 64.4744 51.9238 64.4744C52.2079 64.4744 52.4885 64.5218 52.7654 64.6165C53.0424 64.7112 53.2946 64.8651 53.5218 65.0781C53.7491 65.2888 53.9302 65.5682 54.0652 65.9162C54.2001 66.2642 54.2676 66.6927 54.2676 67.2017V67.5568H50.063V66.8324H53.4153C53.4153 66.5246 53.3538 66.25 53.2306 66.0085C53.1099 65.767 52.9371 65.5765 52.7122 65.4368C52.4896 65.2971 52.2269 65.2273 51.9238 65.2273C51.59 65.2273 51.3012 65.3101 51.0574 65.4759C50.8159 65.6392 50.63 65.8523 50.4998 66.1151C50.3696 66.3778 50.3045 66.6596 50.3045 66.9602V67.4432C50.3045 67.8551 50.3755 68.2043 50.5176 68.4908C50.662 68.7749 50.862 68.9915 51.1177 69.1406C51.3734 69.2874 51.6705 69.3608 52.0091 69.3608C52.2292 69.3608 52.4281 69.33 52.6056 69.2685C52.7856 69.2045 52.9406 69.1098 53.0708 68.9844C53.2011 68.8565 53.3017 68.6979 53.3727 68.5085L54.1824 68.7358C54.0971 69.0104 53.9539 69.2519 53.7527 69.4602C53.5514 69.6662 53.3029 69.8272 53.0069 69.9432C52.711 70.0568 52.3784 70.1136 52.0091 70.1136Z" fill="black"/>
<path d="M56.3805 66.7188V70H55.5424V64.5455H56.3521V65.3977H56.4231C56.551 65.1207 56.7451 64.8982 57.0055 64.7301C57.2659 64.5597 57.6021 64.4744 58.014 64.4744C58.3833 64.4744 58.7065 64.5502 58.9835 64.7017C59.2605 64.8509 59.4759 65.0781 59.6298 65.3835C59.7837 65.6866 59.8606 66.0701 59.8606 66.5341V70H59.0225V66.5909C59.0225 66.1624 58.9113 65.8286 58.6887 65.5895C58.4662 65.348 58.1608 65.2273 57.7725 65.2273C57.505 65.2273 57.2659 65.2853 57.0552 65.4013C56.8469 65.5173 56.6823 65.6866 56.5616 65.9091C56.4409 66.1316 56.3805 66.4015 56.3805 66.7188Z" fill="black"/>
<path d="M63.5938 72.1591C63.1889 72.1591 62.8409 72.107 62.5497 72.0028C62.2585 71.901 62.0159 71.7661 61.8217 71.598C61.63 71.4323 61.4773 71.2547 61.3636 71.0653L62.0312 70.5966C62.107 70.696 62.2029 70.8097 62.3189 70.9375C62.4349 71.0677 62.5935 71.1802 62.7947 71.2749C62.9983 71.3719 63.2647 71.4205 63.5938 71.4205C64.0341 71.4205 64.3975 71.3139 64.684 71.1009C64.9704 70.8878 65.1136 70.554 65.1136 70.0994V68.9915H65.0426C64.9811 69.0909 64.8935 69.214 64.7798 69.3608C64.6686 69.5052 64.5076 69.6342 64.2969 69.7479C64.0885 69.8591 63.8068 69.9148 63.4517 69.9148C63.0114 69.9148 62.616 69.8106 62.2656 69.6023C61.9176 69.3939 61.6418 69.0909 61.4382 68.6932C61.237 68.2955 61.1364 67.8125 61.1364 67.2443C61.1364 66.6856 61.2346 66.1991 61.4311 65.7848C61.6276 65.3681 61.901 65.0462 62.2514 64.8189C62.6018 64.5893 63.0066 64.4744 63.4659 64.4744C63.821 64.4744 64.1027 64.5336 64.3111 64.652C64.5218 64.768 64.6828 64.9006 64.794 65.0497C64.9077 65.1965 64.9953 65.3172 65.0568 65.4119H65.142V64.5455H65.9517V70.1562C65.9517 70.625 65.8452 71.0062 65.6321 71.2997C65.4214 71.5956 65.1373 71.8123 64.7798 71.9496C64.4247 72.0893 64.0294 72.1591 63.5938 72.1591ZM63.5653 69.1619C63.9015 69.1619 64.1856 69.085 64.4176 68.9311C64.6496 68.7772 64.826 68.5559 64.9467 68.267C65.0675 67.9782 65.1278 67.6326 65.1278 67.2301C65.1278 66.8371 65.0687 66.4903 64.9503 66.1896C64.8319 65.889 64.6567 65.6534 64.4247 65.483C64.1927 65.3125 63.9063 65.2273 63.5653 65.2273C63.2102 65.2273 62.9143 65.3172 62.6776 65.4972C62.4432 65.6771 62.2668 65.9186 62.1484 66.2216C62.0324 66.5246 61.9744 66.8608 61.9744 67.2301C61.9744 67.6089 62.0336 67.9439 62.152 68.2351C62.2727 68.5239 62.4503 68.7512 62.6847 68.9169C62.9214 69.0803 63.215 69.1619 63.5653 69.1619Z" fill="black"/>
<path d="M69.858 64.5455V65.2557H67.0312V64.5455H69.858ZM67.8551 63.2386H68.6932V68.4375C68.6932 68.6742 68.7275 68.8518 68.7962 68.9702C68.8672 69.0862 68.9571 69.1643 69.066 69.2045C69.1773 69.2424 69.2945 69.2614 69.4176 69.2614C69.5099 69.2614 69.5857 69.2566 69.6449 69.2472C69.7041 69.2353 69.7514 69.2259 69.7869 69.2188L69.9574 69.9716C69.9006 69.9929 69.8213 70.0142 69.7195 70.0355C69.6177 70.0592 69.4886 70.071 69.3324 70.071C69.0956 70.071 68.8636 70.0201 68.6364 69.9183C68.4115 69.8165 68.2244 69.6615 68.0753 69.4531C67.9285 69.2448 67.8551 68.982 67.8551 68.6648V63.2386Z" fill="black"/>
<path d="M72.0739 66.7188V70H71.2358V62.7273H72.0739V65.3977H72.1449C72.2727 65.116 72.4645 64.8923 72.7202 64.7266C72.9782 64.5585 73.3215 64.4744 73.75 64.4744C74.1217 64.4744 74.4472 64.549 74.7266 64.6982C75.0059 64.8449 75.2225 65.071 75.3764 65.3764C75.5327 65.6794 75.6108 66.0653 75.6108 66.5341V70H74.7727V66.5909C74.7727 66.1577 74.6603 65.8227 74.4354 65.5859C74.2128 65.3468 73.9039 65.2273 73.5085 65.2273C73.2339 65.2273 72.9877 65.2853 72.7699 65.4013C72.5545 65.5173 72.384 65.6866 72.2585 65.9091C72.1354 66.1316 72.0739 66.4015 72.0739 66.7188Z" fill="black"/>
<path d="M79.4309 70.1136C78.9054 70.1136 78.452 69.9976 78.0708 69.7656C77.6921 69.5312 77.3997 69.2045 77.1937 68.7855C76.9901 68.3641 76.8883 67.8741 76.8883 67.3153C76.8883 66.7566 76.9901 66.2642 77.1937 65.8381C77.3997 65.4096 77.6861 65.0758 78.0531 64.8366C78.4224 64.5952 78.8533 64.4744 79.3457 64.4744C79.6298 64.4744 79.9103 64.5218 80.1873 64.6165C80.4643 64.7112 80.7164 64.8651 80.9437 65.0781C81.171 65.2888 81.3521 65.5682 81.487 65.9162C81.622 66.2642 81.6895 66.6927 81.6895 67.2017V67.5568H77.4849V66.8324H80.8372C80.8372 66.5246 80.7756 66.25 80.6525 66.0085C80.5318 65.767 80.359 65.5765 80.1341 65.4368C79.9115 65.2971 79.6487 65.2273 79.3457 65.2273C79.0119 65.2273 78.7231 65.3101 78.4792 65.4759C78.2377 65.6392 78.0519 65.8523 77.9217 66.1151C77.7915 66.3778 77.7264 66.6596 77.7264 66.9602V67.4432C77.7264 67.8551 77.7974 68.2043 77.9395 68.4908C78.0839 68.7749 78.2839 68.9915 78.5396 69.1406C78.7953 69.2874 79.0924 69.3608 79.4309 69.3608C79.6511 69.3608 79.85 69.33 80.0275 69.2685C80.2074 69.2045 80.3625 69.1098 80.4927 68.9844C80.6229 68.8565 80.7235 68.6979 80.7946 68.5085L81.6042 68.7358C81.519 69.0104 81.3758 69.2519 81.1745 69.4602C80.9733 69.6662 80.7247 69.8272 80.4288 69.9432C80.1329 70.0568 79.8002 70.1136 79.4309 70.1136Z" fill="black"/>
<path d="M83.8024 66.7188V70H82.9643V64.5455H83.774V65.3977H83.845C83.9728 65.1207 84.167 64.8982 84.4274 64.7301C84.6878 64.5597 85.024 64.4744 85.4359 64.4744C85.8052 64.4744 86.1284 64.5502 86.4054 64.7017C86.6824 64.8509 86.8978 65.0781 87.0517 65.3835C87.2055 65.6866 87.2825 66.0701 87.2825 66.5341V70H86.4444V66.5909C86.4444 66.1624 86.3332 65.8286 86.1106 65.5895C85.8881 65.348 85.5827 65.2273 85.1944 65.2273C84.9269 65.2273 84.6878 65.2853 84.4771 65.4013C84.2688 65.5173 84.1042 65.6866 83.9835 65.9091C83.8628 66.1316 83.8024 66.4015 83.8024 66.7188Z" fill="black"/>
<path d="M91.7401 70V62.7273H92.6207V65.9659H96.4986V62.7273H97.3793V70H96.4986V66.7472H92.6207V70H91.7401Z" fill="black"/>
<path d="M99.1424 70V62.7273H100.023V66.3352H100.108L103.375 62.7273H104.526L101.472 66.0085L104.526 70H103.461L100.932 66.6193L100.023 67.642V70H99.1424Z" fill="black"/>
<path d="M106.547 62.7273V70H105.666V62.7273H106.547Z" fill="black"/>
<path d="M108.611 70H107.687L110.358 62.7273H111.267L113.937 70H113.014L110.841 63.8778H110.784L108.611 70ZM108.952 67.1591H112.673V67.9403H108.952V67.1591Z" fill="black"/>
<path d="M119.374 70.1278C119.028 70.1278 118.715 70.0627 118.433 69.9325C118.151 69.7999 117.928 69.6094 117.762 69.3608C117.596 69.1098 117.513 68.8068 117.513 68.4517C117.513 68.1392 117.575 67.8859 117.698 67.6918C117.821 67.4953 117.986 67.3414 118.192 67.2301C118.398 67.1188 118.625 67.036 118.873 66.9815C119.124 66.9247 119.376 66.8797 119.63 66.8466C119.961 66.804 120.23 66.772 120.436 66.7507C120.644 66.727 120.796 66.688 120.89 66.6335C120.988 66.5791 121.036 66.4844 121.036 66.3494V66.321C121.036 65.9706 120.94 65.6984 120.748 65.5043C120.559 65.3101 120.271 65.2131 119.885 65.2131C119.485 65.2131 119.172 65.3007 118.944 65.4759C118.717 65.651 118.557 65.8381 118.465 66.0369L117.67 65.7528C117.812 65.4214 118.001 65.1634 118.238 64.9787C118.477 64.7917 118.737 64.6615 119.019 64.5881C119.303 64.5123 119.582 64.4744 119.857 64.4744C120.032 64.4744 120.233 64.4957 120.461 64.5384C120.69 64.5786 120.912 64.6626 121.125 64.7905C121.34 64.9183 121.519 65.1113 121.661 65.3693C121.803 65.6274 121.874 65.973 121.874 66.4062V70H121.036V69.2614H120.993C120.937 69.3797 120.842 69.5064 120.709 69.6413C120.577 69.7763 120.4 69.8911 120.18 69.9858C119.96 70.0805 119.691 70.1278 119.374 70.1278ZM119.502 69.375C119.833 69.375 120.113 69.3099 120.34 69.1797C120.57 69.0495 120.742 68.8814 120.858 68.6754C120.977 68.4695 121.036 68.2528 121.036 68.0256V67.2585C121.001 67.3011 120.922 67.3402 120.802 67.3757C120.683 67.4089 120.546 67.4384 120.39 67.4645C120.236 67.4882 120.086 67.5095 119.939 67.5284C119.794 67.545 119.677 67.5592 119.587 67.571C119.369 67.5994 119.166 67.6456 118.976 67.7095C118.789 67.7711 118.638 67.8646 118.522 67.9901C118.408 68.1132 118.351 68.2812 118.351 68.4943C118.351 68.7855 118.459 69.0057 118.675 69.1548C118.892 69.3016 119.168 69.375 119.502 69.375Z" fill="black"/>
<path d="M127.267 65.767L126.515 65.9801C126.467 65.8546 126.397 65.7327 126.305 65.6143C126.215 65.4936 126.092 65.3942 125.936 65.316C125.779 65.2379 125.579 65.1989 125.336 65.1989C125.002 65.1989 124.724 65.2758 124.501 65.4297C124.281 65.5812 124.171 65.7741 124.171 66.0085C124.171 66.2169 124.247 66.3814 124.398 66.5021C124.55 66.6229 124.786 66.7235 125.108 66.804L125.918 67.0028C126.406 67.1212 126.769 67.3023 127.008 67.5462C127.247 67.7876 127.367 68.099 127.367 68.4801C127.367 68.7926 127.277 69.072 127.097 69.3182C126.919 69.5644 126.671 69.7585 126.351 69.9006C126.032 70.0426 125.66 70.1136 125.236 70.1136C124.68 70.1136 124.219 69.9929 123.855 69.7514C123.49 69.5099 123.259 69.1572 123.162 68.6932L123.958 68.4943C124.033 68.7879 124.177 69.0081 124.387 69.1548C124.6 69.3016 124.879 69.375 125.222 69.375C125.613 69.375 125.923 69.2921 126.152 69.1264C126.384 68.9583 126.5 68.7571 126.5 68.5227C126.5 68.3333 126.434 68.1747 126.301 68.0469C126.169 67.9167 125.965 67.8196 125.691 67.7557L124.782 67.5426C124.282 67.4242 123.915 67.2408 123.681 66.9922C123.449 66.7412 123.333 66.4276 123.333 66.0511C123.333 65.7434 123.419 65.4711 123.592 65.2344C123.767 64.9976 124.005 64.8118 124.306 64.6768C124.609 64.5419 124.952 64.4744 125.336 64.4744C125.875 64.4744 126.299 64.5928 126.607 64.8295C126.917 65.0663 127.137 65.3788 127.267 65.767Z" fill="black"/>
<path d="M21.0835 76.5455V77.2557H18.2568V76.5455H21.0835ZM19.0807 75.2386H19.9188V80.4375C19.9188 80.6742 19.9531 80.8518 20.0218 80.9702C20.0928 81.0862 20.1827 81.1643 20.2916 81.2045C20.4029 81.2424 20.5201 81.2614 20.6432 81.2614C20.7355 81.2614 20.8113 81.2566 20.8705 81.2472C20.9297 81.2353 20.977 81.2259 21.0125 81.2188L21.183 81.9716C21.1262 81.9929 21.0468 82.0142 20.945 82.0355C20.8432 82.0592 20.7142 82.071 20.558 82.071C20.3212 82.071 20.0892 82.0201 19.8619 81.9183C19.637 81.8165 19.45 81.6615 19.3009 81.4531C19.1541 81.2448 19.0807 80.982 19.0807 80.6648V75.2386Z" fill="black"/>
<path d="M23.2994 78.7188V82H22.4614V74.7273H23.2994V77.3977H23.3705C23.4983 77.116 23.6901 76.8923 23.9458 76.7266C24.2038 76.5585 24.5471 76.4744 24.9756 76.4744C25.3473 76.4744 25.6728 76.549 25.9521 76.6982C26.2315 76.8449 26.4481 77.071 26.602 77.3764C26.7583 77.6794 26.8364 78.0653 26.8364 78.5341V82H25.9983V78.5909C25.9983 78.1577 25.8859 77.8227 25.661 77.5859C25.4384 77.3468 25.1295 77.2273 24.7341 77.2273C24.4595 77.2273 24.2133 77.2853 23.9955 77.4013C23.78 77.5173 23.6096 77.6866 23.4841 77.9091C23.361 78.1316 23.2994 78.4015 23.2994 78.7188Z" fill="black"/>
<path d="M30.6565 82.1136C30.1309 82.1136 29.6776 81.9976 29.2964 81.7656C28.9176 81.5312 28.6253 81.2045 28.4193 80.7855C28.2157 80.3641 28.1139 79.8741 28.1139 79.3153C28.1139 78.7566 28.2157 78.2642 28.4193 77.8381C28.6253 77.4096 28.9117 77.0758 29.2787 76.8366C29.648 76.5952 30.0789 76.4744 30.5713 76.4744C30.8554 76.4744 31.1359 76.5218 31.4129 76.6165C31.6899 76.7112 31.942 76.8651 32.1693 77.0781C32.3966 77.2888 32.5777 77.5682 32.7126 77.9162C32.8476 78.2642 32.915 78.6927 32.915 79.2017V79.5568H28.7105V78.8324H32.0628C32.0628 78.5246 32.0012 78.25 31.8781 78.0085C31.7574 77.767 31.5845 77.5765 31.3596 77.4368C31.1371 77.2971 30.8743 77.2273 30.5713 77.2273C30.2375 77.2273 29.9487 77.3101 29.7048 77.4759C29.4633 77.6392 29.2775 77.8523 29.1473 78.1151C29.0171 78.3778 28.952 78.6596 28.952 78.9602V79.4432C28.952 79.8551 29.023 80.2043 29.165 80.4908C29.3095 80.7749 29.5095 80.9915 29.7652 81.1406C30.0209 81.2874 30.318 81.3608 30.6565 81.3608C30.8767 81.3608 31.0756 81.33 31.2531 81.2685C31.433 81.2045 31.5881 81.1098 31.7183 80.9844C31.8485 80.8565 31.9491 80.6979 32.0202 80.5085L32.8298 80.7358C32.7446 81.0104 32.6014 81.2519 32.4001 81.4602C32.1989 81.6662 31.9503 81.8272 31.6544 81.9432C31.3585 82.0568 31.0258 82.1136 30.6565 82.1136Z" fill="black"/>
<path d="M37.8405 74.7273V82H37.0024V74.7273H37.8405Z" fill="black"/>
<path d="M41.6624 82.1136C41.1368 82.1136 40.6834 81.9976 40.3023 81.7656C39.9235 81.5312 39.6311 81.2045 39.4252 80.7855C39.2216 80.3641 39.1198 79.8741 39.1198 79.3153C39.1198 78.7566 39.2216 78.2642 39.4252 77.8381C39.6311 77.4096 39.9176 77.0758 40.2845 76.8366C40.6539 76.5952 41.0847 76.4744 41.5771 76.4744C41.8612 76.4744 42.1418 76.5218 42.4188 76.6165C42.6958 76.7112 42.9479 76.8651 43.1752 77.0781C43.4024 77.2888 43.5835 77.5682 43.7185 77.9162C43.8534 78.2642 43.9209 78.6927 43.9209 79.2017V79.5568H39.7164V78.8324H43.0686C43.0686 78.5246 43.0071 78.25 42.884 78.0085C42.7632 77.767 42.5904 77.5765 42.3655 77.4368C42.143 77.2971 41.8802 77.2273 41.5771 77.2273C41.2433 77.2273 40.9545 77.3101 40.7107 77.4759C40.4692 77.6392 40.2833 77.8523 40.1531 78.1151C40.0229 78.3778 39.9578 78.6596 39.9578 78.9602V79.4432C39.9578 79.8551 40.0289 80.2043 40.1709 80.4908C40.3153 80.7749 40.5154 80.9915 40.771 81.1406C41.0267 81.2874 41.3238 81.3608 41.6624 81.3608C41.8825 81.3608 42.0814 81.33 42.259 81.2685C42.4389 81.2045 42.594 81.1098 42.7242 80.9844C42.8544 80.8565 42.955 80.6979 43.026 80.5085L43.8357 80.7358C43.7504 81.0104 43.6072 81.2519 43.406 81.4602C43.2048 81.6662 42.9562 81.8272 42.6602 81.9432C42.3643 82.0568 42.0317 82.1136 41.6624 82.1136Z" fill="black"/>
<path d="M46.8009 82.1278C46.4552 82.1278 46.1415 82.0627 45.8598 81.9325C45.5781 81.7999 45.3544 81.6094 45.1887 81.3608C45.0229 81.1098 44.9401 80.8068 44.9401 80.4517C44.9401 80.1392 45.0016 79.8859 45.1247 79.6918C45.2478 79.4953 45.4124 79.3414 45.6183 79.2301C45.8243 79.1188 46.0516 79.036 46.3002 78.9815C46.5511 78.9247 46.8032 78.8797 47.0566 78.8466C47.388 78.804 47.6567 78.772 47.8627 78.7507C48.071 78.727 48.2225 78.688 48.3172 78.6335C48.4143 78.5791 48.4628 78.4844 48.4628 78.3494V78.321C48.4628 77.9706 48.3669 77.6984 48.1752 77.5043C47.9858 77.3101 47.6981 77.2131 47.3122 77.2131C46.9121 77.2131 46.5985 77.3007 46.3712 77.4759C46.1439 77.651 45.9841 77.8381 45.8918 78.0369L45.0963 77.7528C45.2384 77.4214 45.4278 77.1634 45.6645 76.9787C45.9036 76.7917 46.164 76.6615 46.4458 76.5881C46.7298 76.5123 47.0092 76.4744 47.2838 76.4744C47.459 76.4744 47.6602 76.4957 47.8875 76.5384C48.1172 76.5786 48.3385 76.6626 48.5516 76.7905C48.767 76.9183 48.9458 77.1113 49.0878 77.3693C49.2298 77.6274 49.3009 77.973 49.3009 78.4062V82H48.4628V81.2614H48.4202C48.3634 81.3797 48.2687 81.5064 48.1361 81.6413C48.0035 81.7763 47.8271 81.8911 47.607 81.9858C47.3868 82.0805 47.1181 82.1278 46.8009 82.1278ZM46.9287 81.375C47.2602 81.375 47.5395 81.3099 47.7668 81.1797C47.9964 81.0495 48.1692 80.8814 48.2852 80.6754C48.4036 80.4695 48.4628 80.2528 48.4628 80.0256V79.2585C48.4273 79.3011 48.3492 79.3402 48.2284 79.3757C48.1101 79.4089 47.9727 79.4384 47.8165 79.4645C47.6626 79.4882 47.5123 79.5095 47.3655 79.5284C47.2211 79.545 47.1039 79.5592 47.0139 79.571C46.7961 79.5994 46.5925 79.6456 46.4031 79.7095C46.2161 79.7711 46.0646 79.8646 45.9486 79.9901C45.835 80.1132 45.7781 80.2812 45.7781 80.4943C45.7781 80.7855 45.8859 81.0057 46.1013 81.1548C46.3191 81.3016 46.5949 81.375 46.9287 81.375Z" fill="black"/>
<path d="M52.8902 82.1136C52.4356 82.1136 52.0344 81.9988 51.6863 81.7692C51.3383 81.5372 51.0661 81.2105 50.8696 80.7891C50.6731 80.3653 50.5748 79.8646 50.5748 79.2869C50.5748 78.714 50.6731 78.2169 50.8696 77.7955C51.0661 77.3741 51.3395 77.0485 51.6899 76.8189C52.0403 76.5893 52.4451 76.4744 52.9044 76.4744C53.2595 76.4744 53.54 76.5336 53.746 76.652C53.9543 76.768 54.113 76.9006 54.2219 77.0497C54.3331 77.1965 54.4195 77.3172 54.4811 77.4119H54.5521V74.7273H55.3902V82H54.5805V81.1619H54.4811C54.4195 81.2614 54.3319 81.3868 54.2183 81.5384C54.1047 81.6875 53.9425 81.8213 53.7318 81.9396C53.5211 82.0556 53.2406 82.1136 52.8902 82.1136ZM53.0038 81.3608C53.34 81.3608 53.6241 81.2732 53.8561 81.098C54.0881 80.9205 54.2645 80.6754 54.3852 80.3629C54.5059 80.0481 54.5663 79.6847 54.5663 79.2727C54.5663 78.8655 54.5071 78.5092 54.3888 78.2038C54.2704 77.8961 54.0952 77.657 53.8632 77.4865C53.6312 77.3137 53.3447 77.2273 53.0038 77.2273C52.6487 77.2273 52.3528 77.3184 52.116 77.5007C51.8817 77.6806 51.7053 77.9257 51.5869 78.2358C51.4709 78.5436 51.4129 78.8892 51.4129 79.2727C51.4129 79.661 51.4721 80.0137 51.5905 80.331C51.7112 80.6458 51.8888 80.8968 52.1231 81.0838C52.3599 81.2685 52.6534 81.3608 53.0038 81.3608Z" fill="black"/>
<path d="M57.0415 82V76.5455H57.8795V82H57.0415ZM57.4676 75.6364C57.3042 75.6364 57.1634 75.5807 57.045 75.4695C56.929 75.3582 56.871 75.2244 56.871 75.0682C56.871 74.9119 56.929 74.7782 57.045 74.6669C57.1634 74.5556 57.3042 74.5 57.4676 74.5C57.6309 74.5 57.7706 74.5556 57.8866 74.6669C58.005 74.7782 58.0642 74.9119 58.0642 75.0682C58.0642 75.2244 58.005 75.3582 57.8866 75.4695C57.7706 75.5807 57.6309 75.6364 57.4676 75.6364Z" fill="black"/>
<path d="M60.2526 78.7188V82H59.4145V76.5455H60.2242V77.3977H60.2952C60.423 77.1207 60.6172 76.8982 60.8776 76.7301C61.138 76.5597 61.4742 76.4744 61.8861 76.4744C62.2554 76.4744 62.5786 76.5502 62.8556 76.7017C63.1325 76.8509 63.348 77.0781 63.5019 77.3835C63.6557 77.6866 63.7327 78.0701 63.7327 78.5341V82H62.8946V78.5909C62.8946 78.1624 62.7834 77.8286 62.5608 77.5895C62.3383 77.348 62.0329 77.2273 61.6446 77.2273C61.3771 77.2273 61.138 77.2853 60.9273 77.4013C60.719 77.5173 60.5544 77.6866 60.4337 77.9091C60.3129 78.1316 60.2526 78.4015 60.2526 78.7188Z" fill="black"/>
<path d="M67.4658 84.1591C67.061 84.1591 66.713 84.107 66.4218 84.0028C66.1306 83.901 65.8879 83.7661 65.6938 83.598C65.502 83.4323 65.3493 83.2547 65.2357 83.0653L65.9033 82.5966C65.9791 82.696 66.075 82.8097 66.191 82.9375C66.307 83.0677 66.4656 83.1802 66.6668 83.2749C66.8704 83.3719 67.1367 83.4205 67.4658 83.4205C67.9062 83.4205 68.2696 83.3139 68.556 83.1009C68.8425 82.8878 68.9857 82.554 68.9857 82.0994V80.9915H68.9147C68.8531 81.0909 68.7655 81.214 68.6519 81.3608C68.5406 81.5052 68.3796 81.6342 68.1689 81.7479C67.9606 81.8591 67.6789 81.9148 67.3238 81.9148C66.8834 81.9148 66.4881 81.8106 66.1377 81.6023C65.7897 81.3939 65.5139 81.0909 65.3103 80.6932C65.109 80.2955 65.0084 79.8125 65.0084 79.2443C65.0084 78.6856 65.1067 78.1991 65.3032 77.7848C65.4997 77.3681 65.7731 77.0462 66.1235 76.8189C66.4739 76.5893 66.8787 76.4744 67.338 76.4744C67.6931 76.4744 67.9748 76.5336 68.1832 76.652C68.3939 76.768 68.5548 76.9006 68.6661 77.0497C68.7797 77.1965 68.8673 77.3172 68.9289 77.4119H69.0141V76.5455H69.8238V82.1562C69.8238 82.625 69.7172 83.0062 69.5042 83.2997C69.2935 83.5956 69.0094 83.8123 68.6519 83.9496C68.2968 84.0893 67.9014 84.1591 67.4658 84.1591ZM67.4374 81.1619C67.7736 81.1619 68.0577 81.085 68.2897 80.9311C68.5217 80.7772 68.6981 80.5559 68.8188 80.267C68.9395 79.9782 68.9999 79.6326 68.9999 79.2301C68.9999 78.8371 68.9407 78.4903 68.8224 78.1896C68.704 77.889 68.5288 77.6534 68.2968 77.483C68.0648 77.3125 67.7783 77.2273 67.4374 77.2273C67.0823 77.2273 66.7864 77.3172 66.5496 77.4972C66.3153 77.6771 66.1389 77.9186 66.0205 78.2216C65.9045 78.5246 65.8465 78.8608 65.8465 79.2301C65.8465 79.6089 65.9057 79.9439 66.0241 80.2351C66.1448 80.5239 66.3224 80.7512 66.5567 80.9169C66.7935 81.0803 67.087 81.1619 67.4374 81.1619Z" fill="black"/>
<path d="M74.1704 82V76.5455H75.0084V82H74.1704ZM74.5965 75.6364C74.4332 75.6364 74.2923 75.5807 74.1739 75.4695C74.0579 75.3582 73.9999 75.2244 73.9999 75.0682C73.9999 74.9119 74.0579 74.7782 74.1739 74.6669C74.2923 74.5556 74.4332 74.5 74.5965 74.5C74.7599 74.5 74.8995 74.5556 75.0155 74.6669C75.1339 74.7782 75.1931 74.9119 75.1931 75.0682C75.1931 75.2244 75.1339 75.3582 75.0155 75.4695C74.8995 75.5807 74.7599 75.6364 74.5965 75.6364Z" fill="black"/>
<path d="M77.3815 78.7188V82H76.5434V76.5455H77.3531V77.3977H77.4241C77.5519 77.1207 77.7461 76.8982 78.0065 76.7301C78.2669 76.5597 78.6031 76.4744 79.015 76.4744C79.3843 76.4744 79.7075 76.5502 79.9845 76.7017C80.2615 76.8509 80.4769 77.0781 80.6308 77.3835C80.7847 77.6866 80.8616 78.0701 80.8616 78.5341V82H80.0235V78.5909C80.0235 78.1624 79.9123 77.8286 79.6897 77.5895C79.4672 77.348 79.1618 77.2273 78.7735 77.2273C78.506 77.2273 78.2669 77.2853 78.0562 77.4013C77.8479 77.5173 77.6833 77.6866 77.5626 77.9091C77.4419 78.1316 77.3815 78.4015 77.3815 78.7188Z" fill="black"/>
<path d="M84.7652 76.5455V77.2557H81.9385V76.5455H84.7652ZM82.7623 75.2386H83.6004V80.4375C83.6004 80.6742 83.6347 80.8518 83.7034 80.9702C83.7744 81.0862 83.8644 81.1643 83.9733 81.2045C84.0845 81.2424 84.2017 81.2614 84.3248 81.2614C84.4172 81.2614 84.4929 81.2566 84.5521 81.2472C84.6113 81.2353 84.6586 81.2259 84.6942 81.2188L84.8646 81.9716C84.8078 81.9929 84.7285 82.0142 84.6267 82.0355C84.5249 82.0592 84.3959 82.071 84.2396 82.071C84.0029 82.071 83.7709 82.0201 83.5436 81.9183C83.3187 81.8165 83.1317 81.6615 82.9825 81.4531C82.8357 81.2448 82.7623 80.982 82.7623 80.6648V75.2386Z" fill="black"/>
<path d="M88.2542 82.1136C87.7286 82.1136 87.2752 81.9976 86.8941 81.7656C86.5153 81.5312 86.2229 81.2045 86.017 80.7855C85.8134 80.3641 85.7116 79.8741 85.7116 79.3153C85.7116 78.7566 85.8134 78.2642 86.017 77.8381C86.2229 77.4096 86.5094 77.0758 86.8763 76.8366C87.2457 76.5952 87.6765 76.4744 88.1689 76.4744C88.453 76.4744 88.7336 76.5218 89.0106 76.6165C89.2876 76.7112 89.5397 76.8651 89.767 77.0781C89.9942 77.2888 90.1753 77.5682 90.3103 77.9162C90.4452 78.2642 90.5127 78.6927 90.5127 79.2017V79.5568H86.3082V78.8324H89.6604C89.6604 78.5246 89.5989 78.25 89.4758 78.0085C89.355 77.767 89.1822 77.5765 88.9573 77.4368C88.7348 77.2971 88.472 77.2273 88.1689 77.2273C87.8351 77.2273 87.5463 77.3101 87.3025 77.4759C87.061 77.6392 86.8752 77.8523 86.7449 78.1151C86.6147 78.3778 86.5496 78.6596 86.5496 78.9602V79.4432C86.5496 79.8551 86.6206 80.2043 86.7627 80.4908C86.9071 80.7749 87.1072 80.9915 87.3628 81.1406C87.6185 81.2874 87.9156 81.3608 88.2542 81.3608C88.4743 81.3608 88.6732 81.33 88.8508 81.2685C89.0307 81.2045 89.1858 81.1098 89.316 80.9844C89.4462 80.8565 89.5468 80.6979 89.6178 80.5085L90.4275 80.7358C90.3422 81.0104 90.199 81.2519 89.9978 81.4602C89.7965 81.6662 89.548 81.8272 89.252 81.9432C88.9561 82.0568 88.6235 82.1136 88.2542 82.1136Z" fill="black"/>
<path d="M91.7876 82V76.5455H92.5972V77.3693H92.654C92.7535 77.0994 92.9334 76.8804 93.1938 76.7124C93.4542 76.5443 93.7478 76.4602 94.0745 76.4602C94.136 76.4602 94.213 76.4614 94.3053 76.4638C94.3976 76.4661 94.4675 76.4697 94.5148 76.4744V77.3267C94.4864 77.3196 94.4213 77.309 94.3195 77.2947C94.2201 77.2782 94.1147 77.2699 94.0035 77.2699C93.7383 77.2699 93.5016 77.3255 93.2932 77.4368C93.0873 77.5457 92.9239 77.6972 92.8032 77.8913C92.6848 78.0831 92.6256 78.3021 92.6256 78.5483V82H91.7876Z" fill="black"/>
<path d="M96.3463 78.7188V82H95.5083V76.5455H96.3179V77.3977H96.3889C96.5168 77.1207 96.7109 76.8982 96.9713 76.7301C97.2317 76.5597 97.5679 76.4744 97.9799 76.4744C98.3492 76.4744 98.6723 76.5502 98.9493 76.7017C99.2263 76.8509 99.4417 77.0781 99.5956 77.3835C99.7495 77.6866 99.8264 78.0701 99.8264 78.5341V82H98.9884V78.5909C98.9884 78.1624 98.8771 77.8286 98.6546 77.5895C98.432 77.348 98.1266 77.2273 97.7384 77.2273C97.4709 77.2273 97.2317 77.2853 97.021 77.4013C96.8127 77.5173 96.6482 77.6866 96.5274 77.9091C96.4067 78.1316 96.3463 78.4015 96.3463 78.7188Z" fill="black"/>
<path d="M102.963 82.1278C102.617 82.1278 102.304 82.0627 102.022 81.9325C101.74 81.7999 101.516 81.6094 101.351 81.3608C101.185 81.1098 101.102 80.8068 101.102 80.4517C101.102 80.1392 101.164 79.8859 101.287 79.6918C101.41 79.4953 101.574 79.3414 101.78 79.2301C101.986 79.1188 102.214 79.036 102.462 78.9815C102.713 78.9247 102.965 78.8797 103.219 78.8466C103.55 78.804 103.819 78.772 104.025 78.7507C104.233 78.727 104.385 78.688 104.479 78.6335C104.576 78.5791 104.625 78.4844 104.625 78.3494V78.321C104.625 77.9706 104.529 77.6984 104.337 77.5043C104.148 77.3101 103.86 77.2131 103.474 77.2131C103.074 77.2131 102.761 77.3007 102.533 77.4759C102.306 77.651 102.146 77.8381 102.054 78.0369L101.258 77.7528C101.4 77.4214 101.59 77.1634 101.827 76.9787C102.066 76.7917 102.326 76.6615 102.608 76.5881C102.892 76.5123 103.171 76.4744 103.446 76.4744C103.621 76.4744 103.822 76.4957 104.05 76.5384C104.279 76.5786 104.501 76.6626 104.714 76.7905C104.929 76.9183 105.108 77.1113 105.25 77.3693C105.392 77.6274 105.463 77.973 105.463 78.4062V82H104.625V81.2614H104.582C104.525 81.3797 104.431 81.5064 104.298 81.6413C104.166 81.7763 103.989 81.8911 103.769 81.9858C103.549 82.0805 103.28 82.1278 102.963 82.1278ZM103.091 81.375C103.422 81.375 103.702 81.3099 103.929 81.1797C104.159 81.0495 104.331 80.8814 104.447 80.6754C104.566 80.4695 104.625 80.2528 104.625 80.0256V79.2585C104.589 79.3011 104.511 79.3402 104.391 79.3757C104.272 79.4089 104.135 79.4384 103.979 79.4645C103.825 79.4882 103.674 79.5095 103.528 79.5284C103.383 79.545 103.266 79.5592 103.176 79.571C102.958 79.5994 102.755 79.6456 102.565 79.7095C102.378 79.7711 102.227 79.8646 102.111 79.9901C101.997 80.1132 101.94 80.2812 101.94 80.4943C101.94 80.7855 102.048 81.0057 102.263 81.1548C102.481 81.3016 102.757 81.375 103.091 81.375Z" fill="black"/>
<path d="M109.365 76.5455V77.2557H106.538V76.5455H109.365ZM107.362 75.2386H108.2V80.4375C108.2 80.6742 108.234 80.8518 108.303 80.9702C108.374 81.0862 108.464 81.1643 108.573 81.2045C108.684 81.2424 108.801 81.2614 108.924 81.2614C109.017 81.2614 109.093 81.2566 109.152 81.2472C109.211 81.2353 109.258 81.2259 109.294 81.2188L109.464 81.9716C109.407 81.9929 109.328 82.0142 109.226 82.0355C109.124 82.0592 108.995 82.071 108.839 82.071C108.602 82.071 108.37 82.0201 108.143 81.9183C107.918 81.8165 107.731 81.6615 107.582 81.4531C107.435 81.2448 107.362 80.982 107.362 80.6648V75.2386Z" fill="black"/>
<path d="M110.625 82V76.5455H111.464V82H110.625ZM111.052 75.6364C110.888 75.6364 110.747 75.5807 110.629 75.4695C110.513 75.3582 110.455 75.2244 110.455 75.0682C110.455 74.9119 110.513 74.7782 110.629 74.6669C110.747 74.5556 110.888 74.5 111.052 74.5C111.215 74.5 111.355 74.5556 111.471 74.6669C111.589 74.7782 111.648 74.9119 111.648 75.0682C111.648 75.2244 111.589 75.3582 111.471 75.4695C111.355 75.5807 111.215 75.6364 111.052 75.6364Z" fill="black"/>
<path d="M115.214 82.1136C114.722 82.1136 114.29 81.9965 113.918 81.7621C113.549 81.5277 113.26 81.1998 113.052 80.7784C112.846 80.357 112.743 79.8646 112.743 79.3011C112.743 78.733 112.846 78.237 113.052 77.8132C113.26 77.3894 113.549 77.0604 113.918 76.826C114.29 76.5916 114.722 76.4744 115.214 76.4744C115.707 76.4744 116.138 76.5916 116.507 76.826C116.879 77.0604 117.168 77.3894 117.373 77.8132C117.582 78.237 117.686 78.733 117.686 79.3011C117.686 79.8646 117.582 80.357 117.373 80.7784C117.168 81.1998 116.879 81.5277 116.507 81.7621C116.138 81.9965 115.707 82.1136 115.214 82.1136ZM115.214 81.3608C115.588 81.3608 115.896 81.2649 116.138 81.0732C116.379 80.8814 116.558 80.6293 116.674 80.3168C116.79 80.0043 116.848 79.6657 116.848 79.3011C116.848 78.9366 116.79 78.5968 116.674 78.282C116.558 77.9671 116.379 77.7126 116.138 77.5185C115.896 77.3243 115.588 77.2273 115.214 77.2273C114.84 77.2273 114.533 77.3243 114.291 77.5185C114.05 77.7126 113.871 77.9671 113.755 78.282C113.639 78.5968 113.581 78.9366 113.581 79.3011C113.581 79.6657 113.639 80.0043 113.755 80.3168C113.871 80.6293 114.05 80.8814 114.291 81.0732C114.533 81.2649 114.84 81.3608 115.214 81.3608Z" fill="black"/>
<path d="M119.803 78.7188V82H118.965V76.5455H119.775V77.3977H119.846C119.974 77.1207 120.168 76.8982 120.428 76.7301C120.689 76.5597 121.025 76.4744 121.437 76.4744C121.806 76.4744 122.129 76.5502 122.406 76.7017C122.683 76.8509 122.899 77.0781 123.053 77.3835C123.207 77.6866 123.283 78.0701 123.283 78.5341V82H122.445V78.5909C122.445 78.1624 122.334 77.8286 122.112 77.5895C121.889 77.348 121.584 77.2273 121.195 77.2273C120.928 77.2273 120.689 77.2853 120.478 77.4013C120.27 77.5173 120.105 77.6866 119.984 77.9091C119.864 78.1316 119.803 78.4015 119.803 78.7188Z" fill="black"/>
<path d="M126.42 82.1278C126.074 82.1278 125.761 82.0627 125.479 81.9325C125.197 81.7999 124.974 81.6094 124.808 81.3608C124.642 81.1098 124.559 80.8068 124.559 80.4517C124.559 80.1392 124.621 79.8859 124.744 79.6918C124.867 79.4953 125.032 79.3414 125.237 79.2301C125.443 79.1188 125.671 79.036 125.919 78.9815C126.17 78.9247 126.422 78.8797 126.676 78.8466C127.007 78.804 127.276 78.772 127.482 78.7507C127.69 78.727 127.842 78.688 127.936 78.6335C128.033 78.5791 128.082 78.4844 128.082 78.3494V78.321C128.082 77.9706 127.986 77.6984 127.794 77.5043C127.605 77.3101 127.317 77.2131 126.931 77.2131C126.531 77.2131 126.218 77.3007 125.99 77.4759C125.763 77.651 125.603 77.8381 125.511 78.0369L124.715 77.7528C124.858 77.4214 125.047 77.1634 125.284 76.9787C125.523 76.7917 125.783 76.6615 126.065 76.5881C126.349 76.5123 126.628 76.4744 126.903 76.4744C127.078 76.4744 127.279 76.4957 127.507 76.5384C127.736 76.5786 127.958 76.6626 128.171 76.7905C128.386 76.9183 128.565 77.1113 128.707 77.3693C128.849 77.6274 128.92 77.973 128.92 78.4062V82H128.082V81.2614H128.039C127.983 81.3797 127.888 81.5064 127.755 81.6413C127.623 81.7763 127.446 81.8911 127.226 81.9858C127.006 82.0805 126.737 82.1278 126.42 82.1278ZM126.548 81.375C126.879 81.375 127.159 81.3099 127.386 81.1797C127.616 81.0495 127.788 80.8814 127.904 80.6754C128.023 80.4695 128.082 80.2528 128.082 80.0256V79.2585C128.046 79.3011 127.968 79.3402 127.848 79.3757C127.729 79.4089 127.592 79.4384 127.436 79.4645C127.282 79.4882 127.131 79.5095 126.985 79.5284C126.84 79.545 126.723 79.5592 126.633 79.571C126.415 79.5994 126.212 79.6456 126.022 79.7095C125.835 79.7711 125.684 79.8646 125.568 79.9901C125.454 80.1132 125.397 80.2812 125.397 80.4943C125.397 80.7855 125.505 81.0057 125.72 81.1548C125.938 81.3016 126.214 81.375 126.548 81.375Z" fill="black"/>
<path d="M131.288 74.7273V82H130.45V74.7273H131.288Z" fill="black"/>
<path d="M24.4815 94.1278C24.1359 94.1278 23.8222 94.0627 23.5405 93.9325C23.2588 93.7999 23.035 93.6094 22.8693 93.3608C22.7036 93.1098 22.6207 92.8068 22.6207 92.4517C22.6207 92.1392 22.6823 91.8859 22.8054 91.6918C22.9285 91.4953 23.093 91.3414 23.299 91.2301C23.505 91.1188 23.7322 91.036 23.9808 90.9815C24.2318 90.9247 24.4839 90.8797 24.7372 90.8466C25.0687 90.804 25.3374 90.772 25.5433 90.7507C25.7517 90.727 25.9032 90.688 25.9979 90.6335C26.0949 90.5791 26.1435 90.4844 26.1435 90.3494V90.321C26.1435 89.9706 26.0476 89.6984 25.8558 89.5043C25.6664 89.3101 25.3788 89.2131 24.9929 89.2131C24.5928 89.2131 24.2791 89.3007 24.0518 89.4759C23.8246 89.651 23.6648 89.8381 23.5724 90.0369L22.777 89.7528C22.919 89.4214 23.1084 89.1634 23.3452 88.9787C23.5843 88.7917 23.8447 88.6615 24.1264 88.5881C24.4105 88.5123 24.6899 88.4744 24.9645 88.4744C25.1397 88.4744 25.3409 88.4957 25.5682 88.5384C25.7978 88.5786 26.0192 88.6626 26.2322 88.7905C26.4477 88.9183 26.6264 89.1113 26.7685 89.3693C26.9105 89.6274 26.9815 89.973 26.9815 90.4062V94H26.1435V93.2614H26.1009C26.044 93.3797 25.9493 93.5064 25.8168 93.6413C25.6842 93.7763 25.5078 93.8911 25.2876 93.9858C25.0675 94.0805 24.7988 94.1278 24.4815 94.1278ZM24.6094 93.375C24.9408 93.375 25.2202 93.3099 25.4474 93.1797C25.6771 93.0495 25.8499 92.8814 25.9659 92.6754C26.0843 92.4695 26.1435 92.2528 26.1435 92.0256V91.2585C26.108 91.3011 26.0298 91.3402 25.9091 91.3757C25.7907 91.4089 25.6534 91.4384 25.4972 91.4645C25.3433 91.4882 25.1929 91.5095 25.0462 91.5284C24.9018 91.545 24.7846 91.5592 24.6946 91.571C24.4768 91.5994 24.2732 91.6456 24.0838 91.7095C23.8968 91.7711 23.7453 91.8646 23.6293 91.9901C23.5156 92.1132 23.4588 92.2812 23.4588 92.4943C23.4588 92.7855 23.5665 93.0057 23.782 93.1548C23.9998 93.3016 24.2756 93.375 24.6094 93.375Z" fill="black"/>
<path d="M32.7761 88.5455L30.7591 94H29.9068L27.8897 88.5455H28.7988L30.3045 92.892H30.3613L31.867 88.5455H32.7761Z" fill="black"/>
<path d="M33.8823 94V88.5455H34.7203V94H33.8823ZM34.3084 87.6364C34.1451 87.6364 34.0042 87.5807 33.8858 87.4695C33.7698 87.3582 33.7118 87.2244 33.7118 87.0682C33.7118 86.9119 33.7698 86.7782 33.8858 86.6669C34.0042 86.5556 34.1451 86.5 34.3084 86.5C34.4718 86.5 34.6114 86.5556 34.7275 86.6669C34.8458 86.7782 34.905 86.9119 34.905 87.0682C34.905 87.2244 34.8458 87.3582 34.7275 87.4695C34.6114 87.5807 34.4718 87.6364 34.3084 87.6364Z" fill="black"/>
<path d="M37.8604 94.1278C37.5148 94.1278 37.2011 94.0627 36.9194 93.9325C36.6377 93.7999 36.4139 93.6094 36.2482 93.3608C36.0825 93.1098 35.9996 92.8068 35.9996 92.4517C35.9996 92.1392 36.0612 91.8859 36.1843 91.6918C36.3074 91.4953 36.4719 91.3414 36.6779 91.2301C36.8839 91.1188 37.1112 91.036 37.3597 90.9815C37.6107 90.9247 37.8628 90.8797 38.1161 90.8466C38.4476 90.804 38.7163 90.772 38.9222 90.7507C39.1306 90.727 39.2821 90.688 39.3768 90.6335C39.4738 90.5791 39.5224 90.4844 39.5224 90.3494V90.321C39.5224 89.9706 39.4265 89.6984 39.2347 89.5043C39.0453 89.3101 38.7577 89.2131 38.3718 89.2131C37.9717 89.2131 37.658 89.3007 37.4308 89.4759C37.2035 89.651 37.0437 89.8381 36.9514 90.0369L36.1559 89.7528C36.2979 89.4214 36.4873 89.1634 36.7241 88.9787C36.9632 88.7917 37.2236 88.6615 37.5053 88.5881C37.7894 88.5123 38.0688 88.4744 38.3434 88.4744C38.5186 88.4744 38.7198 88.4957 38.9471 88.5384C39.1767 88.5786 39.3981 88.6626 39.6111 88.7905C39.8266 88.9183 40.0053 89.1113 40.1474 89.3693C40.2894 89.6274 40.3604 89.973 40.3604 90.4062V94H39.5224V93.2614H39.4798C39.4229 93.3797 39.3282 93.5064 39.1957 93.6413C39.0631 93.7763 38.8867 93.8911 38.6665 93.9858C38.4464 94.0805 38.1777 94.1278 37.8604 94.1278ZM37.9883 93.375C38.3197 93.375 38.5991 93.3099 38.8264 93.1797C39.056 93.0495 39.2288 92.8814 39.3448 92.6754C39.4632 92.4695 39.5224 92.2528 39.5224 92.0256V91.2585C39.4869 91.3011 39.4087 91.3402 39.288 91.3757C39.1696 91.4089 39.0323 91.4384 38.8761 91.4645C38.7222 91.4882 38.5719 91.5095 38.4251 91.5284C38.2807 91.545 38.1635 91.5592 38.0735 91.571C37.8557 91.5994 37.6521 91.6456 37.4627 91.7095C37.2757 91.7711 37.1242 91.8646 37.0082 91.9901C36.8945 92.1132 36.8377 92.2812 36.8377 92.4943C36.8377 92.7855 36.9454 93.0057 37.1609 93.1548C37.3787 93.3016 37.6545 93.375 37.9883 93.375Z" fill="black"/>
<path d="M44.2623 88.5455V89.2557H41.4355V88.5455H44.2623ZM42.2594 87.2386H43.0975V92.4375C43.0975 92.6742 43.1318 92.8518 43.2005 92.9702C43.2715 93.0862 43.3614 93.1643 43.4703 93.2045C43.5816 93.2424 43.6988 93.2614 43.8219 93.2614C43.9142 93.2614 43.99 93.2566 44.0492 93.2472C44.1084 93.2353 44.1557 93.2259 44.1912 93.2188L44.3617 93.9716C44.3049 93.9929 44.2256 94.0142 44.1238 94.0355C44.022 94.0592 43.8929 94.071 43.7367 94.071C43.4999 94.071 43.2679 94.0201 43.0407 93.9183C42.8158 93.8165 42.6287 93.6615 42.4796 93.4531C42.3328 93.2448 42.2594 92.982 42.2594 92.6648V87.2386Z" fill="black"/>
<path d="M45.5229 94V88.5455H46.361V94H45.5229ZM45.949 87.6364C45.7857 87.6364 45.6448 87.5807 45.5265 87.4695C45.4105 87.3582 45.3525 87.2244 45.3525 87.0682C45.3525 86.9119 45.4105 86.7782 45.5265 86.6669C45.6448 86.5556 45.7857 86.5 45.949 86.5C46.1124 86.5 46.2521 86.5556 46.3681 86.6669C46.4864 86.7782 46.5456 86.9119 46.5456 87.0682C46.5456 87.2244 46.4864 87.3582 46.3681 87.4695C46.2521 87.5807 46.1124 87.6364 45.949 87.6364Z" fill="black"/>
<path d="M50.1119 94.1136C49.6194 94.1136 49.1874 93.9965 48.8157 93.7621C48.4464 93.5277 48.1576 93.1998 47.9492 92.7784C47.7433 92.357 47.6403 91.8646 47.6403 91.3011C47.6403 90.733 47.7433 90.237 47.9492 89.8132C48.1576 89.3894 48.4464 89.0604 48.8157 88.826C49.1874 88.5916 49.6194 88.4744 50.1119 88.4744C50.6043 88.4744 51.0352 88.5916 51.4045 88.826C51.7762 89.0604 52.065 89.3894 52.271 89.8132C52.4793 90.237 52.5835 90.733 52.5835 91.3011C52.5835 91.8646 52.4793 92.357 52.271 92.7784C52.065 93.1998 51.7762 93.5277 51.4045 93.7621C51.0352 93.9965 50.6043 94.1136 50.1119 94.1136ZM50.1119 93.3608C50.4859 93.3608 50.7937 93.2649 51.0352 93.0732C51.2766 92.8814 51.4554 92.6293 51.5714 92.3168C51.6874 92.0043 51.7454 91.6657 51.7454 91.3011C51.7454 90.9366 51.6874 90.5968 51.5714 90.282C51.4554 89.9671 51.2766 89.7126 51.0352 89.5185C50.7937 89.3243 50.4859 89.2273 50.1119 89.2273C49.7378 89.2273 49.43 89.3243 49.1886 89.5185C48.9471 89.7126 48.7683 89.9671 48.6523 90.282C48.5363 90.5968 48.4783 90.9366 48.4783 91.3011C48.4783 91.6657 48.5363 92.0043 48.6523 92.3168C48.7683 92.6293 48.9471 92.8814 49.1886 93.0732C49.43 93.2649 49.7378 93.3608 50.1119 93.3608Z" fill="black"/>
<path d="M54.7008 90.7188V94H53.8627V88.5455H54.6724V89.3977H54.7434C54.8713 89.1207 55.0654 88.8982 55.3258 88.7301C55.5862 88.5597 55.9224 88.4744 56.3343 88.4744C56.7037 88.4744 57.0268 88.5502 57.3038 88.7017C57.5808 88.8509 57.7962 89.0781 57.9501 89.3835C58.104 89.6866 58.1809 90.0701 58.1809 90.5341V94H57.3429V90.5909C57.3429 90.1624 57.2316 89.8286 57.0091 89.5895C56.7865 89.348 56.4811 89.2273 56.0929 89.2273C55.8253 89.2273 55.5862 89.2853 55.3755 89.4013C55.1672 89.5173 55.0027 89.6866 54.8819 89.9091C54.7612 90.1316 54.7008 90.4015 54.7008 90.7188Z" fill="black"/>
<path d="M63.3629 90.7188V94H62.5249V86.7273H63.3629V89.3977H63.4339C63.5618 89.116 63.7535 88.8923 64.0092 88.7266C64.2673 88.5585 64.6106 88.4744 65.0391 88.4744C65.4107 88.4744 65.7363 88.549 66.0156 88.6982C66.295 88.8449 66.5116 89.071 66.6655 89.3764C66.8217 89.6794 66.8999 90.0653 66.8999 90.5341V94H66.0618V90.5909C66.0618 90.1577 65.9493 89.8227 65.7244 89.5859C65.5019 89.3468 65.1929 89.2273 64.7976 89.2273C64.523 89.2273 64.2768 89.2853 64.059 89.4013C63.8435 89.5173 63.6731 89.6866 63.5476 89.9091C63.4245 90.1316 63.3629 90.4015 63.3629 90.7188Z" fill="black"/>
<path d="M71.8706 91.7699V88.5455H72.7086V94H71.8706V93.0767H71.8137C71.6859 93.3537 71.487 93.5892 71.2172 93.7834C70.9473 93.9751 70.6064 94.071 70.1944 94.071C69.8535 94.071 69.5505 93.9964 69.2853 93.8473C69.0202 93.6958 68.8118 93.4685 68.6603 93.1655C68.5088 92.8601 68.4331 92.4754 68.4331 92.0114V88.5455H69.2711V91.9545C69.2711 92.3523 69.3824 92.6695 69.6049 92.9062C69.8298 93.143 70.1163 93.2614 70.4643 93.2614C70.6726 93.2614 70.8845 93.2081 71.1 93.1016C71.3178 92.995 71.5001 92.8317 71.6468 92.6115C71.796 92.3913 71.8706 92.1108 71.8706 91.7699Z" fill="black"/>
<path d="M74.3572 94V86.7273H75.1953V89.4119H75.2663C75.3279 89.3172 75.4131 89.1965 75.522 89.0497C75.6333 88.9006 75.7919 88.768 75.9979 88.652C76.2062 88.5336 76.4879 88.4744 76.843 88.4744C77.3023 88.4744 77.7071 88.5893 78.0575 88.8189C78.4079 89.0485 78.6813 89.3741 78.8778 89.7955C79.0743 90.2169 79.1726 90.714 79.1726 91.2869C79.1726 91.8646 79.0743 92.3653 78.8778 92.7891C78.6813 93.2105 78.4091 93.5372 78.0611 93.7692C77.7131 93.9988 77.3118 94.1136 76.8572 94.1136C76.5069 94.1136 76.2263 94.0556 76.0156 93.9396C75.8049 93.8213 75.6428 93.6875 75.5291 93.5384C75.4155 93.3868 75.3279 93.2614 75.2663 93.1619H75.1669V94H74.3572ZM75.1811 91.2727C75.1811 91.6847 75.2415 92.0481 75.3622 92.3629C75.483 92.6754 75.6593 92.9205 75.8913 93.098C76.1233 93.2732 76.4074 93.3608 76.7436 93.3608C77.094 93.3608 77.3864 93.2685 77.6207 93.0838C77.8575 92.8968 78.035 92.6458 78.1534 92.331C78.2742 92.0137 78.3345 91.661 78.3345 91.2727C78.3345 90.8892 78.2753 90.5436 78.157 90.2358C78.041 89.9257 77.8646 89.6806 77.6278 89.5007C77.3935 89.3184 77.0987 89.2273 76.7436 89.2273C76.4027 89.2273 76.1162 89.3137 75.8842 89.4865C75.6522 89.657 75.477 89.8961 75.3587 90.2038C75.2403 90.5092 75.1811 90.8655 75.1811 91.2727Z" fill="black"/>
<path d="M84.8722 94.1278C84.5265 94.1278 84.2128 94.0627 83.9311 93.9325C83.6494 93.7999 83.4257 93.6094 83.2599 93.3608C83.0942 93.1098 83.0114 92.8068 83.0114 92.4517C83.0114 92.1392 83.0729 91.8859 83.196 91.6918C83.3191 91.4953 83.4837 91.3414 83.6896 91.2301C83.8956 91.1188 84.1229 91.036 84.3715 90.9815C84.6224 90.9247 84.8745 90.8797 85.1278 90.8466C85.4593 90.804 85.728 90.772 85.934 90.7507C86.1423 90.727 86.2938 90.688 86.3885 90.6335C86.4856 90.5791 86.5341 90.4844 86.5341 90.3494V90.321C86.5341 89.9706 86.4382 89.6984 86.2465 89.5043C86.0571 89.3101 85.7694 89.2131 85.3835 89.2131C84.9834 89.2131 84.6697 89.3007 84.4425 89.4759C84.2152 89.651 84.0554 89.8381 83.9631 90.0369L83.1676 89.7528C83.3097 89.4214 83.4991 89.1634 83.7358 88.9787C83.9749 88.7917 84.2353 88.6615 84.517 88.5881C84.8011 88.5123 85.0805 88.4744 85.3551 88.4744C85.5303 88.4744 85.7315 88.4957 85.9588 88.5384C86.1884 88.5786 86.4098 88.6626 86.6229 88.7905C86.8383 88.9183 87.017 89.1113 87.1591 89.3693C87.3011 89.6274 87.3722 89.973 87.3722 90.4062V94H86.5341V93.2614H86.4915C86.4347 93.3797 86.34 93.5064 86.2074 93.6413C86.0748 93.7763 85.8984 93.8911 85.6783 93.9858C85.4581 94.0805 85.1894 94.1278 84.8722 94.1278ZM85 93.375C85.3314 93.375 85.6108 93.3099 85.8381 93.1797C86.0677 93.0495 86.2405 92.8814 86.3565 92.6754C86.4749 92.4695 86.5341 92.2528 86.5341 92.0256V91.2585C86.4986 91.3011 86.4205 91.3402 86.2997 91.3757C86.1813 91.4089 86.044 91.4384 85.8878 91.4645C85.7339 91.4882 85.5836 91.5095 85.4368 91.5284C85.2924 91.545 85.1752 91.5592 85.0852 91.571C84.8674 91.5994 84.6638 91.6456 84.4744 91.7095C84.2874 91.7711 84.1359 91.8646 84.0199 91.9901C83.9063 92.1132 83.8494 92.2812 83.8494 92.4943C83.8494 92.7855 83.9571 93.0057 84.1726 93.1548C84.3904 93.3016 84.6662 93.375 85 93.375Z" fill="black"/>
<path d="M89.7399 90.7188V94H88.9018V88.5455H89.7115V89.3977H89.7825C89.9103 89.1207 90.1045 88.8982 90.3649 88.7301C90.6253 88.5597 90.9615 88.4744 91.3734 88.4744C91.7427 88.4744 92.0659 88.5502 92.3429 88.7017C92.6199 88.8509 92.8353 89.0781 92.9892 89.3835C93.143 89.6866 93.22 90.0701 93.22 90.5341V94H92.3819V90.5909C92.3819 90.1624 92.2707 89.8286 92.0481 89.5895C91.8256 89.348 91.5202 89.2273 91.1319 89.2273C90.8644 89.2273 90.6253 89.2853 90.4146 89.4013C90.2063 89.5173 90.0417 89.6866 89.921 89.9091C89.8003 90.1316 89.7399 90.4015 89.7399 90.7188Z" fill="black"/>
<path d="M96.8111 94.1136C96.3565 94.1136 95.9553 93.9988 95.6072 93.7692C95.2592 93.5372 94.987 93.2105 94.7905 92.7891C94.594 92.3653 94.4957 91.8646 94.4957 91.2869C94.4957 90.714 94.594 90.2169 94.7905 89.7955C94.987 89.3741 95.2604 89.0485 95.6108 88.8189C95.9612 88.5893 96.366 88.4744 96.8253 88.4744C97.1804 88.4744 97.4609 88.5336 97.6669 88.652C97.8752 88.768 98.0339 88.9006 98.1428 89.0497C98.254 89.1965 98.3404 89.3172 98.402 89.4119H98.473V86.7273H99.3111V94H98.5014V93.1619H98.402C98.3404 93.2614 98.2528 93.3868 98.1392 93.5384C98.0256 93.6875 97.8634 93.8213 97.6527 93.9396C97.442 94.0556 97.1615 94.1136 96.8111 94.1136ZM96.9247 93.3608C97.2609 93.3608 97.545 93.2732 97.777 93.098C98.009 92.9205 98.1854 92.6754 98.3061 92.3629C98.4268 92.0481 98.4872 91.6847 98.4872 91.2727C98.4872 90.8655 98.428 90.5092 98.3097 90.2038C98.1913 89.8961 98.0161 89.657 97.7841 89.4865C97.5521 89.3137 97.2656 89.2273 96.9247 89.2273C96.5696 89.2273 96.2737 89.3184 96.0369 89.5007C95.8026 89.6806 95.6262 89.9257 95.5078 90.2358C95.3918 90.5436 95.3338 90.8892 95.3338 91.2727C95.3338 91.661 95.393 92.0137 95.5114 92.331C95.6321 92.6458 95.8097 92.8968 96.044 93.0838C96.2808 93.2685 96.5743 93.3608 96.9247 93.3608Z" fill="black"/>
<path d="M105.38 94.1278C105.034 94.1278 104.721 94.0627 104.439 93.9325C104.157 93.7999 103.933 93.6094 103.768 93.3608C103.602 93.1098 103.519 92.8068 103.519 92.4517C103.519 92.1392 103.581 91.8859 103.704 91.6918C103.827 91.4953 103.991 91.3414 104.197 91.2301C104.403 91.1188 104.631 91.036 104.879 90.9815C105.13 90.9247 105.382 90.8797 105.636 90.8466C105.967 90.804 106.236 90.772 106.442 90.7507C106.65 90.727 106.802 90.688 106.896 90.6335C106.993 90.5791 107.042 90.4844 107.042 90.3494V90.321C107.042 89.9706 106.946 89.6984 106.754 89.5043C106.565 89.3101 106.277 89.2131 105.891 89.2131C105.491 89.2131 105.178 89.3007 104.95 89.4759C104.723 89.651 104.563 89.8381 104.471 90.0369L103.675 89.7528C103.817 89.4214 104.007 89.1634 104.244 88.9787C104.483 88.7917 104.743 88.6615 105.025 88.5881C105.309 88.5123 105.588 88.4744 105.863 88.4744C106.038 88.4744 106.239 88.4957 106.467 88.5384C106.696 88.5786 106.918 88.6626 107.131 88.7905C107.346 88.9183 107.525 89.1113 107.667 89.3693C107.809 89.6274 107.88 89.973 107.88 90.4062V94H107.042V93.2614H106.999C106.942 93.3797 106.848 93.5064 106.715 93.6413C106.583 93.7763 106.406 93.8911 106.186 93.9858C105.966 94.0805 105.697 94.1278 105.38 94.1278ZM105.508 93.375C105.839 93.375 106.119 93.3099 106.346 93.1797C106.576 93.0495 106.748 92.8814 106.864 92.6754C106.983 92.4695 107.042 92.2528 107.042 92.0256V91.2585C107.006 91.3011 106.928 91.3402 106.808 91.3757C106.689 91.4089 106.552 91.4384 106.396 91.4645C106.242 91.4882 106.091 91.5095 105.945 91.5284C105.8 91.545 105.683 91.5592 105.593 91.571C105.375 91.5994 105.172 91.6456 104.982 91.7095C104.795 91.7711 104.644 91.8646 104.528 91.9901C104.414 92.1132 104.357 92.2812 104.357 92.4943C104.357 92.7855 104.465 93.0057 104.68 93.1548C104.898 93.3016 105.174 93.375 105.508 93.375Z" fill="black"/>
<path d="M113.003 92.0114L112.989 90.9744H113.16L115.546 88.5455H116.583L114.04 91.1165H113.969L113.003 92.0114ZM112.222 94V86.7273H113.06V94H112.222ZM115.688 94L113.557 91.3011L114.154 90.7188L116.753 94H115.688Z" fill="black"/>
<path d="M119.724 94.1136C119.198 94.1136 118.745 93.9976 118.364 93.7656C117.985 93.5312 117.693 93.2045 117.487 92.7855C117.283 92.3641 117.181 91.8741 117.181 91.3153C117.181 90.7566 117.283 90.2642 117.487 89.8381C117.693 89.4096 117.979 89.0758 118.346 88.8366C118.715 88.5952 119.146 88.4744 119.639 88.4744C119.923 88.4744 120.203 88.5218 120.48 88.6165C120.757 88.7112 121.009 88.8651 121.237 89.0781C121.464 89.2888 121.645 89.5682 121.78 89.9162C121.915 90.2642 121.982 90.6927 121.982 91.2017V91.5568H117.778V90.8324H121.13C121.13 90.5246 121.069 90.25 120.945 90.0085C120.825 89.767 120.652 89.5765 120.427 89.4368C120.204 89.2971 119.942 89.2273 119.639 89.2273C119.305 89.2273 119.016 89.3101 118.772 89.4759C118.531 89.6392 118.345 89.8523 118.215 90.1151C118.084 90.3778 118.019 90.6596 118.019 90.9602V91.4432C118.019 91.8551 118.09 92.2043 118.232 92.4908C118.377 92.7749 118.577 92.9915 118.833 93.1406C119.088 93.2874 119.385 93.3608 119.724 93.3608C119.944 93.3608 120.143 93.33 120.32 93.2685C120.5 93.2045 120.655 93.1098 120.786 92.9844C120.916 92.8565 121.017 92.6979 121.088 92.5085L121.897 92.7358C121.812 93.0104 121.669 93.2519 121.468 93.4602C121.266 93.6662 121.018 93.8272 120.722 93.9432C120.426 94.0568 120.093 94.1136 119.724 94.1136Z" fill="black"/>
<path d="M123.631 96.0455C123.489 96.0455 123.362 96.0336 123.251 96.0099C123.14 95.9886 123.063 95.9673 123.02 95.946L123.233 95.2074C123.437 95.2595 123.617 95.2784 123.773 95.2642C123.929 95.25 124.068 95.1802 124.189 95.0547C124.312 94.9316 124.424 94.7315 124.526 94.4545L124.682 94.0284L122.665 88.5455H123.574L125.08 92.892H125.137L126.642 88.5455H127.551L125.236 94.7955C125.132 95.0772 125.003 95.3104 124.849 95.495C124.695 95.6821 124.516 95.8206 124.313 95.9105C124.112 96.0005 123.884 96.0455 123.631 96.0455Z" fill="black"/>
<path d="M20.7395 106.114C20.214 106.114 19.7606 105.998 19.3794 105.766C19.0007 105.531 18.7083 105.205 18.5023 104.786C18.2987 104.364 18.1969 103.874 18.1969 103.315C18.1969 102.757 18.2987 102.264 18.5023 101.838C18.7083 101.41 18.9947 101.076 19.3617 100.837C19.731 100.595 20.1619 100.474 20.6543 100.474C20.9384 100.474 21.2189 100.522 21.4959 100.616C21.7729 100.711 22.025 100.865 22.2523 101.078C22.4796 101.289 22.6607 101.568 22.7956 101.916C22.9306 102.264 22.998 102.693 22.998 103.202V103.557H18.7935V102.832H22.1458C22.1458 102.525 22.0842 102.25 21.9611 102.009C21.8404 101.767 21.6676 101.576 21.4426 101.437C21.2201 101.297 20.9573 101.227 20.6543 101.227C20.3205 101.227 20.0317 101.31 19.7878 101.476C19.5463 101.639 19.3605 101.852 19.2303 102.115C19.1001 102.378 19.035 102.66 19.035 102.96V103.443C19.035 103.855 19.106 104.204 19.248 104.491C19.3925 104.775 19.5925 104.991 19.8482 105.141C20.1039 105.287 20.401 105.361 20.7395 105.361C20.9597 105.361 21.1586 105.33 21.3361 105.268C21.516 105.205 21.6711 105.11 21.8013 104.984C21.9315 104.857 22.0321 104.698 22.1032 104.509L22.9128 104.736C22.8276 105.01 22.6844 105.252 22.4831 105.46C22.2819 105.666 22.0333 105.827 21.7374 105.943C21.4415 106.057 21.1088 106.114 20.7395 106.114Z" fill="black"/>
<path d="M25.111 102.719V106H24.2729V100.545H25.0826V101.398H25.1536C25.2814 101.121 25.4756 100.898 25.736 100.73C25.9964 100.56 26.3326 100.474 26.7445 100.474C27.1138 100.474 27.437 100.55 27.714 100.702C27.9909 100.851 28.2064 101.078 28.3603 101.384C28.5141 101.687 28.5911 102.07 28.5911 102.534V106H27.753V102.591C27.753 102.162 27.6418 101.829 27.4192 101.589C27.1967 101.348 26.8913 101.227 26.503 101.227C26.2355 101.227 25.9964 101.285 25.7857 101.401C25.5774 101.517 25.4128 101.687 25.2921 101.909C25.1713 102.132 25.111 102.402 25.111 102.719Z" fill="black"/>
<path d="M32.3242 108.159C31.9194 108.159 31.5714 108.107 31.2802 108.003C30.989 107.901 30.7463 107.766 30.5522 107.598C30.3604 107.432 30.2077 107.255 30.0941 107.065L30.7617 106.597C30.8375 106.696 30.9334 106.81 31.0494 106.938C31.1654 107.068 31.324 107.18 31.5252 107.275C31.7288 107.372 31.9951 107.42 32.3242 107.42C32.7646 107.42 33.128 107.314 33.4144 107.101C33.7009 106.888 33.8441 106.554 33.8441 106.099V104.991H33.7731C33.7115 105.091 33.6239 105.214 33.5103 105.361C33.399 105.505 33.238 105.634 33.0273 105.748C32.819 105.859 32.5373 105.915 32.1822 105.915C31.7418 105.915 31.3465 105.811 30.9961 105.602C30.6481 105.394 30.3723 105.091 30.1687 104.693C29.9674 104.295 29.8668 103.812 29.8668 103.244C29.8668 102.686 29.9651 102.199 30.1616 101.785C30.3581 101.368 30.6315 101.046 30.9819 100.819C31.3323 100.589 31.7371 100.474 32.1964 100.474C32.5515 100.474 32.8332 100.534 33.0415 100.652C33.2523 100.768 33.4132 100.901 33.5245 101.05C33.6381 101.196 33.7257 101.317 33.7873 101.412H33.8725V100.545H34.6822V106.156C34.6822 106.625 34.5756 107.006 34.3626 107.3C34.1519 107.596 33.8678 107.812 33.5103 107.95C33.1552 108.089 32.7598 108.159 32.3242 108.159ZM32.2958 105.162C32.632 105.162 32.9161 105.085 33.1481 104.931C33.3801 104.777 33.5565 104.556 33.6772 104.267C33.7979 103.978 33.8583 103.633 33.8583 103.23C33.8583 102.837 33.7991 102.49 33.6808 102.19C33.5624 101.889 33.3872 101.653 33.1552 101.483C32.9232 101.313 32.6367 101.227 32.2958 101.227C31.9407 101.227 31.6448 101.317 31.408 101.497C31.1737 101.677 30.9973 101.919 30.8789 102.222C30.7629 102.525 30.7049 102.861 30.7049 103.23C30.7049 103.609 30.7641 103.944 30.8825 104.235C31.0032 104.524 31.1808 104.751 31.4151 104.917C31.6519 105.08 31.9454 105.162 32.2958 105.162Z" fill="black"/>
<path d="M36.2163 106V100.545H37.0543V106H36.2163ZM36.6424 99.6364C36.479 99.6364 36.3382 99.5807 36.2198 99.4695C36.1038 99.3582 36.0458 99.2244 36.0458 99.0682C36.0458 98.9119 36.1038 98.7782 36.2198 98.6669C36.3382 98.5556 36.479 98.5 36.6424 98.5C36.8058 98.5 36.9454 98.5556 37.0614 98.6669C37.1798 98.7782 37.239 98.9119 37.239 99.0682C37.239 99.2244 37.1798 99.3582 37.0614 99.4695C36.9454 99.5807 36.8058 99.6364 36.6424 99.6364Z" fill="black"/>
<path d="M39.4274 102.719V106H38.5893V100.545H39.399V101.398H39.47C39.5978 101.121 39.792 100.898 40.0524 100.73C40.3128 100.56 40.649 100.474 41.0609 100.474C41.4302 100.474 41.7534 100.55 42.0304 100.702C42.3073 100.851 42.5228 101.078 42.6767 101.384C42.8306 101.687 42.9075 102.07 42.9075 102.534V106H42.0694V102.591C42.0694 102.162 41.9582 101.829 41.7356 101.589C41.5131 101.348 41.2077 101.227 40.8194 101.227C40.5519 101.227 40.3128 101.285 40.1021 101.401C39.8938 101.517 39.7292 101.687 39.6085 101.909C39.4877 102.132 39.4274 102.402 39.4274 102.719Z" fill="black"/>
<path d="M46.7259 106.114C46.2003 106.114 45.7469 105.998 45.3658 105.766C44.987 105.531 44.6946 105.205 44.4886 104.786C44.285 104.364 44.1832 103.874 44.1832 103.315C44.1832 102.757 44.285 102.264 44.4886 101.838C44.6946 101.41 44.9811 101.076 45.348 100.837C45.7173 100.595 46.1482 100.474 46.6406 100.474C46.9247 100.474 47.2053 100.522 47.4822 100.616C47.7592 100.711 48.0114 100.865 48.2386 101.078C48.4659 101.289 48.647 101.568 48.782 101.916C48.9169 102.264 48.9844 102.693 48.9844 103.202V103.557H44.7798V102.832H48.1321C48.1321 102.525 48.0706 102.25 47.9474 102.009C47.8267 101.767 47.6539 101.576 47.429 101.437C47.2064 101.297 46.9437 101.227 46.6406 101.227C46.3068 101.227 46.018 101.31 45.7741 101.476C45.5327 101.639 45.3468 101.852 45.2166 102.115C45.0864 102.378 45.0213 102.66 45.0213 102.96V103.443C45.0213 103.855 45.0923 104.204 45.2344 104.491C45.3788 104.775 45.5788 104.991 45.8345 105.141C46.0902 105.287 46.3873 105.361 46.7259 105.361C46.946 105.361 47.1449 105.33 47.3224 105.268C47.5024 105.205 47.6574 105.11 47.7876 104.984C47.9179 104.857 48.0185 104.698 48.0895 104.509L48.8991 104.736C48.8139 105.01 48.6707 105.252 48.4695 105.46C48.2682 105.666 48.0196 105.827 47.7237 105.943C47.4278 106.057 47.0952 106.114 46.7259 106.114Z" fill="black"/>
<path d="M55.5007 100.545V101.256H52.5604V100.545H55.5007ZM53.4411 106V99.7926C53.4411 99.4801 53.5144 99.2197 53.6612 99.0114C53.808 98.803 53.9986 98.6468 54.233 98.5426C54.4673 98.4384 54.7147 98.3864 54.9751 98.3864C55.1811 98.3864 55.3492 98.4029 55.4794 98.4361C55.6096 98.4692 55.7067 98.5 55.7706 98.5284L55.5291 99.2528C55.4865 99.2386 55.4273 99.2209 55.3516 99.1996C55.2782 99.1783 55.1811 99.1676 55.0604 99.1676C54.7834 99.1676 54.5833 99.2375 54.4602 99.3771C54.3395 99.5168 54.2791 99.7216 54.2791 99.9915V106H53.4411Z" fill="black"/>
<path d="M58.6665 106.114C58.1741 106.114 57.7421 105.996 57.3704 105.762C57.0011 105.528 56.7122 105.2 56.5039 104.778C56.2979 104.357 56.195 103.865 56.195 103.301C56.195 102.733 56.2979 102.237 56.5039 101.813C56.7122 101.389 57.0011 101.06 57.3704 100.826C57.7421 100.592 58.1741 100.474 58.6665 100.474C59.159 100.474 59.5898 100.592 59.9592 100.826C60.3308 101.06 60.6197 101.389 60.8256 101.813C61.034 102.237 61.1381 102.733 61.1381 103.301C61.1381 103.865 61.034 104.357 60.8256 104.778C60.6197 105.2 60.3308 105.528 59.9592 105.762C59.5898 105.996 59.159 106.114 58.6665 106.114ZM58.6665 105.361C59.0406 105.361 59.3484 105.265 59.5898 105.073C59.8313 104.881 60.0101 104.629 60.1261 104.317C60.2421 104.004 60.3001 103.666 60.3001 103.301C60.3001 102.937 60.2421 102.597 60.1261 102.282C60.0101 101.967 59.8313 101.713 59.5898 101.518C59.3484 101.324 59.0406 101.227 58.6665 101.227C58.2925 101.227 57.9847 101.324 57.7433 101.518C57.5018 101.713 57.323 101.967 57.207 102.282C57.091 102.597 57.033 102.937 57.033 103.301C57.033 103.666 57.091 104.004 57.207 104.317C57.323 104.629 57.5018 104.881 57.7433 105.073C57.9847 105.265 58.2925 105.361 58.6665 105.361Z" fill="black"/>
<path d="M62.4174 106V100.545H63.2271V101.369H63.2839C63.3833 101.099 63.5633 100.88 63.8237 100.712C64.0841 100.544 64.3777 100.46 64.7044 100.46C64.7659 100.46 64.8429 100.461 64.9352 100.464C65.0275 100.466 65.0974 100.47 65.1447 100.474V101.327C65.1163 101.32 65.0512 101.309 64.9494 101.295C64.85 101.278 64.7446 101.27 64.6333 101.27C64.3682 101.27 64.1315 101.326 63.9231 101.437C63.7172 101.546 63.5538 101.697 63.4331 101.891C63.3147 102.083 63.2555 102.302 63.2555 102.548V106H62.4174Z" fill="black"/>
<path d="M71.3228 100.545V101.256H68.4961V100.545H71.3228ZM69.32 99.2386H70.158V104.438C70.158 104.674 70.1924 104.852 70.261 104.97C70.332 105.086 70.422 105.164 70.5309 105.205C70.6422 105.242 70.7593 105.261 70.8825 105.261C70.9748 105.261 71.0505 105.257 71.1097 105.247C71.1689 105.235 71.2163 105.226 71.2518 105.219L71.4222 105.972C71.3654 105.993 71.2861 106.014 71.1843 106.036C71.0825 106.059 70.9535 106.071 70.7972 106.071C70.5605 106.071 70.3285 106.02 70.1012 105.918C69.8763 105.817 69.6893 105.661 69.5401 105.453C69.3934 105.245 69.32 104.982 69.32 104.665V99.2386Z" fill="black"/>
<path d="M73.5387 102.719V106H72.7006V98.7273H73.5387V101.398H73.6097C73.7376 101.116 73.9293 100.892 74.185 100.727C74.4431 100.558 74.7863 100.474 75.2148 100.474C75.5865 100.474 75.9121 100.549 76.1914 100.698C76.4708 100.845 76.6874 101.071 76.8413 101.376C76.9975 101.679 77.0756 102.065 77.0756 102.534V106H76.2376V102.591C76.2376 102.158 76.1251 101.823 75.9002 101.586C75.6777 101.347 75.3687 101.227 74.9734 101.227C74.6987 101.227 74.4525 101.285 74.2347 101.401C74.0193 101.517 73.8488 101.687 73.7234 101.909C73.6003 102.132 73.5387 102.402 73.5387 102.719Z" fill="black"/>
<path d="M80.8958 106.114C80.3702 106.114 79.9168 105.998 79.5357 105.766C79.1569 105.531 78.8645 105.205 78.6586 104.786C78.455 104.364 78.3532 103.874 78.3532 103.315C78.3532 102.757 78.455 102.264 78.6586 101.838C78.8645 101.41 79.151 101.076 79.5179 100.837C79.8873 100.595 80.3181 100.474 80.8105 100.474C81.0946 100.474 81.3752 100.522 81.6522 100.616C81.9292 100.711 82.1813 100.865 82.4086 101.078C82.6358 101.289 82.8169 101.568 82.9519 101.916C83.0868 102.264 83.1543 102.693 83.1543 103.202V103.557H78.9498V102.832H82.302C82.302 102.525 82.2405 102.25 82.1174 102.009C81.9966 101.767 81.8238 101.576 81.5989 101.437C81.3764 101.297 81.1136 101.227 80.8105 101.227C80.4767 101.227 80.1879 101.31 79.9441 101.476C79.7026 101.639 79.5168 101.852 79.3865 102.115C79.2563 102.378 79.1912 102.66 79.1912 102.96V103.443C79.1912 103.855 79.2623 104.204 79.4043 104.491C79.5487 104.775 79.7488 104.991 80.0044 105.141C80.2601 105.287 80.5572 105.361 80.8958 105.361C81.1159 105.361 81.3148 105.33 81.4924 105.268C81.6723 105.205 81.8274 105.11 81.9576 104.984C82.0878 104.857 82.1884 104.698 82.2594 104.509L83.0691 104.736C82.9838 105.01 82.8406 105.252 82.6394 105.46C82.4382 105.666 82.1896 105.827 81.8936 105.943C81.5977 106.057 81.2651 106.114 80.8958 106.114Z" fill="black"/>
<path d="M89.5286 106.114C89.003 106.114 88.5497 105.998 88.1685 105.766C87.7897 105.531 87.4973 105.205 87.2914 104.786C87.0878 104.364 86.986 103.874 86.986 103.315C86.986 102.757 87.0878 102.264 87.2914 101.838C87.4973 101.41 87.7838 101.076 88.1507 100.837C88.5201 100.595 88.9509 100.474 89.4434 100.474C89.7275 100.474 90.008 100.522 90.285 100.616C90.562 100.711 90.8141 100.865 91.0414 101.078C91.2686 101.289 91.4498 101.568 91.5847 101.916C91.7196 102.264 91.7871 102.693 91.7871 103.202V103.557H87.5826V102.832H90.9348C90.9348 102.525 90.8733 102.25 90.7502 102.009C90.6294 101.767 90.4566 101.576 90.2317 101.437C90.0092 101.297 89.7464 101.227 89.4434 101.227C89.1096 101.227 88.8207 101.31 88.5769 101.476C88.3354 101.639 88.1496 101.852 88.0194 102.115C87.8891 102.378 87.824 102.66 87.824 102.96V103.443C87.824 103.855 87.8951 104.204 88.0371 104.491C88.1815 104.775 88.3816 104.991 88.6373 105.141C88.8929 105.287 89.19 105.361 89.5286 105.361C89.7488 105.361 89.9476 105.33 90.1252 105.268C90.3051 105.205 90.4602 105.11 90.5904 104.984C90.7206 104.857 90.8212 104.698 90.8922 104.509L91.7019 104.736C91.6167 105.01 91.4734 105.252 91.2722 105.46C91.071 105.666 90.8224 105.827 90.5265 105.943C90.2305 106.057 89.8979 106.114 89.5286 106.114Z" fill="black"/>
<path d="M95.2779 106.114C94.7665 106.114 94.3262 105.993 93.9569 105.751C93.5875 105.51 93.3034 105.177 93.1046 104.754C92.9057 104.33 92.8063 103.846 92.8063 103.301C92.8063 102.747 92.9081 102.258 93.1117 101.835C93.3177 101.408 93.6041 101.076 93.9711 100.837C94.3404 100.595 94.7712 100.474 95.2637 100.474C95.6472 100.474 95.9928 100.545 96.3006 100.688C96.6084 100.83 96.8605 101.028 97.057 101.284C97.2535 101.54 97.3754 101.838 97.4228 102.179H96.5847C96.5208 101.93 96.3787 101.71 96.1586 101.518C95.9408 101.324 95.6472 101.227 95.2779 101.227C94.9512 101.227 94.6647 101.313 94.4185 101.483C94.1747 101.651 93.9841 101.889 93.8468 102.197C93.7118 102.502 93.6444 102.861 93.6444 103.273C93.6444 103.694 93.7106 104.061 93.8432 104.374C93.9782 104.686 94.1676 104.929 94.4114 105.102C94.6576 105.274 94.9464 105.361 95.2779 105.361C95.4957 105.361 95.6934 105.323 95.8709 105.247C96.0485 105.171 96.1988 105.063 96.3219 104.92C96.445 104.778 96.5326 104.608 96.5847 104.409H97.4228C97.3754 104.731 97.2582 105.021 97.0712 105.279C96.8865 105.535 96.6415 105.738 96.3361 105.89C96.0331 106.039 95.6803 106.114 95.2779 106.114Z" fill="black"/>
<path d="M100.864 106.114C100.371 106.114 99.9393 105.996 99.5676 105.762C99.1983 105.528 98.9095 105.2 98.7012 104.778C98.4952 104.357 98.3922 103.865 98.3922 103.301C98.3922 102.733 98.4952 102.237 98.7012 101.813C98.9095 101.389 99.1983 101.06 99.5676 100.826C99.9393 100.592 100.371 100.474 100.864 100.474C101.356 100.474 101.787 100.592 102.156 100.826C102.528 101.06 102.817 101.389 103.023 101.813C103.231 102.237 103.335 102.733 103.335 103.301C103.335 103.865 103.231 104.357 103.023 104.778C102.817 105.2 102.528 105.528 102.156 105.762C101.787 105.996 101.356 106.114 100.864 106.114ZM100.864 105.361C101.238 105.361 101.546 105.265 101.787 105.073C102.029 104.881 102.207 104.629 102.323 104.317C102.439 104.004 102.497 103.666 102.497 103.301C102.497 102.937 102.439 102.597 102.323 102.282C102.207 101.967 102.029 101.713 101.787 101.518C101.546 101.324 101.238 101.227 100.864 101.227C100.49 101.227 100.182 101.324 99.9405 101.518C99.699 101.713 99.5203 101.967 99.4043 102.282C99.2883 102.597 99.2303 102.937 99.2303 103.301C99.2303 103.666 99.2883 104.004 99.4043 104.317C99.5203 104.629 99.699 104.881 99.9405 105.073C100.182 105.265 100.49 105.361 100.864 105.361Z" fill="black"/>
<path d="M105.453 102.719V106H104.615V100.545H105.424V101.398H105.495C105.623 101.121 105.817 100.898 106.078 100.73C106.338 100.56 106.674 100.474 107.086 100.474C107.456 100.474 107.779 100.55 108.056 100.702C108.333 100.851 108.548 101.078 108.702 101.384C108.856 101.687 108.933 102.07 108.933 102.534V106H108.095V102.591C108.095 102.162 107.984 101.829 107.761 101.589C107.538 101.348 107.233 101.227 106.845 101.227C106.577 101.227 106.338 101.285 106.127 101.401C105.919 101.517 105.755 101.687 105.634 101.909C105.513 102.132 105.453 102.402 105.453 102.719Z" fill="black"/>
<path d="M112.68 106.114C112.188 106.114 111.756 105.996 111.384 105.762C111.015 105.528 110.726 105.2 110.518 104.778C110.312 104.357 110.209 103.865 110.209 103.301C110.209 102.733 110.312 102.237 110.518 101.813C110.726 101.389 111.015 101.06 111.384 100.826C111.756 100.592 112.188 100.474 112.68 100.474C113.173 100.474 113.604 100.592 113.973 100.826C114.345 101.06 114.633 101.389 114.839 101.813C115.048 102.237 115.152 102.733 115.152 103.301C115.152 103.865 115.048 104.357 114.839 104.778C114.633 105.2 114.345 105.528 113.973 105.762C113.604 105.996 113.173 106.114 112.68 106.114ZM112.68 105.361C113.054 105.361 113.362 105.265 113.604 105.073C113.845 104.881 114.024 104.629 114.14 104.317C114.256 104.004 114.314 103.666 114.314 103.301C114.314 102.937 114.256 102.597 114.14 102.282C114.024 101.967 113.845 101.713 113.604 101.518C113.362 101.324 113.054 101.227 112.68 101.227C112.306 101.227 111.998 101.324 111.757 101.518C111.515 101.713 111.337 101.967 111.221 102.282C111.105 102.597 111.047 102.937 111.047 103.301C111.047 103.666 111.105 104.004 111.221 104.317C111.337 104.629 111.515 104.881 111.757 105.073C111.998 105.265 112.306 105.361 112.68 105.361Z" fill="black"/>
<path d="M116.431 106V100.545H117.241V101.398H117.312C117.425 101.107 117.609 100.88 117.862 100.719C118.116 100.556 118.42 100.474 118.775 100.474C119.135 100.474 119.434 100.556 119.673 100.719C119.915 100.88 120.103 101.107 120.238 101.398H120.295C120.434 101.116 120.644 100.892 120.923 100.727C121.203 100.558 121.538 100.474 121.928 100.474C122.416 100.474 122.815 100.627 123.125 100.933C123.435 101.236 123.59 101.708 123.59 102.349V106H122.752V102.349C122.752 101.947 122.642 101.659 122.422 101.487C122.202 101.314 121.942 101.227 121.644 101.227C121.261 101.227 120.964 101.343 120.753 101.575C120.542 101.805 120.437 102.096 120.437 102.449V106H119.585V102.264C119.585 101.954 119.484 101.704 119.283 101.515C119.081 101.323 118.822 101.227 118.505 101.227C118.287 101.227 118.084 101.285 117.894 101.401C117.707 101.517 117.556 101.678 117.44 101.884C117.326 102.088 117.269 102.323 117.269 102.591V106H116.431Z" fill="black"/>
<path d="M125.123 106V100.545H125.961V106H125.123ZM125.549 99.6364C125.385 99.6364 125.244 99.5807 125.126 99.4695C125.01 99.3582 124.952 99.2244 124.952 99.0682C124.952 98.9119 125.01 98.7782 125.126 98.6669C125.244 98.5556 125.385 98.5 125.549 98.5C125.712 98.5 125.852 98.5556 125.968 98.6669C126.086 98.7782 126.145 98.9119 126.145 99.0682C126.145 99.2244 126.086 99.3582 125.968 99.4695C125.852 99.5807 125.712 99.6364 125.549 99.6364Z" fill="black"/>
<path d="M129.711 106.114C129.2 106.114 128.76 105.993 128.39 105.751C128.021 105.51 127.737 105.177 127.538 104.754C127.339 104.33 127.24 103.846 127.24 103.301C127.24 102.747 127.342 102.258 127.545 101.835C127.751 101.408 128.038 101.076 128.405 100.837C128.774 100.595 129.205 100.474 129.697 100.474C130.081 100.474 130.426 100.545 130.734 100.688C131.042 100.83 131.294 101.028 131.491 101.284C131.687 101.54 131.809 101.838 131.856 102.179H131.018C130.954 101.93 130.812 101.71 130.592 101.518C130.374 101.324 130.081 101.227 129.711 101.227C129.385 101.227 129.098 101.313 128.852 101.483C128.608 101.651 128.418 101.889 128.28 102.197C128.145 102.502 128.078 102.861 128.078 103.273C128.078 103.694 128.144 104.061 128.277 104.374C128.412 104.686 128.601 104.929 128.845 105.102C129.091 105.274 129.38 105.361 129.711 105.361C129.929 105.361 130.127 105.323 130.305 105.247C130.482 105.171 130.632 105.063 130.756 104.92C130.879 104.778 130.966 104.608 131.018 104.409H131.856C131.809 104.731 131.692 105.021 131.505 105.279C131.32 105.535 131.075 105.738 130.77 105.89C130.467 106.039 130.114 106.114 129.711 106.114Z" fill="black"/>
<path d="M26.3086 120.159C25.9038 120.159 25.5558 120.107 25.2646 120.003C24.9734 119.901 24.7307 119.766 24.5366 119.598C24.3448 119.432 24.1921 119.255 24.0785 119.065L24.7461 118.597C24.8219 118.696 24.9177 118.81 25.0337 118.938C25.1497 119.068 25.3084 119.18 25.5096 119.275C25.7132 119.372 25.9795 119.42 26.3086 119.42C26.7489 119.42 27.1123 119.314 27.3988 119.101C27.6853 118.888 27.8285 118.554 27.8285 118.099V116.991H27.7575C27.6959 117.091 27.6083 117.214 27.4947 117.361C27.3834 117.505 27.2224 117.634 27.0117 117.748C26.8034 117.859 26.5217 117.915 26.1665 117.915C25.7262 117.915 25.3308 117.811 24.9805 117.602C24.6325 117.394 24.3567 117.091 24.1531 116.693C23.9518 116.295 23.8512 115.812 23.8512 115.244C23.8512 114.686 23.9495 114.199 24.146 113.785C24.3424 113.368 24.6159 113.046 24.9663 112.819C25.3166 112.589 25.7215 112.474 26.1808 112.474C26.5359 112.474 26.8176 112.534 27.0259 112.652C27.2366 112.768 27.3976 112.901 27.5089 113.05C27.6225 113.196 27.7101 113.317 27.7717 113.412H27.8569V112.545H28.6665V118.156C28.6665 118.625 28.56 119.006 28.3469 119.3C28.1362 119.596 27.8522 119.812 27.4947 119.95C27.1396 120.089 26.7442 120.159 26.3086 120.159ZM26.2802 117.162C26.6164 117.162 26.9005 117.085 27.1325 116.931C27.3645 116.777 27.5408 116.556 27.6616 116.267C27.7823 115.978 27.8427 115.633 27.8427 115.23C27.8427 114.837 27.7835 114.49 27.6651 114.19C27.5468 113.889 27.3716 113.653 27.1396 113.483C26.9076 113.313 26.6211 113.227 26.2802 113.227C25.9251 113.227 25.6291 113.317 25.3924 113.497C25.158 113.677 24.9817 113.919 24.8633 114.222C24.7473 114.525 24.6893 114.861 24.6893 115.23C24.6893 115.609 24.7485 115.944 24.8668 116.235C24.9876 116.524 25.1651 116.751 25.3995 116.917C25.6362 117.08 25.9298 117.162 26.2802 117.162Z" fill="black"/>
<path d="M30.2006 118V112.545H31.0103V113.369H31.0671C31.1665 113.099 31.3465 112.88 31.6069 112.712C31.8673 112.544 32.1609 112.46 32.4876 112.46C32.5491 112.46 32.6261 112.461 32.7184 112.464C32.8107 112.466 32.8806 112.47 32.9279 112.474V113.327C32.8995 113.32 32.8344 113.309 32.7326 113.295C32.6332 113.278 32.5278 113.27 32.4165 113.27C32.1514 113.27 31.9147 113.326 31.7063 113.437C31.5004 113.546 31.337 113.697 31.2163 113.891C31.0979 114.083 31.0387 114.302 31.0387 114.548V118H30.2006Z" fill="black"/>
<path d="M35.9712 118.114C35.4788 118.114 35.0468 117.996 34.6751 117.762C34.3058 117.528 34.0169 117.2 33.8086 116.778C33.6026 116.357 33.4996 115.865 33.4996 115.301C33.4996 114.733 33.6026 114.237 33.8086 113.813C34.0169 113.389 34.3058 113.06 34.6751 112.826C35.0468 112.592 35.4788 112.474 35.9712 112.474C36.4637 112.474 36.8945 112.592 37.2639 112.826C37.6355 113.06 37.9244 113.389 38.1303 113.813C38.3387 114.237 38.4428 114.733 38.4428 115.301C38.4428 115.865 38.3387 116.357 38.1303 116.778C37.9244 117.2 37.6355 117.528 37.2639 117.762C36.8945 117.996 36.4637 118.114 35.9712 118.114ZM35.9712 117.361C36.3453 117.361 36.6531 117.265 36.8945 117.073C37.136 116.881 37.3147 116.629 37.4308 116.317C37.5468 116.004 37.6048 115.666 37.6048 115.301C37.6048 114.937 37.5468 114.597 37.4308 114.282C37.3147 113.967 37.136 113.713 36.8945 113.518C36.6531 113.324 36.3453 113.227 35.9712 113.227C35.5972 113.227 35.2894 113.324 35.0479 113.518C34.8065 113.713 34.6277 113.967 34.5117 114.282C34.3957 114.597 34.3377 114.937 34.3377 115.301C34.3377 115.666 34.3957 116.004 34.5117 116.317C34.6277 116.629 34.8065 116.881 35.0479 117.073C35.2894 117.265 35.5972 117.361 35.9712 117.361Z" fill="black"/>
<path d="M40.7724 118L39.1104 112.545H39.9911L41.1701 116.722H41.2269L42.3917 112.545H43.2866L44.4371 116.707H44.494L45.6729 112.545H46.5536L44.8917 118H44.0678L42.8746 113.81H42.7894L41.5962 118H40.7724Z" fill="black"/>
<path d="M50.0337 112.545V113.256H47.207V112.545H50.0337ZM48.0309 111.239H48.869V116.438C48.869 116.674 48.9033 116.852 48.9719 116.97C49.043 117.086 49.1329 117.164 49.2418 117.205C49.3531 117.242 49.4703 117.261 49.5934 117.261C49.6857 117.261 49.7615 117.257 49.8207 117.247C49.8799 117.235 49.9272 117.226 49.9627 117.219L50.1332 117.972C50.0763 117.993 49.997 118.014 49.8952 118.036C49.7934 118.059 49.6644 118.071 49.5082 118.071C49.2714 118.071 49.0394 118.02 48.8121 117.918C48.5872 117.817 48.4002 117.661 48.2511 117.453C48.1043 117.245 48.0309 116.982 48.0309 116.665V111.239Z" fill="black"/>
<path d="M52.2496 114.719V118H51.4116V110.727H52.2496V113.398H52.3207C52.4485 113.116 52.6403 112.892 52.896 112.727C53.154 112.558 53.4973 112.474 53.9258 112.474C54.2975 112.474 54.623 112.549 54.9023 112.698C55.1817 112.845 55.3983 113.071 55.5522 113.376C55.7085 113.679 55.7866 114.065 55.7866 114.534V118H54.9485V114.591C54.9485 114.158 54.8361 113.823 54.6111 113.586C54.3886 113.347 54.0797 113.227 53.6843 113.227C53.4097 113.227 53.1635 113.285 52.9457 113.401C52.7302 113.517 52.5598 113.687 52.4343 113.909C52.3112 114.132 52.2496 114.402 52.2496 114.719Z" fill="black"/>
<path d="M62.3482 118.114C61.8558 118.114 61.4237 117.996 61.052 117.762C60.6827 117.528 60.3939 117.2 60.1855 116.778C59.9796 116.357 59.8766 115.865 59.8766 115.301C59.8766 114.733 59.9796 114.237 60.1855 113.813C60.3939 113.389 60.6827 113.06 61.052 112.826C61.4237 112.592 61.8558 112.474 62.3482 112.474C62.8406 112.474 63.2715 112.592 63.6408 112.826C64.0125 113.06 64.3013 113.389 64.5073 113.813C64.7156 114.237 64.8198 114.733 64.8198 115.301C64.8198 115.865 64.7156 116.357 64.5073 116.778C64.3013 117.2 64.0125 117.528 63.6408 117.762C63.2715 117.996 62.8406 118.114 62.3482 118.114ZM62.3482 117.361C62.7222 117.361 63.03 117.265 63.2715 117.073C63.513 116.881 63.6917 116.629 63.8077 116.317C63.9237 116.004 63.9817 115.666 63.9817 115.301C63.9817 114.937 63.9237 114.597 63.8077 114.282C63.6917 113.967 63.513 113.713 63.2715 113.518C63.03 113.324 62.7222 113.227 62.3482 113.227C61.9741 113.227 61.6664 113.324 61.4249 113.518C61.1834 113.713 61.0047 113.967 60.8887 114.282C60.7727 114.597 60.7147 114.937 60.7147 115.301C60.7147 115.666 60.7727 116.004 60.8887 116.317C61.0047 116.629 61.1834 116.881 61.4249 117.073C61.6664 117.265 61.9741 117.361 62.3482 117.361Z" fill="black"/>
<path d="M68.5281 112.545V113.256H65.5877V112.545H68.5281ZM66.4684 118V111.793C66.4684 111.48 66.5418 111.22 66.6886 111.011C66.8353 110.803 67.0259 110.647 67.2603 110.543C67.4947 110.438 67.7421 110.386 68.0025 110.386C68.2085 110.386 68.3765 110.403 68.5067 110.436C68.637 110.469 68.734 110.5 68.7979 110.528L68.5565 111.253C68.5139 111.239 68.4547 111.221 68.3789 111.2C68.3055 111.178 68.2085 111.168 68.0877 111.168C67.8107 111.168 67.6107 111.237 67.4876 111.377C67.3668 111.517 67.3065 111.722 67.3065 111.991V118H66.4684Z" fill="black"/>
<path d="M72.6287 118V110.727H73.5094V113.966H77.3873V110.727H78.2679V118H77.3873V114.747H73.5094V118H72.6287Z" fill="black"/>
<path d="M82.1333 118.114C81.6409 118.114 81.2089 117.996 80.8372 117.762C80.4679 117.528 80.179 117.2 79.9707 116.778C79.7647 116.357 79.6618 115.865 79.6618 115.301C79.6618 114.733 79.7647 114.237 79.9707 113.813C80.179 113.389 80.4679 113.06 80.8372 112.826C81.2089 112.592 81.6409 112.474 82.1333 112.474C82.6258 112.474 83.0566 112.592 83.426 112.826C83.7976 113.06 84.0865 113.389 84.2924 113.813C84.5008 114.237 84.6049 114.733 84.6049 115.301C84.6049 115.865 84.5008 116.357 84.2924 116.778C84.0865 117.2 83.7976 117.528 83.426 117.762C83.0566 117.996 82.6258 118.114 82.1333 118.114ZM82.1333 117.361C82.5074 117.361 82.8152 117.265 83.0566 117.073C83.2981 116.881 83.4769 116.629 83.5929 116.317C83.7089 116.004 83.7669 115.666 83.7669 115.301C83.7669 114.937 83.7089 114.597 83.5929 114.282C83.4769 113.967 83.2981 113.713 83.0566 113.518C82.8152 113.324 82.5074 113.227 82.1333 113.227C81.7593 113.227 81.4515 113.324 81.2101 113.518C80.9686 113.713 80.7898 113.967 80.6738 114.282C80.5578 114.597 80.4998 114.937 80.4998 115.301C80.4998 115.666 80.5578 116.004 80.6738 116.317C80.7898 116.629 80.9686 116.881 81.2101 117.073C81.4515 117.265 81.7593 117.361 82.1333 117.361Z" fill="black"/>
<path d="M86.7223 114.719V118H85.8842V112.545H86.6939V113.398H86.7649C86.8928 113.121 87.0869 112.898 87.3473 112.73C87.6077 112.56 87.9439 112.474 88.3558 112.474C88.7251 112.474 89.0483 112.55 89.3253 112.702C89.6023 112.851 89.8177 113.078 89.9716 113.384C90.1255 113.687 90.2024 114.07 90.2024 114.534V118H89.3643V114.591C89.3643 114.162 89.2531 113.829 89.0305 113.589C88.808 113.348 88.5026 113.227 88.1143 113.227C87.8468 113.227 87.6077 113.285 87.397 113.401C87.1887 113.517 87.0242 113.687 86.9034 113.909C86.7827 114.132 86.7223 114.402 86.7223 114.719Z" fill="black"/>
<path d="M93.9355 120.159C93.5307 120.159 93.1827 120.107 92.8915 120.003C92.6003 119.901 92.3577 119.766 92.1635 119.598C91.9718 119.432 91.8191 119.255 91.7054 119.065L92.373 118.597C92.4488 118.696 92.5447 118.81 92.6607 118.938C92.7767 119.068 92.9353 119.18 93.1365 119.275C93.3401 119.372 93.6065 119.42 93.9355 119.42C94.3759 119.42 94.7393 119.314 95.0257 119.101C95.3122 118.888 95.4554 118.554 95.4554 118.099V116.991H95.3844C95.3229 117.091 95.2353 117.214 95.1216 117.361C95.0104 117.505 94.8494 117.634 94.6387 117.748C94.4303 117.859 94.1486 117.915 93.7935 117.915C93.3532 117.915 92.9578 117.811 92.6074 117.602C92.2594 117.394 91.9836 117.091 91.78 116.693C91.5788 116.295 91.4782 115.812 91.4782 115.244C91.4782 114.686 91.5764 114.199 91.7729 113.785C91.9694 113.368 92.2428 113.046 92.5932 112.819C92.9436 112.589 93.3484 112.474 93.8077 112.474C94.1628 112.474 94.4445 112.534 94.6529 112.652C94.8636 112.768 95.0246 112.901 95.1358 113.05C95.2495 113.196 95.3371 113.317 95.3986 113.412H95.4838V112.545H96.2935V118.156C96.2935 118.625 96.187 119.006 95.9739 119.3C95.7632 119.596 95.4791 119.812 95.1216 119.95C94.7665 120.089 94.3712 120.159 93.9355 120.159ZM93.9071 117.162C94.2433 117.162 94.5274 117.085 94.7594 116.931C94.9914 116.777 95.1678 116.556 95.2885 116.267C95.4093 115.978 95.4696 115.633 95.4696 115.23C95.4696 114.837 95.4105 114.49 95.2921 114.19C95.1737 113.889 94.9985 113.653 94.7665 113.483C94.5345 113.313 94.248 113.227 93.9071 113.227C93.552 113.227 93.2561 113.317 93.0194 113.497C92.785 113.677 92.6086 113.919 92.4902 114.222C92.3742 114.525 92.3162 114.861 92.3162 115.23C92.3162 115.609 92.3754 115.944 92.4938 116.235C92.6145 116.524 92.7921 116.751 93.0265 116.917C93.2632 117.08 93.5568 117.162 93.9071 117.162Z" fill="black"/>
<path d="M100.754 118V110.727H101.634V114.335H101.72L104.987 110.727H106.137L103.083 114.009L106.137 118H105.072L102.544 114.619L101.634 115.642V118H100.754Z" fill="black"/>
<path d="M108.979 118.114C108.487 118.114 108.055 117.996 107.683 117.762C107.314 117.528 107.025 117.2 106.816 116.778C106.61 116.357 106.507 115.865 106.507 115.301C106.507 114.733 106.61 114.237 106.816 113.813C107.025 113.389 107.314 113.06 107.683 112.826C108.055 112.592 108.487 112.474 108.979 112.474C109.471 112.474 109.902 112.592 110.272 112.826C110.643 113.06 110.932 113.389 111.138 113.813C111.346 114.237 111.451 114.733 111.451 115.301C111.451 115.865 111.346 116.357 111.138 116.778C110.932 117.2 110.643 117.528 110.272 117.762C109.902 117.996 109.471 118.114 108.979 118.114ZM108.979 117.361C109.353 117.361 109.661 117.265 109.902 117.073C110.144 116.881 110.323 116.629 110.439 116.317C110.555 116.004 110.613 115.666 110.613 115.301C110.613 114.937 110.555 114.597 110.439 114.282C110.323 113.967 110.144 113.713 109.902 113.518C109.661 113.324 109.353 113.227 108.979 113.227C108.605 113.227 108.297 113.324 108.056 113.518C107.814 113.713 107.636 113.967 107.52 114.282C107.404 114.597 107.346 114.937 107.346 115.301C107.346 115.666 107.404 116.004 107.52 116.317C107.636 116.629 107.814 116.881 108.056 117.073C108.297 117.265 108.605 117.361 108.979 117.361Z" fill="black"/>
<path d="M113.568 114.719V118H112.73V112.545H113.54V113.398H113.611C113.738 113.121 113.933 112.898 114.193 112.73C114.453 112.56 114.79 112.474 115.202 112.474C115.571 112.474 115.894 112.55 116.171 112.702C116.448 112.851 116.663 113.078 116.817 113.384C116.971 113.687 117.048 114.07 117.048 114.534V118H116.21V114.591C116.21 114.162 116.099 113.829 115.876 113.589C115.654 113.348 115.348 113.227 114.96 113.227C114.693 113.227 114.453 113.285 114.243 113.401C114.034 113.517 113.87 113.687 113.749 113.909C113.628 114.132 113.568 114.402 113.568 114.719Z" fill="black"/>
<path d="M120.781 120.159C120.376 120.159 120.028 120.107 119.737 120.003C119.446 119.901 119.203 119.766 119.009 119.598C118.817 119.432 118.665 119.255 118.551 119.065L119.219 118.597C119.295 118.696 119.39 118.81 119.506 118.938C119.622 119.068 119.781 119.18 119.982 119.275C120.186 119.372 120.452 119.42 120.781 119.42C121.222 119.42 121.585 119.314 121.871 119.101C122.158 118.888 122.301 118.554 122.301 118.099V116.991H122.23C122.169 117.091 122.081 117.214 121.967 117.361C121.856 117.505 121.695 117.634 121.484 117.748C121.276 117.859 120.994 117.915 120.639 117.915C120.199 117.915 119.804 117.811 119.453 117.602C119.105 117.394 118.829 117.091 118.626 116.693C118.424 116.295 118.324 115.812 118.324 115.244C118.324 114.686 118.422 114.199 118.619 113.785C118.815 113.368 119.089 113.046 119.439 112.819C119.789 112.589 120.194 112.474 120.653 112.474C121.009 112.474 121.29 112.534 121.499 112.652C121.709 112.768 121.87 112.901 121.982 113.05C122.095 113.196 122.183 113.317 122.244 113.412H122.33V112.545H123.139V118.156C123.139 118.625 123.033 119.006 122.82 119.3C122.609 119.596 122.325 119.812 121.967 119.95C121.612 120.089 121.217 120.159 120.781 120.159ZM120.753 117.162C121.089 117.162 121.373 117.085 121.605 116.931C121.837 116.777 122.013 116.556 122.134 116.267C122.255 115.978 122.315 115.633 122.315 115.23C122.315 114.837 122.256 114.49 122.138 114.19C122.019 113.889 121.844 113.653 121.612 113.483C121.38 113.313 121.094 113.227 120.753 113.227C120.398 113.227 120.102 113.317 119.865 113.497C119.631 113.677 119.454 113.919 119.336 114.222C119.22 114.525 119.162 114.861 119.162 115.23C119.162 115.609 119.221 115.944 119.339 116.235C119.46 116.524 119.638 116.751 119.872 116.917C120.109 117.08 120.402 117.162 120.753 117.162Z" fill="black"/>
<path d="M125.284 118.057C125.109 118.057 124.959 117.994 124.833 117.869C124.708 117.743 124.645 117.593 124.645 117.418C124.645 117.242 124.708 117.092 124.833 116.967C124.959 116.841 125.109 116.778 125.284 116.778C125.459 116.778 125.61 116.841 125.735 116.967C125.861 117.092 125.923 117.242 125.923 117.418C125.923 117.534 125.894 117.64 125.835 117.737C125.778 117.834 125.701 117.912 125.604 117.972C125.509 118.028 125.402 118.057 125.284 118.057Z" fill="black"/>
</svg>
